<svg id="network" xmlns="http://www.w3.org/2000/svg" viewBox="0 0 89.4 100"><defs><style>.cls-1{fill:#fff;}</style></defs><path class="cls-1" d="M23.74,33l7,4A23.46,23.46,0,0,1,48.4,26.84V18.78A9.53,9.53,0,0,1,40.9,7.87,9.4,9.4,0,0,1,50.07,0a9.56,9.56,0,0,1,9.4,7.45,9.29,9.29,0,0,1-1.39,7.24A9.56,9.56,0,0,1,52,18.75c0,2.6,0,5.15,0,7.7,0,.17.4.46.63.48A23.33,23.33,0,0,1,69.27,37l7-4a9.53,9.53,0,0,1,1.09-8.26,9.1,9.1,0,0,1,5.2-3.86,9.45,9.45,0,0,1,11.15,4.85A9.48,9.48,0,0,1,78.05,36.12l-7,4a23.4,23.4,0,0,1,0,19.8l7,4a9.48,9.48,0,0,1,8-3.25,9.08,9.08,0,0,1,5.69,2.55A9.46,9.46,0,1,1,76.29,67l-7-4-.53.74a23.07,23.07,0,0,1-16,9.33c-.26,0-.7.32-.7.49,0,2.55,0,5.1,0,7.69a9.61,9.61,0,0,1,6.6,4.91,9.19,9.19,0,0,1,.9,6.4,9.46,9.46,0,0,1-18.57-.42,9.56,9.56,0,0,1,7.55-10.92q0-3,0-6.09c0-.61.19-1.41-.12-1.79S47.19,73,46.6,73a23.06,23.06,0,0,1-15.52-9.48c-.09-.13-.19-.25-.35-.46l-7,4a9.49,9.49,0,0,1-.95,8.08,9.07,9.07,0,0,1-5,4,9.47,9.47,0,0,1-11.3-4.48A9.61,9.61,0,0,1,8.91,62.6,9.6,9.6,0,0,1,22,63.89l7-4a23.26,23.26,0,0,1,0-19.8l-7-4a9.55,9.55,0,0,1-7.66,3.28A9.16,9.16,0,0,1,8.4,37,9.48,9.48,0,0,1,6.71,25a9.48,9.48,0,0,1,17,8Zm14.48,26.8A15.56,15.56,0,0,0,47,65.05a.84.84,0,0,1,.43.6,21.29,21.29,0,0,1,.17,2.25c0,.47.17.66.67.65q1.77,0,3.54,0c.52,0,.64-.21.66-.66,0-.7.14-1.4.13-2.09,0-.53.19-.72.72-.83a15.06,15.06,0,0,0,7.81-4.39c.23-.25.45-.52.66-.76l3.11,1.49,2.37-4.11c-.82-.55-1.53-1.07-2.28-1.53a.71.71,0,0,1-.37-1,15,15,0,0,0,0-9.42.67.67,0,0,1,.34-.91c.77-.48,1.5-1,2.31-1.56L64.87,38.7l-3.09,1.48A15.58,15.58,0,0,0,53.12,35a.92.92,0,0,1-.51-.62c-.11-.77-.1-1.56-.2-2.33,0-.2-.26-.52-.41-.53-1.43,0-2.87,0-4.36,0-.08,1-.18,1.86-.2,2.74,0,.54-.21.71-.72.83a15,15,0,0,0-8,4.62,5.37,5.37,0,0,0-.4.55L35.13,38.7l-2.35,4.1c.82.57,1.56,1.09,2.33,1.59a.62.62,0,0,1,.33.84,15.38,15.38,0,0,0,0,9.58.92.92,0,0,1-.27.76c-.74.57-1.54,1.07-2.37,1.64l2.36,4.1Zm12-56.29A5.91,5.91,0,1,0,56.14,9.4,5.88,5.88,0,0,0,50.21,3.54ZM8.85,70a5.91,5.91,0,1,0,5.89-5.88A5.9,5.9,0,0,0,8.85,70ZM44.31,90.53a5.92,5.92,0,1,0,6-5.88A5.89,5.89,0,0,0,44.31,90.53ZM14.71,35.87a5.91,5.91,0,1,0-5.86-6A5.91,5.91,0,0,0,14.71,35.87ZM91.18,70.05A5.92,5.92,0,1,0,85.31,76,5.89,5.89,0,0,0,91.18,70.05Zm0-40a5.92,5.92,0,1,0-6,5.87A5.89,5.89,0,0,0,91.18,30Z" transform="translate(-5.3 0)"/><path class="cls-1" d="M50,40.84A9.17,9.17,0,1,1,40.84,50,9.17,9.17,0,0,1,50,40.84Z" transform="translate(-5.3 0)"/><path class="cls-1" d="M50.23,6.28a3.17,3.17,0,1,1-3.18,3.14A3.13,3.13,0,0,1,50.23,6.28Z" transform="translate(-5.3 0)"/><path class="cls-1" d="M17.93,70a3.18,3.18,0,1,1-3.21-3.13A3.15,3.15,0,0,1,17.93,70Z" transform="translate(-5.3 0)"/><path class="cls-1" d="M53.39,90.55a3.17,3.17,0,1,1-3.18-3.15A3.13,3.13,0,0,1,53.39,90.55Z" transform="translate(-5.3 0)"/><path class="cls-1" d="M17.92,30a3.17,3.17,0,1,1-3.1-3.22A3.14,3.14,0,0,1,17.92,30Z" transform="translate(-5.3 0)"/><path class="cls-1" d="M85.25,73.21a3.17,3.17,0,1,1,3.22-3.14A3.15,3.15,0,0,1,85.25,73.21Z" transform="translate(-5.3 0)"/><path class="cls-1" d="M85.31,26.8a3.17,3.17,0,1,1-3.21,3.12A3.18,3.18,0,0,1,85.31,26.8Z" transform="translate(-5.3 0)"/></svg>