<svg id="Layer_62" data-name="Layer 62" xmlns="http://www.w3.org/2000/svg" viewBox="0 0 80.38 100"><defs><style>.cls-1{fill:#fff;}</style></defs><path class="cls-1" d="M37.26,26.72c-5.65-8.13-3.33-17.07,2.38-21.94a16,16,0,0,1,20.83.16c6.29,5.54,7.2,14.13,2.21,21.75a20.66,20.66,0,0,1,10.43,9.86c2.22,4.57,1.76,9.53,1.87,14.59,2.42,0,4.63-.1,6.84,0A8.9,8.9,0,0,1,85.31,68a2.54,2.54,0,0,0-1.63,2.47c-.58,8.34-1.3,16.68-1.92,25a3,3,0,0,1-1.87,2.89c-1.53.68-3,1.54-5,2.57.83-10.8,1.63-21.17,2.43-31.67H22.56c.8,10.46,1.6,20.84,2.44,31.72-2.29-1.25-4.18-2.21-6-3.32a2.09,2.09,0,0,1-.73-1.47c-.59-7-1.12-14.07-1.67-21.11-.14-1.83-.16-3.67-.47-5.46-.09-.58-.83-1.19-1.43-1.51a9.1,9.1,0,0,1-4.79-9.68,9.43,9.43,0,0,1,6.89-7.25,28.21,28.21,0,0,1,3.91-.1c1.3-.05,2.59-.14,4.16-.22,0-4.87-.25-9.8,1.95-14.34A20.37,20.37,0,0,1,37.26,26.72ZM58.75,51c0-1.91,0-3.54,0-5.17.05-2.23,1-3.36,2.77-3.23s2.44,1.26,2.33,3.58c-.08,1.54,0,3.09,0,4.79h5c0-1.69-.11-3.32,0-4.93.59-7.27-4.83-12.55-10.48-14.35a4.11,4.11,0,0,0-2.4.12,15.84,15.84,0,0,1-11.3.15,5,5,0,0,0-4.44.21,26.92,26.92,0,0,0-2.76,1.47c-6.3,4.43-6.95,9.28-6.1,17.5.94,0,1.91,0,2.87,0,1.69.08,2.12-.76,1.94-2.31a16.29,16.29,0,0,1,0-3.49c.19-2.1,1.1-3.05,2.69-2.83,1.88.26,2.38,1.52,2.3,3.25s0,3.48,0,5.23ZM50,57.35H28.6c-3.27,0-6.55,0-9.82,0a2.39,2.39,0,0,0-2.59,2.38,2.56,2.56,0,0,0,2.26,2.94,6.23,6.23,0,0,0,1.37.09H80.08c.71,0,1.69.07,2.06-.34a4.53,4.53,0,0,0,1.48-2.81c-.06-.79-1.22-1.63-2.06-2.18-.46-.31-1.27-.1-1.93-.1ZM40.17,16.83a9.81,9.81,0,1,0,10-9.68A9.84,9.84,0,0,0,40.17,16.83Z" transform="translate(-9.81 -1)"/></svg>