<svg xmlns="http://www.w3.org/2000/svg" viewBox="0 0 333.11 150">
  <title>renewable</title>
  <path d="M-79.48,9.61-77,98H-87l2-90.26L-130,19.85c13.35-5.74,24.72-16.64,40.48-15.08C-88-2.08-88-2.08-82.18-2.92L-71.89-52l2.46.48c-2.48,15.12-4.92,30.24-7.47,45.35A15.67,15.67,0,0,0-72,8.55q15.74,15.21,31.51,30.39L-42,40.72Z" transform="translate(129.97 51.98)" fill="#c1c1c1"/>
  <g>
    <path d="M-65.52,66.73h8.71a9.85,9.85,0,0,0,4.94-1.28,9.72,9.72,0,0,0,3.62-3.57,9.74,9.74,0,0,0,1.35-5.06,8.87,8.87,0,0,0-1.34-4.71,10,10,0,0,0-3.64-3.5,9.82,9.82,0,0,0-4.93-1.3H-75V74.76h-1.45V45.86h19.63a11,11,0,0,1,4.37.89,11.81,11.81,0,0,1,3.62,2.37,11.39,11.39,0,0,1,2.45,3.5,10,10,0,0,1,.92,4.2A11.5,11.5,0,0,1-47.06,63a10.54,10.54,0,0,1-4.32,4l3,7.83h-1.55l-2.87-7.25q-.54.18-1.26.36l2.71,6.89h-1.55l-2.65-6.64q-.62.06-1.3.06l2.55,6.58h-1.53l-2.53-6.58h-1.3l2.43,6.58h-1.53l-2.45-6.58h-4.36Zm0-2.89h8.71a6.94,6.94,0,0,0,5-2,6.67,6.67,0,0,0,2.07-5.06,6.2,6.2,0,0,0-2.11-4.63,6.93,6.93,0,0,0-4.92-2h-15.3V74.76h-1.45v-26h16.74a8.32,8.32,0,0,1,5.94,2.42,7.58,7.58,0,0,1,2.53,5.65,8.08,8.08,0,0,1-2.5,6,8.27,8.27,0,0,1-6,2.43h-8.71Zm0-2.89h8.71a4.23,4.23,0,0,0,2.93-1.08,3.89,3.89,0,0,0,1.2-3.05,3.44,3.44,0,0,0-1.25-2.59,4.15,4.15,0,0,0-2.88-1.14H-69.22V74.76h-1.45V51.64h13.85a5.54,5.54,0,0,1,3.9,1.57,4.82,4.82,0,0,1,1.68,3.61,5.29,5.29,0,0,1-1.63,4.06,5.59,5.59,0,0,1-4,1.52h-8.71Zm-.8,13.81h-1.45V54.53h11a2.83,2.83,0,0,1,1.91.67,2.06,2.06,0,0,1,.78,1.62,2.38,2.38,0,0,1-2.69,2.69h-8.71V58.06h8.71a1.1,1.1,0,0,0,1.24-1.24.72.72,0,0,0-.37-.59,1.52,1.52,0,0,0-.87-.25h-9.52Z" transform="translate(129.97 51.98)" fill="#adadad"/>
    <path d="M-40.81,74.76h-1.45V45.86h1.45Zm2.89,0h-1.45V45.86h1.45Zm2.89,0h-1.45V45.86H-35Zm2.89-7.23h13.83V69H-32.14v1.45h13.83v1.45H-32.14v1.45h13.83v1.45H-33.59V45.86h15.28V47.3H-32.14v1.45h13.83v1.45H-32.14v1.45h13.83v1.45H-32.14v3.59h13v1.45h-13v1.45h13V61h-13v1.45h13V63.9h-13Z" transform="translate(129.97 51.98)" fill="#adadad"/>
    <path d="M-13.39,48.35V74.76h-1.45V45.86h1.73L3.57,74.76H1.9Zm1.45,4L-10.5,55V74.76h-1.45Zm.5-6.46h1.69L7,74.76H5.3Zm2.39,11.66,1.45,2.63V74.76H-9.06Zm1-11.66h1.71L10.4,74.76H8.67Zm3.39,0H-3L12.3,72.25V45.86h1.45V74.76H12ZM8,63.1,6.52,60.47V45.86H8Zm2.89,5L9.41,65.65V45.86h1.45Z" transform="translate(129.97 51.98)" fill="#adadad"/>
    <path d="M19,74.76H17.52V45.86H19Zm2.89,0H20.41V45.86h1.45Zm2.89,0H23.3V45.86h1.45Zm2.89-7.23H41.47V69H27.64v1.45H41.47v1.45H27.64v1.45H41.47v1.45H26.19V45.86H41.47V47.3H27.64v1.45H41.47v1.45H27.64v1.45H41.47v1.45H27.64v3.59h13v1.45h-13v1.45h13V61h-13v1.45h13V63.9h-13Z" transform="translate(129.97 51.98)" fill="#adadad"/>
    <path d="M73.46,65.46q.41,0,1,0t1,0a4,4,0,0,0,.85-.16,1.91,1.91,0,0,0,.7-.35,1.63,1.63,0,0,0,.43-.63,2.6,2.6,0,0,0,.17-1V45.86h1.45V63.32q0,3.61-4.62,3.61A5.55,5.55,0,0,1,71,66.05a9.78,9.78,0,0,1-.38,1.39,8.26,8.26,0,0,0,8.21-.31,4.43,4.43,0,0,0,1.69-3.8V45.86H82V63.32a5.79,5.79,0,0,1-2.12,4.83,8.42,8.42,0,0,1-5.39,1.68,8.68,8.68,0,0,1-4.38-1,8.52,8.52,0,0,1-.7,1.22,10,10,0,0,0,5.08,1.26A11.26,11.26,0,0,0,78,70.75a8.81,8.81,0,0,0,2.84-1.51,6.82,6.82,0,0,0,1.93-2.51,8.06,8.06,0,0,0,.7-3.41V45.86h1.45V63.32a9,9,0,0,1-1.42,5.06,8.84,8.84,0,0,1-3.75,3.25,12.29,12.29,0,0,1-5.23,1.08,11.3,11.3,0,0,1-5.94-1.55,10.93,10.93,0,0,1-1,1,12.48,12.48,0,0,0,7,1.95,13.52,13.52,0,0,0,5.94-1.28,10.33,10.33,0,0,0,5.9-9.56V45.86h1.45V63.32a12.22,12.22,0,0,1-1.05,5.1,11.22,11.22,0,0,1-2.85,3.89,13,13,0,0,1-4.23,2.43,15.3,15.3,0,0,1-5.16.86,13.58,13.58,0,0,1-8.17-2.45A14.13,14.13,0,0,1,58,75.61a15.3,15.3,0,0,1-5.16-.86,13,13,0,0,1-4.23-2.43,11.21,11.21,0,0,1-2.85-3.89,12.22,12.22,0,0,1-1.05-5.1V45.86h1.45V63.32a10.9,10.9,0,0,0,.93,4.54,9.62,9.62,0,0,0,2.54,3.43,11.68,11.68,0,0,0,3.76,2.12,13.89,13.89,0,0,0,4.61.75,12.39,12.39,0,0,0,5.92-1.46,11.38,11.38,0,0,0,4.33-4,9.9,9.9,0,0,0,1.6-5.43V45.86H71.3V63.32a2.59,2.59,0,0,0,.17,1,1.62,1.62,0,0,0,.43.63,1.91,1.91,0,0,0,.7.35A4,4,0,0,0,73.46,65.46Zm-5-19.6V63.32A9,9,0,0,1,67,68.38a8.84,8.84,0,0,1-3.75,3.25,13.16,13.16,0,0,1-10.46,0A8.84,8.84,0,0,1,49,68.38a9,9,0,0,1-1.42-5.06V45.86h1.45V63.32a8.06,8.06,0,0,0,.7,3.41,6.81,6.81,0,0,0,1.93,2.51,8.8,8.8,0,0,0,2.84,1.51,11.88,11.88,0,0,0,7,0,8.81,8.81,0,0,0,2.84-1.51,6.82,6.82,0,0,0,1.93-2.51,8.06,8.06,0,0,0,.7-3.41V45.86Zm-2.89,0V63.32a5.79,5.79,0,0,1-2.12,4.83A8.42,8.42,0,0,1,58,69.83a8.42,8.42,0,0,1-5.39-1.68,5.79,5.79,0,0,1-2.12-4.83V45.86h1.45V63.32a4.43,4.43,0,0,0,1.69,3.8A7.14,7.14,0,0,0,58,68.38a7.14,7.14,0,0,0,4.38-1.25,4.43,4.43,0,0,0,1.69-3.8V45.86Zm-2.89,0V63.32q0,3.61-4.62,3.61t-4.62-3.61V45.86h1.45V63.32a2.59,2.59,0,0,0,.17,1,1.62,1.62,0,0,0,.43.63,1.91,1.91,0,0,0,.7.35,4,4,0,0,0,.85.16q.41,0,1,0t1,0a4,4,0,0,0,.85-.16,1.91,1.91,0,0,0,.7-.35,1.63,1.63,0,0,0,.43-.63,2.6,2.6,0,0,0,.17-1V45.86Z" transform="translate(129.97 51.98)" fill="#adadad"/>
    <path d="M122,60.51V74.76h-1.45V60.51a14.09,14.09,0,0,0-1.91-7.32,13.11,13.11,0,0,0-5.2-5,15.36,15.36,0,0,0-7.35-1.76A14,14,0,0,0,99,48.33a13.73,13.73,0,0,0-6.93,12A13.81,13.81,0,0,0,92.87,65,12.68,12.68,0,0,0,95,68.87a14.83,14.83,0,0,0,3.17,2.86,14.26,14.26,0,0,0,3.87,1.83,14.64,14.64,0,0,0,4.23.62,11.39,11.39,0,0,0,4.5-.9v1.49a13.71,13.71,0,0,1-4.58.78,16.53,16.53,0,0,1-4.73-.68,15.14,15.14,0,0,1-4.26-2,16.23,16.23,0,0,1-3.44-3.15,13.76,13.76,0,0,1-2.33-4.25,15.56,15.56,0,0,1-.84-5.14,15.28,15.28,0,0,1,1.17-5.93A14.68,14.68,0,0,1,100,46.23,15.82,15.82,0,0,1,106.13,45a17.34,17.34,0,0,1,6.26,1.12,15.32,15.32,0,0,1,5.06,3.12,14.17,14.17,0,0,1,3.35,4.91A16.2,16.2,0,0,1,122,60.51Zm-2.89,0V74.76h-1.45V60.51a11.31,11.31,0,0,0-1.52-5.87A10.18,10.18,0,0,0,112,50.72a12.62,12.62,0,0,0-5.9-1.37,11.2,11.2,0,0,0-5.68,1.48A10.8,10.8,0,0,0,95,60.31,11.38,11.38,0,0,0,95.91,65a9.68,9.68,0,0,0,2.54,3.48,11.85,11.85,0,0,0,3.63,2.12,12.21,12.21,0,0,0,4.27.75,11.15,11.15,0,0,0,4.46-.94v1.47a12.68,12.68,0,0,1-4.5.86,13.26,13.26,0,0,1-6.38-1.57,12.18,12.18,0,0,1-6.4-10.86,12.17,12.17,0,0,1,1-4.82,12.07,12.07,0,0,1,6.65-6.6,12.76,12.76,0,0,1,5-1,14,14,0,0,1,6.63,1.57,11.64,11.64,0,0,1,4.67,4.46A12.71,12.71,0,0,1,119.14,60.51Zm-2.89,0V74.76H114.8V60.51a7.8,7.8,0,0,0-2.43-6,8.85,8.85,0,0,0-6.24-2.24,8,8,0,0,0-5.9,2.35,7.75,7.75,0,0,0-2.37,5.72A9.06,9.06,0,0,0,98.57,64a6.74,6.74,0,0,0,1.94,2.61,8.86,8.86,0,0,0,2.74,1.5,9.94,9.94,0,0,0,3.2.51,9.39,9.39,0,0,0,4.36-1.06v1.53a11.29,11.29,0,0,1-4.38.9,11.55,11.55,0,0,1-3.77-.61,10,10,0,0,1-3.19-1.79,8.17,8.17,0,0,1-2.23-3.05,10.36,10.36,0,0,1-.82-4.21,9.14,9.14,0,0,1,2.8-6.73,9.43,9.43,0,0,1,6.92-2.78A11.18,11.18,0,0,1,111.31,52a8.8,8.8,0,0,1,3.61,3.4A9.86,9.86,0,0,1,116.24,60.51Zm-4.34,0a5,5,0,0,0-1.59-4,6.1,6.1,0,0,0-4.2-1.41,5.28,5.28,0,0,0-3.79,1.53,4.89,4.89,0,0,0-1.59,3.65,6.74,6.74,0,0,0,.32,2.16,4.61,4.61,0,0,0,.87,1.59,4.66,4.66,0,0,0,1.31,1,6,6,0,0,0,1.6.59,8.37,8.37,0,0,0,1.78.18,8,8,0,0,0,4.18-1.12v1.45a8.88,8.88,0,0,1-4.2,1,9.22,9.22,0,0,1-2.72-.39,7.37,7.37,0,0,1-2.32-1.18,5.42,5.42,0,0,1-1.66-2.17,7.7,7.7,0,0,1-.61-3.16,6.36,6.36,0,0,1,1.95-4.7,6.65,6.65,0,0,1,4.88-1.93,7.47,7.47,0,0,1,5.23,1.82,6.43,6.43,0,0,1,2,5V74.76h-1.45Z" transform="translate(129.97 51.98)" fill="#adadad"/>
    <path d="M148.24,60.15l0,0a7.22,7.22,0,0,0,2.27-5.38,7.12,7.12,0,0,0-2.24-5.23,7.27,7.27,0,0,0-5.29-2.22H127V74.76H125.6V45.86h17.34a8.67,8.67,0,0,1,4.45,1.21,9.16,9.16,0,0,1,3.3,3.27,8.48,8.48,0,0,1,1.22,4.41,9,9,0,0,1-1.73,5.52,8.78,8.78,0,0,1,1.73,5.26,9.32,9.32,0,0,1-1.24,4.85,8.22,8.22,0,0,1-3.26,3.16,9.42,9.42,0,0,1-4.47,1.06h-9.13V73.16h9.13a7.54,7.54,0,0,0,7.53-7.63,7.16,7.16,0,0,0-.64-2.93,8.18,8.18,0,0,0-1.61-2.43A0,0,0,0,1,148.24,60.15Zm-5.3,10.12h-9.13v1.45h9.13a5.88,5.88,0,0,0,4.29-1.78,6.17,6.17,0,0,0,.9-7.55,6.22,6.22,0,0,0-2.36-2.28,6.05,6.05,0,0,0,2.36-2.18,5.84,5.84,0,0,0,.89-3.18,5.73,5.73,0,0,0-1.82-4.21,5.87,5.87,0,0,0-4.27-1.8H128.49v26h1.45V50.19h13a4.48,4.48,0,0,1,3.24,1.38,4.5,4.5,0,0,1,0,6.48,4.59,4.59,0,0,1-3.27,1.29h-9.13v1.45h9.13a4.4,4.4,0,0,1,3.24,1.43,4.59,4.59,0,0,1,1.4,3.31,4.6,4.6,0,0,1-4.64,4.74Zm0-13.81h-9.13V57.9h9.13a3.22,3.22,0,0,0,2.27-.85,3.11,3.11,0,0,0,0-4.47,3.09,3.09,0,0,0-2.23-.94H131.38V74.76h1.45V53.08h10.12a1.7,1.7,0,0,1,1.21.51,1.57,1.57,0,0,1,.53,1.15,1.6,1.6,0,0,1-.5,1.26A1.82,1.82,0,0,1,142.94,56.46Zm0,10.92h-9.13v1.45h9.13a3.13,3.13,0,0,0,3.19-3.29,3.2,3.2,0,0,0-1-2.3,3,3,0,0,0-2.23-1h-9.15v1.45h9.15a1.63,1.63,0,0,1,1.21.56,2,2,0,0,1,0,2.65A1.73,1.73,0,0,1,142.94,67.38Z" transform="translate(129.97 51.98)" fill="#adadad"/>
    <path d="M155.23,45.86h1.45V74.76h-1.45Zm2.89,0h1.45V74.76h-1.45Zm2.89,0h1.45V74.76H161Zm2.89,0h1.45V67.54H176V69H165.35v1.45H176v1.45H165.35v1.45H176v1.45H163.9Z" transform="translate(129.97 51.98)" fill="#adadad"/>
    <path d="M180.64,74.76H179.2V45.86h1.45Zm2.89,0h-1.45V45.86h1.45Zm2.89,0H185V45.86h1.45Zm2.89-7.23h13.83V69H189.31v1.45h13.83v1.45H189.31v1.45h13.83v1.45H187.87V45.86h15.28V47.3H189.31v1.45h13.83v1.45H189.31v1.45h13.83v1.45H189.31v3.59h13v1.45h-13v1.45h13V61h-13v1.45h13V63.9h-13Z" transform="translate(129.97 51.98)" fill="#adadad"/>
  </g>
</svg>
