<svg id="exhibition" xmlns="http://www.w3.org/2000/svg" viewBox="0 0 100.01 100"><defs><style>.cls-1{fill:#fff;}</style></defs><path class="cls-1" d="M49.89,100H5.61C2,100,0,98.06,0,94.47Q0,84.09,0,73.71c0-3.42,2-5.44,5.45-5.44H94.53c3.5,0,5.46,2,5.47,5.54q0,10.38,0,20.77C100,98,98,100,94.55,100Z" transform="translate(0.01 0)"/><path class="cls-1" d="M50,32.75H5.74c-3.14,0-4.75-1.81-4.06-4.9.62-2.76,1.55-5.44,2.38-8.15C5.62,14.61,7.21,9.52,8.79,4.43A5.89,5.89,0,0,1,14.73,0H85.26a5.81,5.81,0,0,1,5.91,4.3q3.49,11.2,6.93,22.43a9,9,0,0,1,.31,1.34c.43,2.87-1.12,4.68-4,4.68Zm-.14-21.31H79a5.17,5.17,0,0,0,1.48-.14,2,2,0,0,0,1.56-2.14,2,2,0,0,0-1.57-2A5.72,5.72,0,0,0,79,7H21a5.25,5.25,0,0,0-1.48.16,2,2,0,0,0-1.56,2,2,2,0,0,0,1.46,2.09,5,5,0,0,0,1.6.18ZM50,24.81h28.9a8.66,8.66,0,0,0,1.25,0,2.13,2.13,0,0,0,1.89-2.13,2.17,2.17,0,0,0-1.84-2.19,7.43,7.43,0,0,0-1.25,0h-58a8.35,8.35,0,0,0-1,0,2.18,2.18,0,0,0-2,2.16,2.15,2.15,0,0,0,2,2.2c.42,0,.84,0,1.25,0Z" transform="translate(0.01 0)"/><path class="cls-1" d="M37.93,63.78c-.51-5.26,1.41-9.29,5.65-10.65a20.54,20.54,0,0,1,12.9,0c4.32,1.47,6,5.4,5.71,9.93,0,.92-.7.78-1.26.78-4.29,0-8.57,0-12.85,0-2.79,0-5.57,0-8.35,0C39.12,63.88,38.51,63.81,37.93,63.78Z" transform="translate(0.01 0)"/><path class="cls-1" d="M82,37.28h6.92v26.5H82Z" transform="translate(0.01 0)"/><path class="cls-1" d="M11,37.28H18c0,.4.09.79.09,1.19q0,12.08,0,24.14c0,1-.32,1.31-1.3,1.27-1.87-.07-3.74,0-5.68,0Z" transform="translate(0.01 0)"/><path class="cls-1" d="M56.48,42.51a6.48,6.48,0,1,1-6.56-6.46A6.46,6.46,0,0,1,56.48,42.51Z" transform="translate(0.01 0)"/></svg>