<svg id="Layer_63" data-name="Layer 63" xmlns="http://www.w3.org/2000/svg" viewBox="0 0 100 79.25"><defs><style>.cls-1{fill:#fff;}</style></defs><path class="cls-1" d="M38.41,64.07c-2.9,0-5.36-.16-7.78.08A4.73,4.73,0,0,0,28,65.82c-3.8,4.3-7.47,8.73-11.26,13C15.43,80.31,14.27,83,12,81.63c-1.16-.7-1.57-3.26-1.67-5-.23-4.06-.07-8.14-.07-12.37C9,64.16,8.06,64.11,7.16,64c-4-.32-7-3.21-7.08-7.15Q-.08,38.43.08,20a7.11,7.11,0,0,1,7.13-7.07q28.62-.12,57.23,0c4.24,0,7.12,3.1,7.3,7.57.16,3.89.05,7.79.06,11.69v3.68c6.55,0,12.79-.15,19,.08a14.12,14.12,0,0,1,6.31,1.81c2.39,1.39,2.89,4,2.88,6.74,0,8.71,0,17.43,0,26.15,0,5.92-2.61,8.56-8.56,8.86-.39,0-.78.09-1.6.18,0,3,.17,5.93-.08,8.85A4.93,4.93,0,0,1,88,92c-.7.41-2.49-.39-3.42-1.13-4-3.1-7.67-6.51-11.67-9.54A9,9,0,0,0,68,79.54c-7-.19-14-.06-20.93-.09-5.56,0-8.54-3-8.66-8.51C38.37,68.8,38.41,66.65,38.41,64.07Zm-23,8.4c3.69-4.29,6.64-8,9.88-11.34a6.9,6.9,0,0,1,4.38-2c10.88-.17,21.76-.09,32.64-.1,3.74,0,4.32-.57,4.32-4.24q0-16.31,0-32.63c0-3.69-.56-4.25-4.3-4.25q-26.47,0-52.95,0c-3.64,0-4.31.67-4.31,4.31q0,15.08,0,30.17c0,6.48,0,6.58,6.61,6.6,2.86,0,3.84,1.28,3.76,4C15.34,65.77,15.41,68.63,15.41,72.47ZM43.9,64.06c-.13.76-.22,1.06-.23,1.36,0,1.64-.05,3.28,0,4.92,0,3.5.59,4,4.18,4.06,7.48,0,15-.08,22.44.08a8.07,8.07,0,0,1,4.38,1.59c3.25,2.4,6.28,5.08,9.68,7.9.14-.9.21-1.28.25-1.65.22-2.32-.36-5.35.89-6.73s4.27-.92,6.54-1.18a2.87,2.87,0,0,0,2.89-3.24q0-13.53,0-27.06a2.68,2.68,0,0,0-3-3l-7.69,0h-12a5.82,5.82,0,0,0-.35,1.07c0,4.3,0,8.61-.08,12.91-.06,6.24-2.83,9-9,9S50.31,64.06,43.9,64.06Z" transform="translate(0 -12.83)"/><path class="cls-1" d="M35.74,33.27c-5.53,0-11.06,0-16.59,0-1.88,0-3.69-.17-3.66-2.59,0-2.21,1.69-2.47,3.48-2.47q16.89,0,33.79,0c1.78,0,3.46.22,3.51,2.44,0,2.41-1.73,2.63-3.63,2.62C47,33.26,41.37,33.27,35.74,33.27Z" transform="translate(0 -12.83)"/><path class="cls-1" d="M35.87,41.06H52.76c1.76,0,3.48.19,3.51,2.43s-1.72,2.67-3.63,2.67q-16.76,0-33.49,0c-1.89,0-3.69-.24-3.66-2.62s2-2.47,3.79-2.47Z" transform="translate(0 -12.83)"/></svg>