<svg id="group" xmlns="http://www.w3.org/2000/svg" viewBox="0 0 100 72.72"><defs><style>.cls-1{fill:#fff;}</style></defs><path class="cls-1" d="M17.57,68.68c-3.74,0-7.06.14-10.36,0C3.26,68.45.74,65.46.9,61.35A84.08,84.08,0,0,0,.26,43.91a1.7,1.7,0,0,1,1.47-2.19,1.67,1.67,0,0,1,2,1.67c.32,2.67.55,5.36.82,8a2.13,2.13,0,0,0,.34,1.09c.41-2.66.75-5.32,1.26-8,.77-4,3.24-6.72,6.6-7.32,4.23-.77,7.51.92,9.45,5,1.3,2.74,2.55,5.51,3.64,8.33a2.33,2.33,0,0,0,2.4,1.69c1.88.09,3.76.28,5.81.44-.27-.84-.44-1.51-.7-2.16-.33-.82-.29-1.56.61-1.88s1.35.38,1.62,1.16c.18.53.39,1.06.55,1.61a3,3,0,0,0,1.58,2.17,2.41,2.41,0,0,1,1.08,3,4.79,4.79,0,0,1-1.57,2.31,3.73,3.73,0,0,1-2.17.44c-3.7,0-7.39,0-11.09,0a4.43,4.43,0,0,1-4.31-2.67c-1.3-2.58-2.6-5.15-4-7.9-2.9,2.94-4.48,6.21-4.06,10.26S14.35,65.94,17.57,68.68Z" transform="translate(-0.22 -11.91)"/><path class="cls-1" d="M95.83,51.12c.16-1.72.31-3.43.48-5.15a24.14,24.14,0,0,1,.37-2.67c.21-1,.81-1.77,2-1.6a1.7,1.7,0,0,1,1.53,2.16,87.59,87.59,0,0,0-.66,17.43c.16,4.6-2.64,7.4-7.22,7.42q-4.41,0-8.82,0c-.07,0-.14-.08-.34-.21,3.55-3.08,6.09-6.68,5.69-11.62a12.08,12.08,0,0,0-4.11-7.93c-.81,1.63-1.61,3.2-2.38,4.79-2.7,5.54-2.7,5.55-8.91,5.54-2.93,0-5.88.05-8.81-.11-2.41-.13-3.57-2.25-2.68-4.5.52-1.33,1.65-1.6,2.86-1.73,2.68-.3,5.36-.61,8.06-.82a1.63,1.63,0,0,0,1.65-1.18c1.08-2.73,2.26-5.42,3.42-8.11,1.91-4.41,5.25-6.35,9.7-5.55,3.55.63,5.48,3,6.36,6.33.62,2.27,1,4.63,1.43,6.95,0,.2.11.39.17.59Z" transform="translate(-0.22 -11.91)"/><path class="cls-1" d="M69.51,84.63h-3.3V78.24c0-2.95-1.09-4-4-4H38.3c-2.58,0-3.74,1.16-3.76,3.72,0,2.09,0,4.17,0,6.26a1.63,1.63,0,0,1-.1.38h-3c0-3-.12-5.88.07-8.78A5.15,5.15,0,0,1,33,73a5.93,5.93,0,0,0,1.54-2.76,8.84,8.84,0,0,1,7.39-7,49.53,49.53,0,0,1,16.83,0c4.19.68,6.74,3.36,7.77,7.51a9,9,0,0,0,1.06,1.9c.66,1.22,1.73,2.41,1.86,3.7A79.69,79.69,0,0,1,69.51,84.63Z" transform="translate(-0.22 -11.91)"/><path class="cls-1" d="M26.36,45.5c3.34-.89,6.42-1.78,9.54-2.5,1-.22,1.32-.57,1.39-1.53a69.42,69.42,0,0,1,.77-7.63c.7-3.75,3.15-5.73,6.94-6.27,1.61-.23,2.41.9,3.43,1.64,2.07,1.5,2,1.53,4-.05,1.14-.9,2.15-2,3.89-1.52,2.12.54,4.24,1.22,5.23,3.28a22.37,22.37,0,0,1,1.6,5.53,30.34,30.34,0,0,1,.37,5c0,1,.3,1.44,1.38,1.68,3,.67,5.93,1.55,9.1,2.4l-1.36,3.29c-3.13-.79-6.12-1.66-9.16-2.27a4,4,0,0,1-2.92-2,12,12,0,0,0-20.66.43c-.26.46-.66,1-1.09,1.15-3.62.91-7.26,1.73-11,2.61Z" transform="translate(-0.22 -11.91)"/><path class="cls-1" d="M59.69,50.9a9.28,9.28,0,1,1-9.31-9.29A9.29,9.29,0,0,1,59.69,50.9Z" transform="translate(-0.22 -11.91)"/><path class="cls-1" d="M89.81,27.78a7.83,7.83,0,1,1-7.76-7.91A7.78,7.78,0,0,1,89.81,27.78Z" transform="translate(-0.22 -11.91)"/><path class="cls-1" d="M10.62,27.73a7.84,7.84,0,0,1,15.67-.16,7.84,7.84,0,1,1-15.67.16Z" transform="translate(-0.22 -11.91)"/><path class="cls-1" d="M50.36,25.57a6.83,6.83,0,0,1,.07-13.66,6.83,6.83,0,1,1-.07,13.66Z" transform="translate(-0.22 -11.91)"/><path class="cls-1" d="M16,54.22c2.2,8.38,8.43,12,16.24,13.89a31.09,31.09,0,0,1-1.43,2.79,1.17,1.17,0,0,1-1,.27C25.49,69.84,21.46,68.1,18.18,65c-2.7-2.55-4.25-5.56-3.18-9.41a10.06,10.06,0,0,1,.46-1.14Z" transform="translate(-0.22 -11.91)"/><path class="cls-1" d="M84.74,54.33A6.73,6.73,0,0,1,85,61.26,19.71,19.71,0,0,1,81,66a26.84,26.84,0,0,1-10.83,5.22L68.54,68C76.33,66.21,82.23,62.29,84.74,54.33Z" transform="translate(-0.22 -11.91)"/></svg>