<svg xmlns="http://www.w3.org/2000/svg" viewBox="0 0 2058.61 700.95">
  <title>logo-environment-action</title>
  <path d="M-9.26,351.86C-9.65,162,143.8,2,340.83,2.2,538.2,2.36,693.1,163,690.64,356.73c-2.41,189.41-155.4,345.4-349.91,345.42C143,702.17-10,541.53-9.26,351.86Zm197.52-69.31,1.43-1.09a23.51,23.51,0,0,1,2.42,3.07c2.34,4.2,4.32,8.62,6.88,12.69q9,14.38,18.49,28.49c5.28,7.84,9.28,16,10.41,25.6a12.27,12.27,0,0,0,5.19,7.82c11.86,7.4,23.92,14.5,36.24,21.09,3.16,1.69,8.24,2.64,11.21,1.27,6.8-3.13,11.63-1.88,16.5,3.2,6.44,6.72,14.14,10.75,23.81,11,6.91.18,12.4,3.71,15.93,9.74a41.91,41.91,0,0,0,16.12,15.28c3.91,2.21,8,4.06,12,6.19,6.35,3.42,10,3.52,13.6-3.16,2.09-3.94,5.25-4,8-.54,6.46,8,10.59,25.74-1.5,35.81-6,5-9.31,11.76-11.69,18.84-1,2.84-.45,6.66.64,9.57,1.26,3.37,1.23,5.84-.84,8.77-5,7.16-4.72,10.82,1.27,17.16,2.86,3,6.22,5.6,8.87,8.78,2.29,2.75,4.68,5.84,5.65,9.18,4.49,15.43,14.34,25.54,29.15,31.23,8.43,3.24,9.13,4.71,7.4,13.46a150.91,150.91,0,0,1-33.23,69.5c-2.14,2.52-5.11,5.16-5.61,8.11-1.47,8.53-7.46,13.89-12.3,20.12a48.2,48.2,0,0,0-4.11,5.66c-1.61,2.85-1,5.54,1.64,7.5,4.11,3,11.67.78,13.87-3.76a12.64,12.64,0,0,1,3.82-4.33c4.38-3.27,9.17-6,13.39-9.49,11.22-9.2,22.47-18.29,35.64-24.68,10-4.86,19.49-10.4,27.86-18,8.15-7.44,18-13,26.11-20.51a182.86,182.86,0,0,0,23.83-26A78.44,78.44,0,0,1,532.85,563c4.67-3.48,9.7-6.63,13.78-10.71a50,50,0,0,0,9.28-12.79c6.31-12.65,11.88-25.66,18-38.4,6.59-13.68,12.64-27.55,15.32-42.59.41-2.29-.53-6.42-2.08-7.18-5.28-2.59-11-5.06-16.77-5.7-8-.9-16.26-.14-24.41,0-6.92.09-8.85-1.68-9.77-8.43a21.25,21.25,0,0,0-2.32-7.53,88.25,88.25,0,0,0-8.81-13.25c-1.58-1.88-5-3.78-7.13-3.34-10,2.11-18.21-1.21-26.36-6.43-12.77-8.17-26.68-11.57-41.94-9.31-7.09,1.05-14.5,1.36-20.9-2.68-4.41-2.79-7.88-1.84-11.21,1.26-5.85,5.44-11.68,10.92-17.26,16.62-3,3.11-6.31,4.42-10.28,2.61-5.09-2.32-9.78-1.86-14.88.33-9.36,4-17.56-1.28-18.31-11.56-.41-5.64-.4-11.31-.65-17-.2-4.57-2.7-7.05-7.23-7.3-3.82-.21-7.66-.22-11.49-.24-12.76,0-14.49-2.51-10.13-14.59,2.19-6,4.45-12.07,6.68-18.1-11-3.88-14.88-2.56-20.49,6.6-.87,1.42-1.63,2.91-2.54,4.3-5.87,8.94-22.42,9.45-29.16,1.22-10.34-12.63-14.39-26.1-6.85-41.59a23.52,23.52,0,0,0,1-2.83c4-12,13.23-17.36,25.53-15.07,5.31,1,10.65,1.78,16,2.67,1.07-7.9,1.63-8.43,8.92-8.19,3.49.11,7,.55,10.46.7,7.5.32,11.88,4.43,15.38,10.87,2.81,5.17,7.07,9.59,10.9,14.17,1.94,2.32,3.6,1.36,4.11-1.27.4-2.09.84-4.4.35-6.38a140.78,140.78,0,0,0-5.16-17.17c-3.59-9.19-2.95-12.76,4.15-19.5,4.09-3.89,8.38-7.73,11.67-12.25,2-2.71,3.67-7,2.93-10-1.22-4.91-1.22-8.78,2.1-12.65.82-1,.81-2.58,1.55-3.64,3-4.43,6.32-8.7,9.33-13.15,1.3-1.92,3.2-4.23,3-6.2-.5-5.57,1.64-9.39,6.06-12.21s8.09-.35,11.55,2.7l10.77-13c-7.8-.15-12-3.67-15-9.66-3.87-7.88-6.29-8.27-13.33-3.13-.94.69-2.48.56-3.75.81.29-1.33.14-3.34,1-3.88a80.26,80.26,0,0,1,12.31-7.1c3.14-1.36,6.89-1.24,10.16-2.38a11.49,11.49,0,0,0,8.14-10.89c.28-5.11-3-7.61-7-9.92-10.51-6.07-20.87-12.38-31.26-18.65-2.24-1.35-4.34-2.91-6.64-4.47-.68.84-1.14,1.3-1.48,1.83-4.93,7.71-6.42,7.86-12.59.74-5.63-6.5-13.17-7.42-20.94-7-4.41.21-6.9,3.68-5.65,7.69a44.81,44.81,0,0,0,6.86,13.43c3.11,4.11,4.75,7.14.71,11.69-1.5,1.69-1.29,5.15-1.3,7.81,0,1.55,1.66,3.13,1.57,4.64-.12,2.08-.69,5.33-2,5.84-1.74.7-4.75-.13-6.42-1.38s-2.37-3.62-2.85-5.66c-1.7-7.15-6.35-10.29-13.34-11.53A149.78,149.78,0,0,1,302,148.28c-8.22-2.72-12.7-11.32-8.6-17.75,5.68-8.92,11.76-17.89,21.4-23.29,7.53-4.21,7.91-9.31.89-14.32-2.3-1.64-5.7-2.78-6.69-5-3.29-7.34-9.6-8.42-16.28-9.6-9.06-1.59-12.33,1.24-10.91,10.26.28,1.78,1.72,3.43,2.82,5s2.35,2.84,3.54,4.25l-.64,1.79L275,98.9c-3.92-.23-8.6-1.94-11.6-.4-7.41,3.81-12.89.8-18.12-3.35-9.93-7.89-20.58-12.86-33.61-10.48-3.72.68-6.2-.94-8.64-3.66A137.09,137.09,0,0,0,191,69.1c-5.32-4.62-19.33-4.77-22.73.31-4.3,6.41-8.92,9.77-16.61,5.77a28.16,28.16,0,0,0-1.32,3.89c-1.17,7.12-1.19,7-8.44,7.42-2.34.15-5.2,1-6.79,2.51a52.34,52.34,0,0,0-8.53,10.83c-1.34,2.29-1.14,5.48-1.82,9.29l-21.36,5.83-.29,1.47c1.9.53,3.91,1.73,5.69,1.46,7.56-1.14,15.07-2.64,22.56-4.18a11.38,11.38,0,0,0,5-2.18c4.2-3.57,8.24-6.52,13.48-1.72.48.44,1.61.16,2.44.21,4.67.24,8.58,2.28,10.76,6.29,7.22,13.27,12.9,26.94,11.15,42.69-.45,4.07,1.15,8.33,1.39,12.53s1.06,9.11-.31,13c-3.3,9.38-7.67,18.4-11.72,27.51-7.69,17.26-5.39,33.42,5.34,48.61a86.63,86.63,0,0,1,14.54,33.15c2.24,11.26,7,21.13,13.33,30.38,2.21,3.24,5.49,5.75,8.29,8.6l1.8-1.19ZM443.38,76.46c3.94-7.8,2.7-11-5.3-14.32-4.91-2-10.41-3.16-14.65-6.12-16.84-11.78-36.13-15.6-55.83-18.27-2.72-.37-5.62.53-8.66.86l2.19,6.33-7.41,2.13a83,83,0,0,1,2.05,8.19C357,64,359.6,66.11,368.24,66.86c19.6,1.7,36.73,8.58,49.06,24.8,7.2,9.47,17.12,15.08,27.82,19.57,3.7,1.55,7.27,1.65,9.8-2s1.3-6.87-1.69-9.74c-3.48-3.35-5.44-7.63-3.94-12.19,1.34-4.09-.21-6.16-3.08-8.24A35.22,35.22,0,0,1,443.38,76.46Zm-63,22.91c-1.11,1.57-1.8,2.63-2.57,3.63-4.07,5.26-2.64,9.73,3.83,11.69,2.86.87,5.75,1.64,8.64,2.4,2.41.63,5.05,2.09,7.19,1.56a14.65,14.65,0,0,0,7.21-4.83c.49-.6-2.12-4-3.65-5.9-.91-1.11-2.49-1.69-4.42-2.92l8.26-.49c-1.34-5.88-4.46-9.39-9.89-11.23-13.68-4.63-27.16-9.88-40.95-14.16-4.37-1.36-9.52-1-14.16-.38-2.12.3-5,3.07-5.42,5.16-.34,1.61,2.22,5.22,4.05,5.66,5,1.23,10.41,1,15.59,1.85,3.79.59,8.62.74,10.91,3.1,3.07,3.18,6.07,4.09,10,4.24C376.57,98.81,378.16,99.11,380.4,99.37Zm15.19,253.5c2-1.4,5.17-2.44,6-4.43,1.29-3.3-2.12-4.1-4.63-5.08a31.43,31.43,0,0,1-4.26-2.54c-10.06-6-21.19-7.39-32.56-7.28-2.86,0-7.28.07-7.1,4.4.2,4.52,4.46,2.87,7.15,3,10.07.47,19.87,1.33,27.72,8.94C389.45,351.43,392.32,351.67,395.58,352.87ZM336.65,55.23l-2.23,11.62c5.38.86,10.34,1.36,13.93-2.71,4-4.52,4.52-10.32,3.36-16-.28-1.39-3-3.51-4.23-3.28-6.15,1.18-12.17,3-18.24,4.64l.15,1.69Z" transform="translate(122.03 -1.7)" fill="#b9b9b9" stroke="#ec5242" stroke-miterlimit="10"/>
  <g>
    <path d="M188.26,282.55l18.56,49-1.8,1.19c-2.79-2.84-6.08-5.35-8.29-8.6-6.3-9.26-11.09-19.12-13.33-30.38a86.63,86.63,0,0,0-14.54-33.15c-10.73-15.19-13-31.34-5.34-48.61,4.06-9.11,8.42-18.13,11.72-27.51,1.37-3.9.55-8.66.31-13S173.72,163,174.17,159c1.75-15.75-3.94-29.42-11.15-42.69-2.18-4-6.09-6-10.76-6.29-.83,0-2,.23-2.44-.21-5.24-4.8-9.29-1.86-13.48,1.72a11.38,11.38,0,0,1-5,2.18c-7.49,1.54-15,3-22.56,4.18-1.78.27-3.79-.94-5.69-1.46l.29-1.47,21.36-5.83c.68-3.81.48-7,1.82-9.29A52.34,52.34,0,0,1,135.12,89c1.59-1.56,4.44-2.37,6.79-2.51,7.25-.45,7.27-.3,8.44-7.42a28.16,28.16,0,0,1,1.32-3.89c7.69,4,12.31.64,16.61-5.77,3.4-5.07,17.41-4.93,22.73-.31A137.09,137.09,0,0,1,203.06,81c2.44,2.72,4.91,4.34,8.64,3.66,13-2.39,23.68,2.58,33.61,10.48,5.22,4.15,10.71,7.16,18.12,3.35,3-1.54,7.69.16,11.6.4l12.49.75.64-1.79c-1.19-1.41-2.49-2.74-3.54-4.25s-2.54-3.23-2.82-5c-1.41-9,1.85-11.85,10.91-10.26,6.69,1.17,13,2.26,16.28,9.6,1,2.22,4.4,3.36,6.69,5,7,5,6.64,10.1-.89,14.32-9.65,5.4-15.72,14.37-21.4,23.29-4.1,6.43.38,15,8.6,17.75a149.78,149.78,0,0,0,20.78,5.24c7,1.24,11.64,4.38,13.34,11.53.48,2,1.33,4.52,2.85,5.66s4.68,2.08,6.42,1.38c1.28-.51,1.84-3.77,2-5.84.09-1.51-1.58-3.09-1.57-4.64,0-2.66-.2-6.12,1.3-7.81,4-4.55,2.4-7.58-.71-11.69a44.81,44.81,0,0,1-6.86-13.43c-1.26-4,1.24-7.48,5.65-7.69,7.77-.37,15.31.55,20.94,7,6.17,7.12,7.66,7,12.59-.74.34-.53.8-1,1.48-1.83,2.3,1.55,4.4,3.12,6.64,4.47,10.39,6.27,20.76,12.58,31.26,18.65,4,2.31,7.27,4.81,7,9.92a11.49,11.49,0,0,1-8.14,10.89c-3.27,1.14-7,1-10.16,2.38a80.26,80.26,0,0,0-12.31,7.1c-.82.55-.67,2.55-1,3.88,1.26-.25,2.8-.12,3.75-.81,7-5.15,9.46-4.75,13.33,3.13,2.94,6,7.16,9.51,15,9.66l-10.77,13c-3.46-3-7.06-5.57-11.55-2.7s-6.56,6.64-6.06,12.21c.18,2-1.72,4.28-3,6.2-3,4.45-6.28,8.73-9.33,13.15-.73,1.07-.73,2.69-1.55,3.64-3.32,3.86-3.32,7.74-2.1,12.65.74,3-1,7.31-2.93,10-3.3,4.52-7.58,8.36-11.67,12.25-7.1,6.74-7.74,10.32-4.15,19.5a140.78,140.78,0,0,1,5.16,17.17c.49,2,.06,4.3-.35,6.38-.51,2.63-2.17,3.59-4.11,1.27-3.83-4.58-8.09-9-10.9-14.17-3.5-6.44-7.88-10.55-15.38-10.87-3.49-.15-7-.58-10.46-.7-7.29-.24-7.85.28-8.92,8.19-5.33-.88-10.67-1.68-16-2.67-12.3-2.3-21.5,3.1-25.53,15.07a23.52,23.52,0,0,1-1,2.83c-7.54,15.49-3.49,29,6.85,41.59,6.74,8.23,23.29,7.72,29.16-1.22.91-1.39,1.67-2.88,2.54-4.3,5.61-9.16,9.49-10.48,20.49-6.6-2.23,6-4.49,12.05-6.68,18.1-4.37,12.08-2.63,14.55,10.13,14.59,3.83,0,7.67,0,11.49.24,4.52.25,7,2.73,7.23,7.3.25,5.65.24,11.32.65,17,.75,10.28,9,15.57,18.31,11.56,5.09-2.18,9.79-2.64,14.88-.33,4,1.81,7.24.5,10.28-2.61,5.59-5.71,11.42-11.18,17.26-16.62,3.33-3.1,6.8-4,11.21-1.26,6.4,4,13.81,3.74,20.9,2.68,15.25-2.26,29.17,1.13,41.94,9.31C499.75,411.8,508,415.12,518,413c2.11-.44,5.55,1.46,7.13,3.34a88.25,88.25,0,0,1,8.81,13.25,21.25,21.25,0,0,1,2.32,7.53c.92,6.74,2.85,8.51,9.77,8.43,8.14-.1,16.37-.86,24.41,0,5.76.64,11.49,3.11,16.77,5.7,1.55.76,2.49,4.89,2.08,7.18-2.69,15-8.73,28.9-15.32,42.59-6.13,12.74-11.7,25.75-18,38.4a50,50,0,0,1-9.28,12.79c-4.08,4.08-9.11,7.23-13.78,10.71A78.44,78.44,0,0,0,516.37,580a182.86,182.86,0,0,1-23.83,26c-8.12,7.48-18,13.07-26.11,20.51-8.38,7.65-17.85,13.19-27.86,18-13.18,6.39-24.42,15.48-35.64,24.68-4.22,3.46-9,6.22-13.39,9.49a12.64,12.64,0,0,0-3.82,4.33c-2.2,4.54-9.76,6.78-13.87,3.76-2.66-2-3.25-4.65-1.64-7.5a48.2,48.2,0,0,1,4.11-5.66c4.84-6.23,10.84-11.59,12.3-20.12.51-2.94,3.47-5.58,5.61-8.11A150.91,150.91,0,0,0,425.44,576c1.73-8.75,1-10.22-7.4-13.46-14.81-5.69-24.66-15.8-29.15-31.23-1-3.34-3.36-6.43-5.65-9.18-2.65-3.18-6-5.76-8.87-8.78-6-6.34-6.32-10-1.27-17.16,2.07-2.93,2.1-5.4.84-8.77-1.09-2.91-1.6-6.73-.64-9.57C375.7,470.78,379,464,385,459c12.09-10.07,8-27.85,1.5-35.81-2.78-3.42-5.94-3.4-8,.54-3.55,6.68-7.24,6.58-13.6,3.16-4-2.13-8.06-4-12-6.19a41.91,41.91,0,0,1-16.12-15.28c-3.54-6-9-9.57-15.93-9.74-9.66-.24-17.36-4.28-23.81-11-4.87-5.08-9.7-6.33-16.5-3.2-3,1.37-8.05.42-11.21-1.27-12.32-6.59-24.38-13.69-36.24-21.09a12.27,12.27,0,0,1-5.19-7.82c-1.13-9.61-5.12-17.77-10.41-25.6Q208,311.63,199,297.22c-2.55-4.07-4.54-8.48-6.88-12.69a23.51,23.51,0,0,0-2.42-3.07Z" transform="translate(122.03 -1.7)" fill="#ec5242" stroke="#b9b9b9" stroke-miterlimit="10"/>
    <path d="M443.38,76.46a35.22,35.22,0,0,0,2.84,2.6c2.87,2.08,4.42,4.14,3.08,8.24-1.49,4.56.46,8.85,3.94,12.19,3,2.87,4.24,6.08,1.69,9.74s-6.1,3.55-9.8,2c-10.7-4.48-20.62-10.09-27.82-19.57-12.33-16.22-29.46-23.1-49.06-24.8C359.6,66.11,357,64,355.77,55.25a83,83,0,0,0-2.05-8.19l7.41-2.13-2.19-6.33c3-.34,5.94-1.23,8.66-.86,19.7,2.68,39,6.49,55.83,18.27,4.24,3,9.74,4.11,14.65,6.12C446.08,65.42,447.32,68.66,443.38,76.46Z" transform="translate(122.03 -1.7)" fill="#ec5242" stroke="#b9b9b9" stroke-miterlimit="10"/>
    <path d="M380.4,99.37c-2.24-.27-3.82-.57-5.41-.63-3.88-.15-6.88-1.07-10-4.24-2.29-2.36-7.12-2.51-10.91-3.1-5.17-.8-10.54-.62-15.59-1.85-1.83-.45-4.4-4.05-4.05-5.66.45-2.09,3.29-4.85,5.42-5.16,4.63-.66,9.78-1,14.16.38,13.78,4.29,27.27,9.53,40.95,14.16,5.43,1.84,8.55,5.34,9.89,11.23l-8.26.49c1.93,1.24,3.51,1.81,4.42,2.92,1.53,1.86,4.14,5.3,3.65,5.9a14.65,14.65,0,0,1-7.21,4.83c-2.14.53-4.78-.93-7.19-1.56-2.89-.76-5.78-1.53-8.64-2.4-6.47-2-7.9-6.43-3.83-11.69C378.6,102,379.29,100.95,380.4,99.37Z" transform="translate(122.03 -1.7)" fill="#ec5242" stroke="#b9b9b9" stroke-miterlimit="10"/>
    <path d="M395.58,352.87c-3.26-1.2-6.13-1.44-7.73-3-7.85-7.61-17.66-8.47-27.72-8.94-2.68-.13-7,1.53-7.15-3-.19-4.33,4.23-4.37,7.1-4.4,11.37-.12,22.5,1.31,32.56,7.28a31.43,31.43,0,0,0,4.26,2.54c2.51,1,5.92,1.78,4.63,5.08C400.75,350.43,397.58,351.48,395.58,352.87Z" transform="translate(122.03 -1.7)" fill="#ec5242" stroke="#b9b9b9" stroke-miterlimit="10"/>
    <path d="M336.65,55.23l-7.27-4-.15-1.69c6.07-1.61,12.09-3.46,18.24-4.64,1.22-.23,4,1.89,4.23,3.28,1.16,5.69.63,11.48-3.36,16-3.59,4.06-8.55,3.57-13.93,2.71Z" transform="translate(122.03 -1.7)" fill="#ec5242" stroke="#b9b9b9" stroke-miterlimit="10"/>
  </g>
  <g>
    <text transform="translate(845.03 422.24)" font-size="200" fill="#272a31" font-family="PoplarStd, Poplar Std">Environment <tspan x="804.98" y="0" letter-spacing="-0.01em">A</tspan><tspan x="900.98" y="0">ction</tspan></text>
    <text transform="translate(845.03 557)" font-size="156" fill="#272a31" font-family="PoplarStd, Poplar Std"><tspan xml:space="preserve">Conference  &amp; Expo 2022</tspan></text>
  </g>
  <g>
    <path d="M704.2,214.07c-.31,3.5-.31,6.47-.87,9.34-2.93,15.09-13,24.32-28.26,26.1-3.59.42-7.21.49-10.82.77-2.12.16-3.17-.7-2.66-2.83,2.66-11.12,6-22,13.94-30.65,6-6.56,13.4-9.82,22.49-8.11a33.07,33.07,0,0,0,3.48.2c-1.11-1.69-1.8-2.9-2.64-4-12.41-16.31-28.42-26.61-48.54-31.53-10.35-2.53-19.63-.38-29,2.2-9.6,2.64-17.3,8.75-23.74,16.35s-10.84,16.28-11.93,26.18c-.55,5,.43,10.15.7,15.24a4.26,4.26,0,0,1-.74,3c-5.19-12-4.32-23.84,1.25-36.27-9.65,2.41-18.47,3.19-26.3-3-6.2-4.9-9.8-11.47-12.39-19.27A26.71,26.71,0,0,1,553,177c7.21.07,14.52-.42,21.59.65,7.95,1.2,13.83,6,16.59,14.68,1.19-1.37,2-2.26,2.75-3.18,5-6.08,10.84-11.13,18.06-14.3,17.45-7.66,35.27-8.21,52.87-1,9.41,3.85,18.32,8.9,25.75,16.22s14.52,15.35,19,24.88c4.42,9.3,7.87,19.07,11.36,28.78,1.41,3.91,1.79,8.19,2.87,13.42,6.53-12.37,14.77-21.55,28.88-21.84,10.16-.21,19.19,3.79,27.92,10-1.76,2.13-3.34,4.14-5,6-6.09,6.86-12.71,13.12-21.1,17.13-10.6,5.07-20.55,4.32-30.62-4.82,2,24.34-7.33,44.38-18.38,64.12,13.48-6.93,27-10.9,41.22-3.45,11,5.76,17.83,15.33,23.41,27.06-5.2,1.24-10,2.57-15,3.53-9.48,1.86-19,2.78-28.57.44-11.47-2.8-19.38-9.36-22.44-21.11a21.42,21.42,0,0,0-1.3-2.85A275.89,275.89,0,0,1,661,383.12c-15.83,15.43-33.26,28.91-51.21,42.05,10.06-2.32,19.49-1.93,28,4.25,7,5.11,12,11.86,15.92,20.48-5.24,1.22-10.09,2.63-15,3.42-7.28,1.16-14.6,1.64-21.91-.28-9.49-2.49-15.89-8-18.34-17.73a21.26,21.26,0,0,0-1.09-2.57c-33.7,21.4-68.71,39.71-106,53.7,9.13,1,17.64,3,24.08,9.95,5.48,5.88,7.94,13.08,9,21.31a61.72,61.72,0,0,1-26.49-6C486.75,506.24,483,500,482.56,497.48a24.19,24.19,0,0,1-.35-4c.23-1.19.27-2.43.46-4.24-2.43.7-4.52,1.29-6.6,1.9-5.14,1.51-10.27,3.07-15.42,4.53-1.53.43-3.5,1.86-4.22-1s2-2.45,3.33-2.9c12.05-4,24.15-7.91,36.23-11.87a28.46,28.46,0,0,0,3.12-1.38c-3-3-12-12.69-13.16-27.47a41.38,41.38,0,0,1,2.41-17.18c4.45-12.23,14.48-21,26.59-28.65,4.09,8.6,7.28,17.1,8.75,26.06a89.29,89.29,0,0,1,1.16,18.56c-.41,8.65-4.16,16.07-10.71,22.14,18-7,35-15.87,52.25-25.62-10.61-10.15-17.91-21.21-14.22-36.12,2.68-10.83,9.48-19,18.47-26.44,9.62,16.84,19.78,32.89,11,53.13,16.72-5,81.6-56,90.12-71-14-2.47-27.08-6.47-32.69-21.38-3.87-10.27-2.55-20.53.6-31a15.3,15.3,0,0,1,3,.89c7.61,4.23,15.64,7.9,22.68,12.95,10.65,7.62,16.09,18,11.93,32.17a9.1,9.1,0,0,0,1.59-1.08c13.64-17.14,26.41-34.83,34.86-55.25,1.71-4.12,4-8.12,4.89-12.42A108.19,108.19,0,0,0,720.1,273c.55-19.63-4.12-38.07-13.21-55.42-.41-.77-.82-1.55-1.29-2.28A9.76,9.76,0,0,0,704.2,214.07Z" transform="translate(122.03 -1.7)" fill="#146b71" stroke="#197d7f" stroke-miterlimit="10"/>
    <path d="M-44.61,314.21c32,50.86,84,84.77,144.46,113.73-3.66.22-5.69.58-7.72.41-12.1-1-21,3.11-28.2,9.57-13.1,11.71-17.76,26.82-22.34,41.88-.32,1.06,2.64,4.15,4.2,4.32,12.5,1.39,25.35,3.76,37.46,3,16.8-1.06,27-9.85,30.66-22.57,2.58-9,3.68-18.3,5.57-28.13C232.74,483,352.62,493.26,473.55,496.51L475,493c-1.33,0-14.3-.12-23-.75-5.69-.41-4.73-.69-7.31-.67s-4.67.34-6.66-.91a8.37,8.37,0,0,1-2.12-2.15c-2.89-4.3-.05-10.54.78-14.52,3-14.33-13.33-30.82-24.82-42.2-2.35-2.33-4.34-4.13-5.55-5.2-1.16,1.67-2.93,3.2-3.36,5-1.43,6.06-3.21,12.15-3.36,18.36a31.72,31.72,0,0,0,2,12.08c4.95,13.13,17.77,19.29,23.74,22.13a58.94,58.94,0,0,0,7.67,3l-.42,2.67L300.24,479.19l-.83-2.68c1.83-1.13,3.63-2.3,5.51-3.4,16-9.35,21.32-22.35,16.53-38.49-4.84-16.31-28.55-43.36-47.45-54.27-16,13.95-27.79,29.58-24.08,50.36,3.79,21.25,24.23,33.52,45.2,45.58-46.56-5.74-91.61-16.11-135.66-32.33,13.5-2.84,22.26-9.14,27.37-18.92,6.27-12,6.78-25,6.41-38.09,0-1.06-2.37-3.05-3.81-3.28-19.13-3-46.62,8.53-51,22.93-2.4,7.95-.42,17-.36,25.59a37.79,37.79,0,0,0,.79,4.58A491.31,491.31,0,0,1,69.4,405.7c1.46-.81,2-1.46,2.66-1.43,18,.91,27.07-7.21,31.59-19.11,3.79-10,5.42-20.46,3.23-31.35-37.4-1.62-50.58,11.61-46,47.2-28.62-15.93-52.54-33.87-71.5-56.32,1.55.48,3.12.94,4.66,1.45,13.52,4.51,26.35,4.7,38.73-.28,14.77-5.93,35.53-23,43-36.37-18.55-9.84-38-16.56-59.44-12.77-22.39,4-30.88,18.73-38.28,34-27.65-18.78-37-86.57-14.24-110.15-2.55,10.69-.8,20.16,8.79,27.09A166,166,0,0,0,2.63,264.24c8.1,3.58,17.42,5.2,27.27,8,2.83-15.27,2.83-29.54-9.8-42.8-13.16-13.82-32.3-14.91-53.9-17,6.5-5.91,11.12-11.08,16.95-15.21,17.65-12.52,44-13.08,65.36-1.59a9.87,9.87,0,0,1,4.6,6.12C56.23,220.49,66.21,230,90,233.87c14.71,2.37,29.72,2.65,44.8,3.88-2.75-28-26.64-49.27-57.7-45.16-13.58,1.8-24.82,1.44-36.21-6.21C37.58,184.18,33,183.2,30,182c5.59-6.68,12.71-12.71,16.23-20,4.44-9.25,6.18-19.52,8.43-29.49.31-1.36-3.22-5-4.94-5.11-18.59-1.28-36.28.35-47.9,12.1-11.43,11.56-10.76,25.62-5.72,40.12.19.54,1.1,1,2.37,2.05-19.21,6.14-31.1,17.77-41.82,32.81C-44.95,191.94-64,184-84.43,177c-4.32-1.47-8.81-2.53-13.21-3.82-4.75-1.39-6.62-.17-7.39,3.64-5.21,25.87,13.76,44.06,49.13,46.84,1.82.14,3.65.24,7.06.47-10.26,23.93-13,48.26-2.46,75.39-23.69-16-46.82-13.28-70.14-10.74,3.06,16.37,19.69,32.27,36.45,35.47C-70.35,327.09-49.35,322.35-44.61,314.21Z" transform="translate(122.03 -1.7)" fill="#146b71" stroke="#197d7f" stroke-miterlimit="10"/>
  </g>
</svg>
