<svg xmlns="http://www.w3.org/2000/svg" viewBox="0 0 408.64 502.15">
  <g>
    <path d="M276.64,87c23,0,45.62-.29,67.82-.86-2.45-.84-4.92-1.62-7.42-2.3-5.83-1.6-11.63-3.33-17.5-4.72-4-1-8.19-1.48-12.31-2.12-1.33-.21-2.7-.09-4-.27-3-.4-6-1-9-1.32a51,51,0,0,0-6.85-.49c-9.44.13-18.9,0-28.31.66a143,143,0,0,0-28.21,4.65c-6.13,1.68-12.33,3.19-18.36,5.19l-2.25.77C232,86.72,254.19,87,276.64,87Z" transform="translate(-76.84 -74.91)" fill="#ec5242"/>
    <path d="M361.86,93.27q-2.55-1.18-5.12-2.3c-26.11.79-52.9,1.2-80.1,1.2-26.72,0-53.06-.39-78.73-1.16q-8,3.46-15.7,7.62-8.58,4.61-16.62,10C201.46,110.2,239,111,277.28,111s75.85-.81,111.73-2.37q-1.51-1-3-2A194.29,194.29,0,0,0,361.86,93.27Z" transform="translate(-76.84 -74.91)" fill="#ec5242"/>
    <path d="M430.9,146.23c-5.86-6.74-12.17-13.12-18.63-19.3-.85-.81-1.71-1.6-2.57-2.38h-3.16l-11.32,14.73-16,1.73V129.88L385.7,128l2.6,1.84v6.6L385.91,135l-1.3-5.08-3.4,1.84,1.67,6.92,9.3-1.51-.65-12.33-1.18-.24H379.08l-4.47.17-11.19,14.56-16,1.73V129.88l6.49-1.84,2.6,1.84v6.6L354.12,135l-1.3-5.08-3.4,1.84,1.67,6.92,9.3-1.51-.63-11.89q-11,.34-22.2.6l-10.34,13.46-16,1.73V129.88l6.49-1.84,2.6,1.84v6.6L317.93,135l-1.3-5.08-3.4,1.84,1.67,6.92,9.3-1.51-.58-11q-9.08.16-18.25.25l-9.94,12.93-16,1.73V129.88l6.49-1.84,2.6,1.84v6.6L286.14,135l-1.3-5.08-3.4,1.84,1.67,6.92,9.3-1.51-.56-10.66q-7.26,0-14.57,0l-9.44,0L258,139.28,242,141V129.88l6.49-1.84,2.6,1.84v6.6L248.7,135l-1.3-5.08-3.4,1.84,1.67,6.92,9.3-1.51-.56-10.72q-9.11-.08-18.14-.21l-10.06,13.09-16,1.73V129.88l6.49-1.84,2.6,1.84v6.6L216.91,135l-1.3-5.08-3.4,1.84,1.67,6.92,9.3-1.51-.59-11.17q-11-.22-21.92-.54L190,139.28,174,141V129.88L180.5,128l2.6,1.84v6.6L180.71,135l-1.3-5.08-3.4,1.84,1.67,6.92,9.3-1.51L186.35,125l-10.87-.4h-5.93l-11.32,14.73-16,1.73V129.88l6.49-1.84,2.6,1.84v6.6L148.92,135l-1.3-5.08-3.4,1.84,1.67,6.92,9.3-1.51-.65-12.33-1.18-.24h-8.46a197.88,197.88,0,0,0-25.56,27.1c-4,5.1-7.74,10.34-11.21,15.76l2.45,2.84L133.29,144,156,170.24,178.7,144l22.71,26.26L224.11,144l22.71,26.26L269.53,144l22.71,26.26L314.94,144l22.71,26.26L360.35,144l22.71,26.26L405.76,144l22.71,26.26,11.19-12.95Q435.52,151.58,430.9,146.23Z" transform="translate(-76.84 -74.91)" fill="#ec5242"/>
    <path d="M477.37,260.35c-.49-6.93-1.65-13.83-2.66-20.71a107.22,107.22,0,0,0-2.11-10.78c-1.21-4.75-2.56-9.47-4.09-14.13s-3.13-9.34-4.91-13.93h-3l-15.74,20.48-22.25,2.41V208.2l9-2.56,3.61,2.56v9.17l-3.31-2.1-1.8-7.07-4.73,2.56,2.32,9.62,12.93-2.1-.9-17.14-1.64-.34h-21.7l-15.74,20.48-22.25,2.41V208.2l9-2.56L391,208.2v9.17l-3.31-2.1-1.8-7.07-4.73,2.56,2.32,9.62,12.93-2.1-.9-17.14-1.64-.34H366.05l-15.74,20.48-22.25,2.41V208.2l9-2.56,3.61,2.56v9.17l-3.31-2.1-1.8-7.07-4.73,2.56,2.32,9.62,12.93-2.1-.9-17.14-1.64-.34h-21.7l-15.74,20.48-22.25,2.41V208.2l9-2.56,3.61,2.56v9.17l-3.31-2.1-1.8-7.07-4.73,2.56,2.32,9.62,12.93-2.1-.9-17.14-1.64-.34H269.82l-15.74,20.48-22.25,2.41V208.2l9-2.56,3.61,2.56v9.17l-3.31-2.1-1.8-7.07-4.73,2.56,2.32,9.62,12.93-2.1-.9-17.14-1.64-.34h-21.7l-15.74,20.48-22.25,2.41V208.2l9-2.56,3.61,2.56v9.17l-3.31-2.1-1.8-7.07-4.73,2.56,2.32,9.62,12.93-2.1-.9-17.14-1.64-.34H175.31l-15.74,20.48-22.25,2.41V208.2l9-2.56,3.61,2.56v9.17l-3.31-2.1-1.8-7.07-4.73,2.56,2.32,9.62,12.93-2.1-.9-17.14-1.64-.34h-21.7l-15.74,20.48-22.25,2.41V208.2l9-2.56,3.61,2.56v9.17l-3.31-2.1-1.8-7.07-4.73,2.56,2.32,9.62,12.93-2.1-.9-17.14-1.64-.34H91.23q-1.07,2.62-2.09,5.25c-2.17,5.6-3.88,11.4-5.53,17.19-1.24,4.37-2.08,8.85-3,13.29-.66,3.06-1.34,6.13-1.76,9.23-.58,4.27-.94,8.57-1.35,12.85A193.73,193.73,0,0,0,77,282c16.32-3.58,38.52-8.51,57.26-12.9,15.89-6.07,30.91-13.51,43.13-22.6,48.47-36,74.42-9,124.79,14.74a111.9,111.9,0,0,0,23.17-12.8c35.41-26.33,52.66-1.82,93.51,14.53h-.22c8.59,3.78,32.35,14.14,44.06,18.24l15.06-.06C477.68,274.24,477.86,267.27,477.37,260.35Z" transform="translate(-76.84 -74.91)" fill="#ec5242"/>
    <g>
      <polygon points="58.48 102.24 58.41 103.43 59.04 104.02 59.85 103.2 59.92 101.98 59.16 102.84 58.48 102.24" fill="#ec5242"/>
      <polygon points="107.01 102.24 106.94 103.43 107.57 104.02 108.37 103.2 108.45 101.98 107.68 102.84 107.01 102.24" fill="#ec5242"/>
      <polygon points="150.15 100.97 150.07 102.16 150.71 102.75 151.51 101.93 151.59 100.71 150.82 101.57 150.15 100.97" fill="#ec5242"/>
      <polygon points="196.88 102.24 196.8 103.43 197.44 104.02 198.24 103.2 198.32 101.98 197.55 102.84 196.88 102.24" fill="#ec5242"/>
      <polygon points="244.65 102.24 244.57 103.43 245.21 104.02 246.01 103.2 246.09 101.98 245.32 102.84 244.65 102.24" fill="#ec5242"/>
      <polygon points="288.03 102.24 287.95 103.43 288.59 104.02 289.39 103.2 289.47 101.98 288.7 102.84 288.03 102.24" fill="#ec5242"/>
      <polygon points="333.23 102.24 333.15 103.43 333.79 104.02 334.59 103.2 334.67 101.98 333.9 102.84 333.23 102.24" fill="#ec5242"/>
      <path d="M448.9,171.31q-2.69-4.45-5.58-8.76l-14.86,17.19-22.71-26.26-22.71,26.26-22.71-26.26-22.71,26.26-22.71-26.26-22.71,26.26-22.71-26.26-22.71,26.26-22.71-26.26-22.71,26.26L178.7,153.47,156,179.74l-22.71-26.26-22.71,26.26-5.87-6.79c-2.29,3.86-4.43,7.82-6.4,11.88S94.5,193,92.74,197.17h369.4A193.9,193.9,0,0,0,448.9,171.31Zm-309.75,7.8-.63-.74h-.26s.08,1.5,0,3a27.47,27.47,0,0,1-.79,4.11l-.47,2.61-.4,3.75-.75,1.15-.71-.91-.67.36.12-1.34.79-1.23,0-1.07.12-1.07.32-1v-.83l-1,.51-.75-.51-.36,1.74v1.62l-.12.87.47.79v1.23l-.43-.2-1.3,1.07-.51-1.07v-1l.71-1.38v-3.79l-1,.91-.91-.83-.87.83-.91-.75-.95.43-.75-.87-1.15.87-.75-.87-.38,2.91-.47,1.11L125,192l-.71.5-.29-.34-1.34.69-.45-1,.13-1a1.22,1.22,0,0,0,.34-.74,1.16,1.16,0,0,1,.42-.74s-.05-.69-.05-1a.93.93,0,0,1,.29-.61l.16-2.27-.92,1-.95-1.26a12,12,0,0,0-.18,1.32v.79s-.05,1-.05,1.24a3.81,3.81,0,0,1-.34.92l.55,1.53-.16.95-.87-.45-1.13.47a12,12,0,0,1,.34-2.27,4.08,4.08,0,0,0,.18-1.53s.08-2.4,0-3a26.78,26.78,0,0,1,.16-2.79c0-.29.16-1.5.16-1.5l-1.16.84a3.78,3.78,0,0,1-.45-.55,7.37,7.37,0,0,1-.32-1.66,7.76,7.76,0,0,0,.61,1c.29.37.34-.08.76-.5s1.24.9,1.24.9l1.42-.61.4.47a4.84,4.84,0,0,1,.84-.08c.45,0,.66.55,1.32.5a1.76,1.76,0,0,0,.95-.4c.13,0,.4.53,1,.53a1.65,1.65,0,0,0,1.05-.53s.79.74,1.19.71.63-.5.63-.5l.47.18.84.13a1.24,1.24,0,0,0,1.77,0,3.11,3.11,0,0,0,.76-2.42,20.33,20.33,0,0,0,0-3.08,3.66,3.66,0,0,1,0-1.32l.53.55.87-.9s.18,1.29.18,1.42a5.29,5.29,0,0,0,.69.9,4.53,4.53,0,0,1,.74-.76c.26-.16.24-1.69.24-1.69l.58.74,1.29-.74-.34,2.42.74.92.87-.5s.29.21.24,1S139.15,179.11,139.15,179.11Zm48.53,0-.63-.74h-.26s.08,1.5,0,3a27.47,27.47,0,0,1-.79,4.11l-.47,2.61-.4,3.75-.75,1.15-.71-.91-.67.36.12-1.34.79-1.23,0-1.07.12-1.07.32-1v-.83l-1,.51-.75-.51-.36,1.74v1.62l-.12.87.47.79v1.23l-.43-.2-1.3,1.07-.51-1.07v-1l.71-1.38v-3.79l-1,.91-.91-.83-.87.83-.91-.75-.95.43-.75-.87-1.15.87-.75-.87-.38,2.91-.47,1.11.66,2.5-.71.5-.29-.34-1.34.69-.45-1,.13-1a1.22,1.22,0,0,0,.34-.74,1.16,1.16,0,0,1,.42-.74s-.05-.69-.05-1a.93.93,0,0,1,.29-.61l.16-2.27-.92,1-.95-1.26a12,12,0,0,0-.18,1.32v.79s-.05,1-.05,1.24a3.81,3.81,0,0,1-.34.92l.55,1.53-.16.95-.87-.45-1.13.47a12,12,0,0,1,.34-2.27,4.08,4.08,0,0,0,.18-1.53s.08-2.4,0-3a26.77,26.77,0,0,1,.16-2.79c0-.29.16-1.5.16-1.5l-1.16.84a3.79,3.79,0,0,1-.45-.55,7.37,7.37,0,0,1-.32-1.66,7.76,7.76,0,0,0,.61,1c.29.37.34-.08.76-.5s1.24.9,1.24.9l1.42-.61.4.47a4.84,4.84,0,0,1,.84-.08c.45,0,.66.55,1.32.5a1.76,1.76,0,0,0,.95-.4c.13,0,.4.53,1,.53a1.65,1.65,0,0,0,1.05-.53s.79.74,1.19.71.63-.5.63-.5l.47.18.84.13a1.24,1.24,0,0,0,1.77,0,3.11,3.11,0,0,0,.76-2.42,20.31,20.31,0,0,0,0-3.08,3.66,3.66,0,0,1,0-1.32l.53.55.87-.9s.18,1.29.18,1.42a5.29,5.29,0,0,0,.69.9,4.53,4.53,0,0,1,.74-.76c.26-.16.24-1.69.24-1.69l.58.74,1.29-.74-.34,2.42.74.92.87-.5s.29.21.24,1S187.67,179.11,187.67,179.11Zm43.14-1.27-.63-.74h-.26s.08,1.5,0,3a27.47,27.47,0,0,1-.79,4.11l-.47,2.61-.4,3.75-.75,1.15-.71-.91-.67.36.12-1.34.79-1.23,0-1.07.12-1.07.32-1v-.83l-1,.51-.75-.51-.36,1.74v1.62l-.12.87.47.79v1.23l-.43-.2-1.3,1.07-.51-1.07v-1l.71-1.38v-3.79l-1,.91-.91-.83-.87.83-.91-.75-.95.43-.75-.87-1.15.87-.75-.87-.38,2.91-.47,1.11.66,2.5-.71.5-.29-.34-1.34.69-.45-1,.13-1a1.22,1.22,0,0,0,.34-.74,1.16,1.16,0,0,1,.42-.74s-.05-.69-.05-1a.93.93,0,0,1,.29-.61l.16-2.27-.92,1-.95-1.26a12,12,0,0,0-.18,1.32V186s-.05,1-.05,1.24a3.81,3.81,0,0,1-.34.92l.55,1.53-.16.95-.87-.45-1.13.47a12,12,0,0,1,.34-2.27,4.08,4.08,0,0,0,.18-1.53s.08-2.4,0-3a26.8,26.8,0,0,1,.16-2.79c0-.29.16-1.5.16-1.5l-1.16.84a3.78,3.78,0,0,1-.45-.55,7.37,7.37,0,0,1-.32-1.66,7.76,7.76,0,0,0,.61,1c.29.37.34-.08.76-.5s1.24.9,1.24.9l1.42-.61.4.47a4.83,4.83,0,0,1,.84-.08c.45,0,.66.55,1.32.5a1.76,1.76,0,0,0,.95-.4c.13,0,.4.53,1,.53a1.65,1.65,0,0,0,1.05-.53s.79.74,1.19.71.63-.5.63-.5l.47.18.84.13a1.24,1.24,0,0,0,1.77,0,3.11,3.11,0,0,0,.76-2.42,20.31,20.31,0,0,0,0-3.08,3.66,3.66,0,0,1,0-1.32l.53.55.87-.9s.18,1.29.18,1.42a5.29,5.29,0,0,0,.69.9,4.52,4.52,0,0,1,.74-.76c.26-.16.24-1.69.24-1.69l.58.74,1.29-.74-.34,2.42.74.92.87-.5s.29.21.24,1S230.81,177.84,230.81,177.84Zm46.73,1.27-.63-.74h-.26s.08,1.5,0,3a27.47,27.47,0,0,1-.79,4.11l-.47,2.61-.4,3.75-.75,1.15-.71-.91-.67.36.12-1.34.79-1.23,0-1.07.12-1.07.32-1v-.83l-1,.51-.75-.51-.36,1.74v1.62l-.12.87.47.79v1.23l-.43-.2-1.3,1.07-.51-1.07v-1l.71-1.38v-3.79l-1,.91-.91-.83-.87.83-.91-.75-.95.43-.75-.87-1.15.87-.75-.87-.38,2.91-.47,1.11.66,2.5-.71.5-.29-.34-1.34.69-.45-1,.13-1a1.22,1.22,0,0,0,.34-.74,1.16,1.16,0,0,1,.42-.74s-.05-.69-.05-1a.93.93,0,0,1,.29-.61l.16-2.27-.92,1-.95-1.26a12,12,0,0,0-.18,1.32v.79s-.05,1-.05,1.24a3.81,3.81,0,0,1-.34.92L260,191l-.16.95-.87-.45-1.13.47a12,12,0,0,1,.34-2.27,4.08,4.08,0,0,0,.18-1.53s.08-2.4,0-3a26.77,26.77,0,0,1,.16-2.79c0-.29.16-1.5.16-1.5l-1.16.84a3.79,3.79,0,0,1-.45-.55,7.37,7.37,0,0,1-.32-1.66,7.76,7.76,0,0,0,.61,1c.29.37.34-.08.76-.5s1.24.9,1.24.9l1.42-.61.4.47a4.84,4.84,0,0,1,.84-.08c.45,0,.66.55,1.32.5a1.76,1.76,0,0,0,.95-.4c.13,0,.4.53,1,.53a1.65,1.65,0,0,0,1.05-.53s.79.74,1.19.71.63-.5.63-.5l.47.18.84.13a1.24,1.24,0,0,0,1.77,0,3.11,3.11,0,0,0,.76-2.42,20.33,20.33,0,0,0,0-3.08,3.66,3.66,0,0,1,0-1.32l.53.55.87-.9s.18,1.29.18,1.42a5.29,5.29,0,0,0,.69.9,4.53,4.53,0,0,1,.74-.76c.26-.16.24-1.69.24-1.69l.58.74,1.29-.74-.34,2.42.74.92.87-.5s.29.21.24,1S277.54,179.11,277.54,179.11Zm47.77,0-.63-.74h-.26s.08,1.5,0,3a27.47,27.47,0,0,1-.79,4.11l-.47,2.61-.4,3.75L322,193l-.71-.91-.67.36.12-1.34.79-1.23,0-1.07.12-1.07.32-1v-.83l-1,.51-.75-.51-.36,1.74v1.62l-.12.87.47.79v1.23l-.43-.2-1.3,1.07-.51-1.07v-1l.71-1.38v-3.79l-1,.91-.91-.83-.87.83-.91-.75-.95.43-.75-.87-1.15.87-.75-.87-.38,2.91-.47,1.11.66,2.5-.71.5-.29-.34-1.34.69-.45-1,.13-1a1.22,1.22,0,0,0,.34-.74,1.16,1.16,0,0,1,.42-.74s-.05-.69-.05-1a.93.93,0,0,1,.29-.61l.16-2.27-.92,1-.95-1.26a12,12,0,0,0-.18,1.32v.79s-.05,1-.05,1.24a3.81,3.81,0,0,1-.34.92l.55,1.53-.16.95-.87-.45-1.13.47a12,12,0,0,1,.34-2.27,4.08,4.08,0,0,0,.18-1.53s.08-2.4,0-3a26.78,26.78,0,0,1,.16-2.79c0-.29.16-1.5.16-1.5l-1.16.84a3.78,3.78,0,0,1-.45-.55,7.37,7.37,0,0,1-.32-1.66,7.76,7.76,0,0,0,.61,1c.29.37.34-.08.76-.5s1.24.9,1.24.9l1.42-.61.4.47a4.84,4.84,0,0,1,.84-.08c.45,0,.66.55,1.32.5a1.76,1.76,0,0,0,.95-.4c.13,0,.4.53,1,.53a1.65,1.65,0,0,0,1.05-.53s.79.74,1.19.71.63-.5.63-.5l.47.18.84.13a1.24,1.24,0,0,0,1.77,0,3.11,3.11,0,0,0,.76-2.42,20.33,20.33,0,0,0,0-3.08,3.66,3.66,0,0,1,0-1.32l.53.55.87-.9s.18,1.29.18,1.42a5.29,5.29,0,0,0,.69.9,4.53,4.53,0,0,1,.74-.76c.26-.16.24-1.69.24-1.69l.58.74,1.29-.74-.34,2.42.74.92.87-.5s.29.21.24,1S325.31,179.11,325.31,179.11Zm43.38,0-.63-.74h-.26s.08,1.5,0,3a27.47,27.47,0,0,1-.79,4.11l-.47,2.61-.4,3.75-.75,1.15-.71-.91-.67.36.12-1.34.79-1.23,0-1.07.12-1.07.32-1v-.83l-1,.51-.75-.51-.36,1.74v1.62l-.12.87.47.79v1.23l-.43-.2-1.3,1.07-.51-1.07v-1l.71-1.38v-3.79l-1,.91-.91-.83-.87.83-.91-.75-.95.43-.75-.87-1.15.87-.75-.87-.38,2.91-.47,1.11.66,2.5-.71.5-.29-.34-1.34.69-.45-1,.13-1a1.22,1.22,0,0,0,.34-.74,1.16,1.16,0,0,1,.42-.74s-.05-.69-.05-1a.93.93,0,0,1,.29-.61l.16-2.27-.92,1-.95-1.26a12,12,0,0,0-.18,1.32v.79s-.05,1-.05,1.24a3.81,3.81,0,0,1-.34.92l.55,1.53-.16.95-.87-.45-1.13.47a12,12,0,0,1,.34-2.27,4.08,4.08,0,0,0,.18-1.53s.08-2.4,0-3a26.78,26.78,0,0,1,.16-2.79c0-.29.16-1.5.16-1.5l-1.16.84a3.78,3.78,0,0,1-.45-.55,7.37,7.37,0,0,1-.32-1.66,7.76,7.76,0,0,0,.61,1c.29.37.34-.08.76-.5s1.24.9,1.24.9l1.42-.61.4.47a4.84,4.84,0,0,1,.84-.08c.45,0,.66.55,1.32.5a1.76,1.76,0,0,0,.95-.4c.13,0,.4.53,1,.53a1.65,1.65,0,0,0,1.05-.53s.79.74,1.19.71.63-.5.63-.5l.47.18.84.13a1.24,1.24,0,0,0,1.77,0,3.11,3.11,0,0,0,.76-2.42,20.33,20.33,0,0,0,0-3.08,3.66,3.66,0,0,1,0-1.32l.53.55.87-.9s.18,1.29.18,1.42a5.29,5.29,0,0,0,.69.9,4.53,4.53,0,0,1,.74-.76c.26-.16.24-1.69.24-1.69l.58.74,1.29-.74-.34,2.42.74.92.87-.5s.29.21.24,1S368.69,179.11,368.69,179.11Zm45.2,0-.63-.74H413s.08,1.5,0,3a27.47,27.47,0,0,1-.79,4.11l-.47,2.61-.4,3.75-.75,1.15-.71-.91-.67.36.12-1.34.79-1.23,0-1.07.12-1.07.32-1v-.83l-1,.51-.75-.51-.36,1.74v1.62l-.12.87.47.79v1.23l-.43-.2-1.3,1.07-.51-1.07v-1l.71-1.38v-3.79l-1,.91-.91-.83-.87.83-.91-.75-.95.43-.75-.87-1.15.87-.75-.87-.38,2.91-.47,1.11.66,2.5-.71.5-.29-.34-1.34.69-.45-1,.13-1a1.22,1.22,0,0,0,.34-.74,1.16,1.16,0,0,1,.42-.74s-.05-.69-.05-1a.93.93,0,0,1,.29-.61l.16-2.27-.92,1-.95-1.26a12,12,0,0,0-.18,1.32v.79s-.05,1-.05,1.24a3.81,3.81,0,0,1-.34.92l.55,1.53-.16.95-.87-.45-1.13.47a12,12,0,0,1,.34-2.27,4.08,4.08,0,0,0,.18-1.53s.08-2.4,0-3a26.8,26.8,0,0,1,.16-2.79c0-.29.16-1.5.16-1.5l-1.16.84a3.78,3.78,0,0,1-.45-.55,7.37,7.37,0,0,1-.32-1.66,7.77,7.77,0,0,0,.61,1c.29.37.34-.08.76-.5s1.24.9,1.24.9l1.42-.61.4.47a4.83,4.83,0,0,1,.84-.08c.45,0,.66.55,1.32.5a1.76,1.76,0,0,0,.95-.4c.13,0,.4.53,1,.53a1.65,1.65,0,0,0,1.05-.53s.79.74,1.19.71.63-.5.63-.5l.47.18.84.13a1.24,1.24,0,0,0,1.77,0,3.11,3.11,0,0,0,.76-2.42,20.31,20.31,0,0,0,0-3.08,3.66,3.66,0,0,1,0-1.32l.53.55.87-.9s.18,1.29.18,1.42a5.29,5.29,0,0,0,.69.9,4.53,4.53,0,0,1,.74-.76c.26-.16.24-1.69.24-1.69l.58.74,1.29-.74-.34,2.42.74.92.87-.5s.29.21.24,1S413.89,179.11,413.89,179.11Z" transform="translate(-76.84 -74.91)" fill="#ec5242"/>
    </g>
  </g>
  <g>
    <path d="M83.78,497.09V409.55h20.74a18.86,18.86,0,0,1,7.79,1.39,10.63,10.63,0,0,1,4.89,4.74,25.53,25.53,0,0,1,2.58,9,112.71,112.71,0,0,1,.73,14,114.48,114.48,0,0,1-.73,14.05,28.77,28.77,0,0,1-2.51,9.25,11.26,11.26,0,0,1-5,5.15,17.34,17.34,0,0,1-7.93,1.62h-9v28.33Zm18.76-38.51a4.11,4.11,0,0,0,2.71-.92,7.11,7.11,0,0,0,1.92-3.18,27.68,27.68,0,0,0,1.19-6.13q.4-3.88.4-9.89a93.79,93.79,0,0,0-.4-9.6,22.19,22.19,0,0,0-1.19-5.67,5.17,5.17,0,0,0-2-2.66,5.41,5.41,0,0,0-2.77-.69h-7v38.74Z" transform="translate(-76.84 -74.91)" fill="#ec5242"/>
    <path d="M153.92,497.09a8.7,8.7,0,0,1-.66-1.45,11.63,11.63,0,0,1-.46-2.14q-.2-1.39-.4-3.76t-.46-6.3q-.27-4.4-.59-8.85t-1-8.85q-.66-3.58-1.78-4.62a5.47,5.47,0,0,0-3.76-1h-5.55v37H127.63V409.55h21.13a20.36,20.36,0,0,1,7.13,1,11.24,11.24,0,0,1,4.36,3.06,15.8,15.8,0,0,1,2,3.06,17.17,17.17,0,0,1,1.39,4,34.47,34.47,0,0,1,.73,5.38q.2,3.07.2,7.11t-.13,7A43.66,43.66,0,0,1,164,445a30.83,30.83,0,0,1-.73,3.41,18,18,0,0,1-.92,2.54,8.57,8.57,0,0,1-2.18,3,10.07,10.07,0,0,1-2.71,1.62v.58a7.12,7.12,0,0,1,2.58,2.14,10.94,10.94,0,0,1,1.78,5.15q.92,6,1.52,12.2t1,12.9q.26,2.66.59,4.51a19.7,19.7,0,0,0,1,3.59v.46Zm-9.38-46.37a11.64,11.64,0,0,0,4-.58,5.06,5.06,0,0,0,2.64-2.54,8.45,8.45,0,0,0,.79-1.85,17.85,17.85,0,0,0,.46-2.49q.2-1.56.26-3.93t.07-6.19c0-1.92,0-3.53-.07-4.8s-.11-2.31-.2-3.12a6.88,6.88,0,0,0-.46-2,8.32,8.32,0,0,0-.73-1.33,5.35,5.35,0,0,0-4.62-2.2h-7.4v31Z" transform="translate(-76.84 -74.91)" fill="#ec5242"/>
    <path d="M174,491.43a27.53,27.53,0,0,1-1.58-4.34,39,39,0,0,1-1.06-6.42q-.4-4-.59-10.58t-.2-16.83q0-10.29.2-16.77t.59-10.53a37.47,37.47,0,0,1,1.06-6.36,33.41,33.41,0,0,1,1.58-4.39,10.71,10.71,0,0,1,5.28-5.61q3.43-1.56,10.17-1.56t10.17,1.56a10.71,10.71,0,0,1,5.28,5.61,33.65,33.65,0,0,1,1.59,4.39,37.67,37.67,0,0,1,1.06,6.36q.4,4.05.59,10.53t.2,16.77q0,10.29-.2,16.83t-.59,10.58a39.16,39.16,0,0,1-1.06,6.42,27.7,27.7,0,0,1-1.59,4.34,10.71,10.71,0,0,1-5.28,5.61q-3.43,1.56-10.17,1.56T179.28,497A10.71,10.71,0,0,1,174,491.43Zm21.14-7.4a27,27,0,0,0,.66-3q.26-1.62.46-4.8t.33-8.62q.13-5.43.13-14.57t-.06-14.63q-.07-5.49-.27-8.67t-.46-4.74a27.75,27.75,0,0,0-.66-2.95,5.44,5.44,0,0,0-1.91-2.95,7,7,0,0,0-3.9-.87,6.6,6.6,0,0,0-3.83.87,5.58,5.58,0,0,0-1.85,2.83q-.4,1.39-.73,3a37.75,37.75,0,0,0-.53,4.8q-.2,3.18-.26,8.67T182.19,453q0,9.14.07,14.57t.26,8.62A37.62,37.62,0,0,0,183,481q.33,1.62.73,3a5.28,5.28,0,0,0,1.85,2.89,9.48,9.48,0,0,0,7.66,0A5.29,5.29,0,0,0,195.13,484Z" transform="translate(-76.84 -74.91)" fill="#ec5242"/>
    <path d="M215.87,497.09V409.55h19.42q6.74,0,10.17,1.5a11.06,11.06,0,0,1,5.42,5.43,29.61,29.61,0,0,1,1.58,4.22,35.74,35.74,0,0,1,1.06,6.19q.4,3.93.53,10.18t.13,16.19q0,10.29-.2,16.65t-.59,10.23a40,40,0,0,1-1,6.07,21.79,21.79,0,0,1-1.52,4,10.23,10.23,0,0,1-5.28,5.38q-3.44,1.45-10.3,1.45ZM235,486.34a7.83,7.83,0,0,0,3.9-.75,4.79,4.79,0,0,0,1.91-2.72q.4-1.27.73-2.89a32.47,32.47,0,0,0,.46-4.74q.13-3.12.2-8.33t.06-13.76q0-8.33-.06-13.47t-.2-8.33a46.32,46.32,0,0,0-.4-4.86,13.07,13.07,0,0,0-.79-2.95,5.7,5.7,0,0,0-2-2.77A7,7,0,0,0,235,420h-7.53v66.38Z" transform="translate(-76.84 -74.91)" fill="#ec5242"/>
    <path d="M287.07,409.55h11.62v63.26q0,4.4-.07,7.4t-.26,5.2a15.94,15.94,0,0,1-2.18,7.05,10.44,10.44,0,0,1-5.61,4.8q-3.63,1.33-10.63,1.33t-10.77-1.33a10.43,10.43,0,0,1-5.61-4.8,17.18,17.18,0,0,1-1.45-3.24,20,20,0,0,1-.79-3.81q-.26-2.19-.33-5.2t-.07-7.4V409.55h12v63.26q0,3.47.07,5.61t.2,3.53a7.87,7.87,0,0,0,.46,2.2,9.45,9.45,0,0,0,.86,1.62,3.85,3.85,0,0,0,2,1.56,11.86,11.86,0,0,0,3.5.4,11.19,11.19,0,0,0,3.43-.4,3.88,3.88,0,0,0,2-1.56,9.57,9.57,0,0,0,.86-1.62,8,8,0,0,0,.46-2.2q.13-1.39.2-3.53t.07-5.61Z" transform="translate(-76.84 -74.91)" fill="#ec5242"/>
    <path d="M342.68,463.56a29.78,29.78,0,0,1,.26,3.93v3.93a72.56,72.56,0,0,1-.86,11.91,24.34,24.34,0,0,1-2.91,8.5,12.9,12.9,0,0,1-5.48,5.09A19.89,19.89,0,0,1,325,498.6q-7,0-10.57-1.56a10.61,10.61,0,0,1-5.42-5.61,22.53,22.53,0,0,1-1.58-4.39,44.46,44.46,0,0,1-1.06-6.82q-.4-4.28-.59-10.87t-.2-16.77q0-11.68.33-18.56t.86-10.7a24.86,24.86,0,0,1,1.19-5.44q.66-1.62,1.19-2.77a11.32,11.32,0,0,1,5.08-5.44q3.24-1.62,10.24-1.62a32.39,32.39,0,0,1,7.79.75,12.14,12.14,0,0,1,5,2.6q2.64,2.32,4.1,8.09a60,60,0,0,1,1.45,14.34c0,1.54,0,2.89-.07,4s-.11,2.39-.2,3.7h-11.1c.09-1.23.13-2.31.13-3.24v-4.28a63.05,63.05,0,0,0-.46-8.56,14.2,14.2,0,0,0-1.39-4.86,3.94,3.94,0,0,0-2-2,9.41,9.41,0,0,0-3.3-.46,7,7,0,0,0-3.83.81,5.29,5.29,0,0,0-1.85,2.89q-.4,1.39-.73,3.06a40.14,40.14,0,0,0-.53,4.92q-.2,3.24-.26,8.62t-.07,13.94q0,8.67.07,14.22t.26,8.9a47.3,47.3,0,0,0,.53,5.2,33.08,33.08,0,0,0,.73,3.24,5.37,5.37,0,0,0,1.91,2.83,7.87,7.87,0,0,0,4.29.87,5,5,0,0,0,3.63-1.21,7.81,7.81,0,0,0,1.91-3.53,32.44,32.44,0,0,0,1-5.38,67.43,67.43,0,0,0,.33-7.11v-3.59c0-1.08,0-2.2-.13-3.35Z" transform="translate(-76.84 -74.91)" fill="#ec5242"/>
    <path d="M358.66,497.09V420H346.25V409.55H382.7V420H370.42v77.14Z" transform="translate(-76.84 -74.91)" fill="#ec5242"/>
    <path d="M388.78,497.09V409.55h12v87.54Z" transform="translate(-76.84 -74.91)" fill="#ec5242"/>
    <path d="M417.84,497.09,407.4,409.55H420q1.45,15.73,2.57,27t1.85,19.14q.73,7.87,1.26,12.78t.79,8c.18,2,.28,3.64.33,4.8s.11,2.2.2,3.12h.92q0-1.39.13-3.12t.46-4.8q.33-3.06.79-8t1.19-12.78q.72-7.86,1.85-19.14t2.57-27h12.29l-10.83,87.54Z" transform="translate(-76.84 -74.91)" fill="#ec5242"/>
    <path d="M473.45,497.09l-2.25-23.82h-10.7l-2.25,23.82H446.5l9.91-87.54h19.81l9.25,87.54Zm-5.94-66.73q-.26-2.66-.53-5.2t-.53-5.2h-.92l-.53,5.2q-.27,2.55-.53,5.2L461,463.21h9.64Z" transform="translate(-76.84 -74.91)" fill="#ec5242"/>
  </g>
  <g>
    <path d="M101.87,364.09a17,17,0,0,0-.57,3.72q-.12,2.08-.12,5.21a68.48,68.48,0,0,0,.45,9.45,9.84,9.84,0,0,0,2,4.83,7.44,7.44,0,0,0,3.17,2.31,17.66,17.66,0,0,0,5.66.67,21.91,21.91,0,0,0,6.46-.67,8,8,0,0,0,3.51-2.6,11.27,11.27,0,0,0,2-5.36,88.35,88.35,0,0,0,.45-10.71v-4.76a19.12,19.12,0,0,0-.23-3.2c-.15-.84-.31-1.59-.45-2.23a17.91,17.91,0,0,0-.68-2.16,7.27,7.27,0,0,0-2.38-3.13,37.58,37.58,0,0,0-4.87-2.68q-2.72-1.34-6.12-2.75t-6.8-2.9q-3.4-1.49-6.57-3.05A50.16,50.16,0,0,1,91.45,341a17.78,17.78,0,0,1-3.85-3.35,13.31,13.31,0,0,1-2.49-4.83,40,40,0,0,1-1.36-7.59q-.46-4.61-.45-11.75,0-9.37,1.7-14.06a16.11,16.11,0,0,1,5.78-7.66,23.13,23.13,0,0,1,8.38-3.57,67.65,67.65,0,0,1,13.59-1q10.41,0,15.74,1.49a21.46,21.46,0,0,1,8.27,4,14.14,14.14,0,0,1,4.31,6.92,46.29,46.29,0,0,1,1.13,11.68,72.35,72.35,0,0,1-.34,7.81,23.19,23.19,0,0,1-1,5h-17a15.73,15.73,0,0,0,.57-3.65q.11-2.15.11-5.58a38,38,0,0,0-.68-8.4,8.5,8.5,0,0,0-2.49-4.39,6.82,6.82,0,0,0-3.17-1.56,29.51,29.51,0,0,0-5.44-.37,22.76,22.76,0,0,0-5.33.45,6.75,6.75,0,0,0-3.06,1.78,8.57,8.57,0,0,0-2.15,4.31,46.33,46.33,0,0,0-.57,8.63v5.58q0,2.16.11,3.57a9.59,9.59,0,0,0,.45,2.38c.23.65.49,1.32.79,2a11.25,11.25,0,0,0,2.27,2.9,26.38,26.38,0,0,0,4.76,2.75,85.54,85.54,0,0,0,9.85,4.16,113.86,113.86,0,0,1,11,4.61,54.49,54.49,0,0,1,6,3.2,15.77,15.77,0,0,1,3.74,3.65,25,25,0,0,1,1.59,2.67,12.07,12.07,0,0,1,1,3.57,51.16,51.16,0,0,1,.45,5.73q.11,3.5.11,9a92.21,92.21,0,0,1-.45,9.89,46.76,46.76,0,0,1-1.25,7,21.88,21.88,0,0,1-1.93,4.91,33.37,33.37,0,0,1-2.49,3.79q-2.72,3.42-8.61,5.21t-16.76,1.78a62.54,62.54,0,0,1-14.61-1.34,15.48,15.48,0,0,1-8.49-5.21,32.77,32.77,0,0,1-2.49-3.42,15.82,15.82,0,0,1-1.81-4.17,33.47,33.47,0,0,1-1-5.65,80.13,80.13,0,0,1-.34-8,59.33,59.33,0,0,1,.34-6.77c.23-1.93.49-3.6.79-5Z" transform="translate(-76.84 -74.91)" fill="#ec5242"/>
    <path d="M156.68,401.73V289.12H177.3V401.73Z" transform="translate(-76.84 -74.91)" fill="#ec5242"/>
    <path d="M192.48,401.73V289.12h53v13.39H212.41v35.4H245V350.7H212.41v37h32.85v14Z" transform="translate(-76.84 -74.91)" fill="#ec5242"/>
    <path d="M304.15,401.73a10,10,0,0,1-1.13-1.86,11.9,11.9,0,0,1-.79-2.75q-.34-1.78-.68-4.83t-.79-8.11q-.46-5.65-1-11.38T298,361.41q-1.14-4.61-3.06-6t-6.46-1.34H279v47.6H259.07V289.12h36.24a45.71,45.71,0,0,1,12.23,1.27,20.36,20.36,0,0,1,7.48,3.94,21.15,21.15,0,0,1,3.51,3.94,18.92,18.92,0,0,1,2.38,5.13,34.08,34.08,0,0,1,1.25,6.92q.34,3.94.34,9.15t-.23,9a42.31,42.31,0,0,1-.79,6.25,31.63,31.63,0,0,1-1.25,4.39,20.08,20.08,0,0,1-1.59,3.27,11.87,11.87,0,0,1-3.74,3.87,19,19,0,0,1-4.64,2.08v.74a12.15,12.15,0,0,1,4.42,2.75q2.15,2,3.06,6.62,1.58,7.74,2.61,15.69t1.7,16.59a58,58,0,0,0,1,5.8,20.58,20.58,0,0,0,1.7,4.61v.59Zm-16.08-59.65a26.11,26.11,0,0,0,6.79-.74,8.11,8.11,0,0,0,4.53-3.27,9.7,9.7,0,0,0,1.36-2.38,17.52,17.52,0,0,0,.79-3.2,40.86,40.86,0,0,0,.45-5.06q.11-3.05.11-8,0-3.72-.11-6.17t-.34-4a7.05,7.05,0,0,0-.79-2.53,10.35,10.35,0,0,0-1.25-1.71q-2.72-2.82-7.93-2.83H279v39.87Z" transform="translate(-76.84 -74.91)" fill="#ec5242"/>
    <path d="M381.4,401.73a10,10,0,0,1-1.13-1.86,11.9,11.9,0,0,1-.79-2.75q-.34-1.78-.68-4.83t-.79-8.11q-.46-5.65-1-11.38t-1.7-11.38q-1.14-4.61-3.06-6t-6.46-1.34h-9.51v47.6H336.32V289.12h36.24a45.71,45.71,0,0,1,12.23,1.27,20.36,20.36,0,0,1,7.48,3.94,21.15,21.15,0,0,1,3.51,3.94,18.92,18.92,0,0,1,2.38,5.13,34.08,34.08,0,0,1,1.25,6.92q.34,3.94.34,9.15t-.23,9a42.31,42.31,0,0,1-.79,6.25,31.63,31.63,0,0,1-1.25,4.39,20.08,20.08,0,0,1-1.59,3.27,11.87,11.87,0,0,1-3.74,3.87,19,19,0,0,1-4.64,2.08v.74a12.15,12.15,0,0,1,4.42,2.75q2.15,2,3.06,6.62,1.58,7.74,2.61,15.69t1.7,16.59a58,58,0,0,0,1,5.8,20.58,20.58,0,0,0,1.7,4.61v.59Zm-16.08-59.65a26.11,26.11,0,0,0,6.79-.74,8.11,8.11,0,0,0,4.53-3.27,9.7,9.7,0,0,0,1.36-2.38,17.52,17.52,0,0,0,.79-3.2,40.86,40.86,0,0,0,.45-5.06q.11-3.05.11-8,0-3.72-.11-6.17t-.34-4a7.05,7.05,0,0,0-.79-2.53,10.35,10.35,0,0,0-1.25-1.71q-2.72-2.82-7.93-2.83H356.25v39.87Z" transform="translate(-76.84 -74.91)" fill="#ec5242"/>
    <path d="M455.92,401.73l-3.85-30.65H433.72l-3.85,30.65H409.71l17-112.61h34l15.86,112.61ZM445.73,315.9q-.46-3.42-.9-6.69t-.91-6.69h-1.59q-.46,3.42-.9,6.69t-.91,6.69l-5.89,42.25h16.54Z" transform="translate(-76.84 -74.91)" fill="#ec5242"/>
  </g>
  <g>
    <path d="M149.57,547.12h-3V524.87h11.62l-.2,1.59-8.41.11v9l8.12.09-.22,1.41-7.91.17Z" transform="translate(-76.84 -74.91)" fill="#ec5242"/>
    <path d="M168.52,547.4a7,7,0,0,1-5.36-2,8.07,8.07,0,0,1-1.86-5.75,10.7,10.7,0,0,1,.46-3.23,6.45,6.45,0,0,1,1.37-2.44,6.09,6.09,0,0,1,2.26-1.54,8.34,8.34,0,0,1,3.13-.54,8.75,8.75,0,0,1,3.11.51,5.84,5.84,0,0,1,2.26,1.5,6.34,6.34,0,0,1,1.37,2.42,10.81,10.81,0,0,1,.46,3.28,10.64,10.64,0,0,1-.46,3.24,6.54,6.54,0,0,1-1.37,2.44,5.93,5.93,0,0,1-2.26,1.54A8.4,8.4,0,0,1,168.52,547.4Zm-4.11-7.73a14.51,14.51,0,0,0,.23,2.78,5.26,5.26,0,0,0,.72,1.89,2.94,2.94,0,0,0,1.26,1.09,4.49,4.49,0,0,0,1.86.35,6,6,0,0,0,1.54-.17,3.92,3.92,0,0,0,1.3-.65,3,3,0,0,0,1-2,18.19,18.19,0,0,0,.26-3.29,8.64,8.64,0,0,0-1-4.64,3.42,3.42,0,0,0-3.07-1.47,6.32,6.32,0,0,0-1.55.17,3.84,3.84,0,0,0-1.29.61,1.88,1.88,0,0,0-.61.79,6.69,6.69,0,0,0-.4,1.24,10.53,10.53,0,0,0-.23,1.55Q164.41,538.8,164.41,539.67Z" transform="translate(-76.84 -74.91)" fill="#ec5242"/>
    <path d="M187.74,534.6l-1.13-.1c-.42,0-.82-.06-1.2-.06a2.53,2.53,0,0,0-.71.09,2,2,0,0,0-.56.27,4,4,0,0,0-.53.44l-.61.58v11.3h-2.93V532.26h2.45l.41,2.32h0l.5-.62c.17-.22.35-.44.53-.64a6.11,6.11,0,0,1,.58-.57,2.61,2.61,0,0,1,.65-.41,4.34,4.34,0,0,1,1.33-.34,15.77,15.77,0,0,1,1.63-.08Z" transform="translate(-76.84 -74.91)" fill="#ec5242"/>
    <path d="M200.84,547.12V536.78a7.07,7.07,0,0,0-.08-1,2.4,2.4,0,0,0-.33-.91,2,2,0,0,0-.71-.66,2.45,2.45,0,0,0-1.22-.26,4.78,4.78,0,0,0-1.06.13,11.11,11.11,0,0,0-1.13.33,10.52,10.52,0,0,0-1.11.46q-.54.26-1,.52v11.77h-2.93V532.26h2.45l.43,1.74,1.08-.64a13.57,13.57,0,0,1,1.34-.67,10.84,10.84,0,0,1,1.51-.53,5.94,5.94,0,0,1,1.57-.22,4.39,4.39,0,0,1,2.25.56,3.45,3.45,0,0,1,1.44,1.72l.35-.22,1.08-.64a13.57,13.57,0,0,1,1.34-.67,10.84,10.84,0,0,1,1.51-.53,5.94,5.94,0,0,1,1.57-.22,4.79,4.79,0,0,1,1.64.27,3.42,3.42,0,0,1,1.29.83,3.84,3.84,0,0,1,.85,1.37,5.49,5.49,0,0,1,.3,1.92v10.8h-2.93V536.78a7,7,0,0,0-.08-1,2.38,2.38,0,0,0-.33-.91,2,2,0,0,0-.71-.66,2.45,2.45,0,0,0-1.22-.26A4.57,4.57,0,0,0,207,534a11.71,11.71,0,0,0-1.15.35q-.58.21-1.13.47a10.81,10.81,0,0,0-1,.52,6.57,6.57,0,0,1,.07.93v10.8Z" transform="translate(-76.84 -74.91)" fill="#ec5242"/>
    <path d="M230,545.57a6.2,6.2,0,0,0,1.54-.26v.93q-.7.37-1.52.72a4.45,4.45,0,0,1-1.74.35,2.2,2.2,0,0,1-.89-.16,1.72,1.72,0,0,1-.61-.43,2.47,2.47,0,0,1-.39-.6,5.94,5.94,0,0,1-.26-.65l-1.09.72a8.59,8.59,0,0,1-1.1.62,6.69,6.69,0,0,1-1.23.43,6,6,0,0,1-1.46.16,4,4,0,0,1-2.88-1,4,4,0,0,1-1.05-3.05,5.26,5.26,0,0,1,.32-1.9,3.19,3.19,0,0,1,1-1.37,4.74,4.74,0,0,1,1.8-.84,12.56,12.56,0,0,1,2.71-.33l2.67-.09v-2.63a2.73,2.73,0,0,0-.5-1.81,2.12,2.12,0,0,0-1.67-.58,8.46,8.46,0,0,0-2.06.32,17,17,0,0,0-2.39.81l-.52-1.39,1.47-.58q.77-.29,1.57-.52a15.74,15.74,0,0,1,1.63-.37,9.75,9.75,0,0,1,1.63-.14,6,6,0,0,1,1.6.2,2.76,2.76,0,0,1,1.2.66,2.91,2.91,0,0,1,.74,1.24,6.25,6.25,0,0,1,.25,1.9V543Q228.78,545.58,230,545.57Zm-4.06-1.11q0-.11,0-1.25t0-3.23a15.87,15.87,0,0,0-3.58.3,3.52,3.52,0,0,0-1.5.61,1.75,1.75,0,0,0-.38.8,5.51,5.51,0,0,0-.12,1.22,3.54,3.54,0,0,0,.42,1.9,1.56,1.56,0,0,0,1.42.66,7.54,7.54,0,0,0,2-.24A8.4,8.4,0,0,0,225.93,544.47Z" transform="translate(-76.84 -74.91)" fill="#ec5242"/>
    <path d="M243.94,547.12V536.78a7.07,7.07,0,0,0-.08-1,2.4,2.4,0,0,0-.33-.91,2,2,0,0,0-.71-.66,2.45,2.45,0,0,0-1.22-.26,4.78,4.78,0,0,0-1.06.13,11.11,11.11,0,0,0-1.13.33,10.52,10.52,0,0,0-1.11.46q-.54.26-1,.52v11.77h-2.93V532.26h2.45l.43,1.74,1.08-.64a13.57,13.57,0,0,1,1.34-.67,10.84,10.84,0,0,1,1.51-.53,5.94,5.94,0,0,1,1.57-.22,4.39,4.39,0,0,1,2.25.56,3.45,3.45,0,0,1,1.44,1.72l.35-.22,1.08-.64a13.57,13.57,0,0,1,1.34-.67,10.84,10.84,0,0,1,1.51-.53,5.94,5.94,0,0,1,1.57-.22,4.79,4.79,0,0,1,1.64.27,3.42,3.42,0,0,1,1.29.83,3.84,3.84,0,0,1,.85,1.37,5.49,5.49,0,0,1,.3,1.92v10.8h-2.93V536.78a7,7,0,0,0-.08-1,2.38,2.38,0,0,0-.33-.91,2,2,0,0,0-.71-.66,2.45,2.45,0,0,0-1.22-.26,4.57,4.57,0,0,0-1.08.14,11.71,11.71,0,0,0-1.15.35q-.58.21-1.13.47a10.81,10.81,0,0,0-1,.52,6.57,6.57,0,0,1,.07.93v10.8Z" transform="translate(-76.84 -74.91)" fill="#ec5242"/>
    <path d="M267.84,547.4a7,7,0,0,1-5.36-2,8.07,8.07,0,0,1-1.86-5.75,10.7,10.7,0,0,1,.46-3.23,6.45,6.45,0,0,1,1.37-2.44,6.09,6.09,0,0,1,2.26-1.54,8.34,8.34,0,0,1,3.13-.54,8.75,8.75,0,0,1,3.11.51,5.84,5.84,0,0,1,2.26,1.5,6.34,6.34,0,0,1,1.37,2.42,10.81,10.81,0,0,1,.46,3.28,10.64,10.64,0,0,1-.46,3.24,6.54,6.54,0,0,1-1.37,2.44,5.93,5.93,0,0,1-2.26,1.54A8.4,8.4,0,0,1,267.84,547.4Zm-4.11-7.73a14.51,14.51,0,0,0,.23,2.78,5.26,5.26,0,0,0,.72,1.89,2.94,2.94,0,0,0,1.26,1.09,4.49,4.49,0,0,0,1.86.35,6,6,0,0,0,1.54-.17,3.92,3.92,0,0,0,1.3-.65,3,3,0,0,0,1-2,18.19,18.19,0,0,0,.26-3.29,8.64,8.64,0,0,0-1-4.64,3.42,3.42,0,0,0-3.07-1.47,6.32,6.32,0,0,0-1.55.17,3.84,3.84,0,0,0-1.29.61,1.88,1.88,0,0,0-.61.79,6.69,6.69,0,0,0-.4,1.24,10.53,10.53,0,0,0-.23,1.55Q263.73,538.8,263.73,539.67Z" transform="translate(-76.84 -74.91)" fill="#ec5242"/>
    <path d="M288.58,542.45a4.36,4.36,0,0,1-.38,1.9,4.81,4.81,0,0,1-1,1.4,8.07,8.07,0,0,1-.76.63,4.82,4.82,0,0,1-.94.53,5.59,5.59,0,0,1-1.17.36,7.41,7.41,0,0,1-1.46.13,10.44,10.44,0,0,1-2.69-.33,7.58,7.58,0,0,1-2.28-1l.87-2q.48.3,1,.6t1.14.54a8.14,8.14,0,0,0,1.23.4,5.52,5.52,0,0,0,1.3.15,6.23,6.23,0,0,0,1.26-.11,2.34,2.34,0,0,0,.89-.37,1.72,1.72,0,0,0,.57-.68,3,3,0,0,0,.22-1.29,1.52,1.52,0,0,0-.59-1.24,5.5,5.5,0,0,0-1.47-.83q-.88-.35-1.91-.69a10,10,0,0,1-1.91-.87,4.92,4.92,0,0,1-1.47-1.31,3.36,3.36,0,0,1-.59-2.05,3.09,3.09,0,0,1,.39-1.6,5.8,5.8,0,0,1,1-1.23,5.54,5.54,0,0,1,1.72-1.1,5.61,5.61,0,0,1,2.15-.4,17.31,17.31,0,0,1,2,.12q1,.12,2,.27l-.44,2.15-1-.22-1.07-.2-1.06-.14a8.73,8.73,0,0,0-.9-.05,7.07,7.07,0,0,0-1.35.1,1.84,1.84,0,0,0-.74.29,1,1,0,0,0-.36.49,2.39,2.39,0,0,0-.12.84,1.34,1.34,0,0,0,.59,1.13,6.39,6.39,0,0,0,1.48.78q.89.35,1.91.71a10.54,10.54,0,0,1,1.91.89,5,5,0,0,1,1.48,1.32A3.33,3.33,0,0,1,288.58,542.45Z" transform="translate(-76.84 -74.91)" fill="#ec5242"/>
    <path d="M302.16,533.52q.46-.32.93-.61a7.87,7.87,0,0,1,1-.5,6.61,6.61,0,0,1,1.11-.35,5.88,5.88,0,0,1,1.28-.13,7.12,7.12,0,0,1,2.35.39,5.2,5.2,0,0,1,2,1.26,6.22,6.22,0,0,1,1.39,2.27,9.77,9.77,0,0,1,.52,3.4,10.71,10.71,0,0,1-.51,3.44,7,7,0,0,1-1.48,2.55,6.41,6.41,0,0,1-2.35,1.6,8.31,8.31,0,0,1-3.12.55,8.16,8.16,0,0,1-1.63-.16q-.8-.16-1.5-.36c0,.07,0,.19,0,.35s0,.34,0,.53,0,.4,0,.61,0,.4,0,.58v7.67l-2.93.69V532.69l2.59-.65Zm7.47,5.91a9.44,9.44,0,0,0-.29-2.52,4.78,4.78,0,0,0-.84-1.72,3.17,3.17,0,0,0-1.3-1,4.45,4.45,0,0,0-1.67-.3,7.79,7.79,0,0,0-1.73.19,9.72,9.72,0,0,0-1.6.51v10.95q.69.11,1.34.16t1.38.06a9.93,9.93,0,0,0,1.92-.17,3.06,3.06,0,0,0,1.36-.56,2.61,2.61,0,0,0,.49-.67,6.43,6.43,0,0,0,.47-1.16,10.65,10.65,0,0,0,.35-1.65A15.53,15.53,0,0,0,309.63,539.43Z" transform="translate(-76.84 -74.91)" fill="#ec5242"/>
    <path d="M322.95,531.93a6.59,6.59,0,0,1,1.91.28,4.67,4.67,0,0,1,1.71.95,5.89,5.89,0,0,1,1.35,1.76,9.33,9.33,0,0,1,.86,2.73v.17a1.91,1.91,0,0,1-.53.44,3.8,3.8,0,0,1-.88.35,11.32,11.32,0,0,1-1.34.27q-.79.12-1.9.18l-4.82.33v.94a6.24,6.24,0,0,0,.93,3.82,3.37,3.37,0,0,0,2.82,1.19,9,9,0,0,0,1.62-.15c.56-.1,1.09-.22,1.6-.37s1-.29,1.38-.44a9.92,9.92,0,0,0,1-.4l.37.85q-.63.41-1.41.87a14.43,14.43,0,0,1-1.68.84,13.11,13.11,0,0,1-1.89.63,8.29,8.29,0,0,1-2,.25,6.54,6.54,0,0,1-2.29-.39,4.59,4.59,0,0,1-1.84-1.26,6.1,6.1,0,0,1-1.23-2.27,11.29,11.29,0,0,1-.45-3.4,12.13,12.13,0,0,1,.52-3.8,6.63,6.63,0,0,1,1.43-2.52,5.42,5.42,0,0,1,2.15-1.39A8,8,0,0,1,322.95,531.93Zm-2.45,2.15a1.62,1.62,0,0,0-.45.55,4.53,4.53,0,0,0-.36.91,9.68,9.68,0,0,0-.25,1.16,8.41,8.41,0,0,0-.1,1.28l6.21-.26a12.29,12.29,0,0,0-.31-1.49,5.17,5.17,0,0,0-.56-1.34,3.09,3.09,0,0,0-.9-1,2.3,2.3,0,0,0-1.32-.37,4.9,4.9,0,0,0-1,.11A2.52,2.52,0,0,0,320.5,534.08Z" transform="translate(-76.84 -74.91)" fill="#ec5242"/>
    <path d="M340.61,534.6l-1.13-.1c-.42,0-.82-.06-1.19-.06a2.53,2.53,0,0,0-.71.09,2,2,0,0,0-.56.27,4,4,0,0,0-.53.44l-.61.58v11.3h-2.93V532.26h2.45l.41,2.32h0l.5-.62c.17-.22.35-.44.53-.64a6,6,0,0,1,.58-.57,2.62,2.62,0,0,1,.65-.41,4.33,4.33,0,0,1,1.32-.34,15.79,15.79,0,0,1,1.63-.08Z" transform="translate(-76.84 -74.91)" fill="#ec5242"/>
    <path d="M353.36,542.45a4.36,4.36,0,0,1-.38,1.9,4.81,4.81,0,0,1-1,1.4,8.07,8.07,0,0,1-.76.63,4.82,4.82,0,0,1-.94.53,5.59,5.59,0,0,1-1.17.36,7.41,7.41,0,0,1-1.46.13,10.44,10.44,0,0,1-2.69-.33,7.58,7.58,0,0,1-2.28-1l.87-2q.48.3,1,.6t1.14.54a8.14,8.14,0,0,0,1.23.4,5.52,5.52,0,0,0,1.3.15,6.23,6.23,0,0,0,1.26-.11,2.34,2.34,0,0,0,.89-.37,1.72,1.72,0,0,0,.57-.68,3,3,0,0,0,.22-1.29,1.52,1.52,0,0,0-.59-1.24,5.5,5.5,0,0,0-1.47-.83q-.88-.35-1.91-.69a10,10,0,0,1-1.91-.87,4.92,4.92,0,0,1-1.47-1.31,3.36,3.36,0,0,1-.59-2.05,3.09,3.09,0,0,1,.39-1.6,5.8,5.8,0,0,1,1-1.23,5.54,5.54,0,0,1,1.72-1.1,5.61,5.61,0,0,1,2.15-.4,17.31,17.31,0,0,1,2,.12q1,.12,2,.27l-.44,2.15-1-.22-1.07-.2-1.06-.14a8.73,8.73,0,0,0-.9-.05,7.07,7.07,0,0,0-1.35.1,1.84,1.84,0,0,0-.74.29,1,1,0,0,0-.36.49,2.39,2.39,0,0,0-.12.84,1.34,1.34,0,0,0,.59,1.13,6.39,6.39,0,0,0,1.48.78q.89.35,1.91.71a10.54,10.54,0,0,1,1.91.89,5,5,0,0,1,1.48,1.32A3.33,3.33,0,0,1,353.36,542.45Z" transform="translate(-76.84 -74.91)" fill="#ec5242"/>
    <path d="M363.59,547.4a7,7,0,0,1-5.35-2,8.06,8.06,0,0,1-1.86-5.75,10.66,10.66,0,0,1,.46-3.23,6.45,6.45,0,0,1,1.37-2.44,6.1,6.1,0,0,1,2.26-1.54,8.34,8.34,0,0,1,3.13-.54,8.75,8.75,0,0,1,3.11.51,5.85,5.85,0,0,1,2.26,1.5,6.36,6.36,0,0,1,1.37,2.42,10.83,10.83,0,0,1,.46,3.28,10.66,10.66,0,0,1-.46,3.24,6.55,6.55,0,0,1-1.37,2.44,5.94,5.94,0,0,1-2.26,1.54A8.41,8.41,0,0,1,363.59,547.4Zm-4.11-7.73a14.56,14.56,0,0,0,.23,2.78,5.27,5.27,0,0,0,.72,1.89,3,3,0,0,0,1.26,1.09,4.5,4.5,0,0,0,1.86.35,6,6,0,0,0,1.54-.17,3.91,3.91,0,0,0,1.3-.65,3,3,0,0,0,1-2,18.13,18.13,0,0,0,.26-3.29,8.63,8.63,0,0,0-1-4.64,3.42,3.42,0,0,0-3.07-1.47,6.33,6.33,0,0,0-1.55.17,3.85,3.85,0,0,0-1.29.61,1.89,1.89,0,0,0-.61.79,6.78,6.78,0,0,0-.4,1.24,10.61,10.61,0,0,0-.23,1.55Q359.49,538.8,359.49,539.67Z" transform="translate(-76.84 -74.91)" fill="#ec5242"/>
    <path d="M385.34,547.12V536.78a6.21,6.21,0,0,0-.09-1,2.29,2.29,0,0,0-.36-.91,2,2,0,0,0-.77-.66,2.93,2.93,0,0,0-1.35-.26,5.71,5.71,0,0,0-1.16.13q-.62.13-1.25.33a11.09,11.09,0,0,0-1.22.46q-.59.26-1.06.52v11.77h-2.93V532.26h2.45L378,534h0l1.16-.64a15.28,15.28,0,0,1,1.42-.67,12.27,12.27,0,0,1,1.59-.53,6.55,6.55,0,0,1,1.67-.22,5.48,5.48,0,0,1,1.76.27A3.65,3.65,0,0,1,387,533a3.85,3.85,0,0,1,.9,1.37,5.15,5.15,0,0,1,.33,1.92v10.8Z" transform="translate(-76.84 -74.91)" fill="#ec5242"/>
    <path d="M405,545.57a6.2,6.2,0,0,0,1.54-.26v.93q-.7.37-1.52.72a4.45,4.45,0,0,1-1.74.35,2.19,2.19,0,0,1-.89-.16,1.74,1.74,0,0,1-.61-.43,2.5,2.5,0,0,1-.39-.6,6.33,6.33,0,0,1-.26-.65l-1.09.72a8.71,8.71,0,0,1-1.1.62,6.68,6.68,0,0,1-1.23.43,6,6,0,0,1-1.46.16,4,4,0,0,1-2.88-1,4,4,0,0,1-1.05-3.05,5.24,5.24,0,0,1,.31-1.9,3.2,3.2,0,0,1,1-1.37,4.74,4.74,0,0,1,1.8-.84,12.55,12.55,0,0,1,2.72-.33l2.67-.09v-2.63a2.72,2.72,0,0,0-.5-1.81,2.11,2.11,0,0,0-1.67-.58,8.45,8.45,0,0,0-2.06.32,17,17,0,0,0-2.39.81l-.52-1.39,1.47-.58q.77-.29,1.57-.52a15.73,15.73,0,0,1,1.63-.37,9.75,9.75,0,0,1,1.63-.14,6,6,0,0,1,1.6.2,2.76,2.76,0,0,1,1.19.66,2.9,2.9,0,0,1,.74,1.24,6.25,6.25,0,0,1,.25,1.9V543Q403.74,545.58,405,545.57Zm-4.06-1.11q0-.11,0-1.25t0-3.23a15.86,15.86,0,0,0-3.58.3,3.52,3.52,0,0,0-1.5.61,1.75,1.75,0,0,0-.38.8,5.54,5.54,0,0,0-.12,1.22,3.53,3.53,0,0,0,.42,1.9,1.56,1.56,0,0,0,1.42.66,7.55,7.55,0,0,0,2-.24A8.41,8.41,0,0,0,400.89,544.47Z" transform="translate(-76.84 -74.91)" fill="#ec5242"/>
    <path d="M418.55,542.45a4.36,4.36,0,0,1-.38,1.9,4.81,4.81,0,0,1-1,1.4,8.07,8.07,0,0,1-.76.63,4.82,4.82,0,0,1-.94.53,5.59,5.59,0,0,1-1.17.36,7.41,7.41,0,0,1-1.46.13,10.44,10.44,0,0,1-2.69-.33,7.58,7.58,0,0,1-2.28-1l.87-2q.48.3,1,.6t1.14.54a8.14,8.14,0,0,0,1.23.4,5.52,5.52,0,0,0,1.3.15,6.23,6.23,0,0,0,1.26-.11,2.34,2.34,0,0,0,.89-.37,1.72,1.72,0,0,0,.57-.68,3,3,0,0,0,.22-1.29,1.52,1.52,0,0,0-.59-1.24,5.5,5.5,0,0,0-1.47-.83q-.88-.35-1.91-.69a10,10,0,0,1-1.91-.87,4.92,4.92,0,0,1-1.47-1.31,3.36,3.36,0,0,1-.59-2.05,3.09,3.09,0,0,1,.39-1.6,5.8,5.8,0,0,1,1-1.23,5.54,5.54,0,0,1,1.72-1.1,5.61,5.61,0,0,1,2.15-.4,17.31,17.31,0,0,1,2,.12q1,.12,2,.27l-.44,2.15-1-.22-1.07-.2-1.06-.14a8.73,8.73,0,0,0-.9-.05,7.07,7.07,0,0,0-1.35.1,1.84,1.84,0,0,0-.74.29,1,1,0,0,0-.36.49,2.39,2.39,0,0,0-.12.84,1.34,1.34,0,0,0,.59,1.13,6.39,6.39,0,0,0,1.48.78q.89.35,1.91.71a10.54,10.54,0,0,1,1.91.89,5,5,0,0,1,1.48,1.32A3.33,3.33,0,0,1,418.55,542.45Z" transform="translate(-76.84 -74.91)" fill="#ec5242"/>
    <path d="M423.48,543.45l2.09,2.06-2.09,2.06-2.06-2.06Z" transform="translate(-76.84 -74.91)" fill="#ec5242"/>
    <path d="M146.77,576.78V556.25l-6.84-.11.22-1.61h16.49l-.22,1.54-6.63.17v20.53Z" transform="translate(-76.84 -74.91)" fill="#ec5242"/>
    <path d="M165.11,564.26l-1.13-.1c-.42,0-.82-.06-1.2-.06a2.53,2.53,0,0,0-.71.09,2,2,0,0,0-.56.27,4,4,0,0,0-.53.44l-.61.58v11.3h-2.93V561.92h2.45l.41,2.32h0l.5-.62c.17-.22.35-.44.53-.64a6.11,6.11,0,0,1,.58-.57,2.61,2.61,0,0,1,.65-.41,4.34,4.34,0,0,1,1.33-.34,15.77,15.77,0,0,1,1.63-.08Z" transform="translate(-76.84 -74.91)" fill="#ec5242"/>
    <path d="M179.77,575.23a6.2,6.2,0,0,0,1.54-.26v.93q-.7.37-1.52.72a4.45,4.45,0,0,1-1.74.35,2.2,2.2,0,0,1-.89-.16,1.72,1.72,0,0,1-.61-.43,2.47,2.47,0,0,1-.39-.6,5.94,5.94,0,0,1-.26-.65l-1.09.72a8.59,8.59,0,0,1-1.1.62,6.69,6.69,0,0,1-1.23.43,6,6,0,0,1-1.46.16,4,4,0,0,1-2.88-1,4,4,0,0,1-1.05-3.05,5.26,5.26,0,0,1,.32-1.9,3.19,3.19,0,0,1,1-1.37,4.74,4.74,0,0,1,1.8-.84,12.56,12.56,0,0,1,2.71-.33l2.67-.09v-2.63a2.73,2.73,0,0,0-.5-1.81,2.12,2.12,0,0,0-1.67-.58,8.46,8.46,0,0,0-2.06.32,17,17,0,0,0-2.39.81l-.52-1.39,1.47-.58q.77-.29,1.57-.52a15.74,15.74,0,0,1,1.63-.37,9.75,9.75,0,0,1,1.63-.14,6,6,0,0,1,1.6.2,2.76,2.76,0,0,1,1.2.66,2.91,2.91,0,0,1,.74,1.24,6.25,6.25,0,0,1,.25,1.9v7.1Q178.55,575.23,179.77,575.23Zm-4.06-1.11q0-.11,0-1.25t0-3.23a15.87,15.87,0,0,0-3.58.3,3.52,3.52,0,0,0-1.5.61,1.75,1.75,0,0,0-.38.8,5.51,5.51,0,0,0-.12,1.22,3.54,3.54,0,0,0,.42,1.9,1.56,1.56,0,0,0,1.42.66,7.54,7.54,0,0,0,2-.24A8.4,8.4,0,0,0,175.71,574.13Z" transform="translate(-76.84 -74.91)" fill="#ec5242"/>
    <path d="M194.37,576.78V566.44a6.14,6.14,0,0,0-.09-1,2.32,2.32,0,0,0-.36-.91,2.06,2.06,0,0,0-.77-.66,2.94,2.94,0,0,0-1.35-.26,5.71,5.71,0,0,0-1.16.13q-.62.13-1.25.33a11.13,11.13,0,0,0-1.22.46q-.59.26-1.06.52v11.77h-2.93V561.92h2.45l.41,1.74h0l1.16-.64a15.27,15.27,0,0,1,1.42-.67,12.25,12.25,0,0,1,1.59-.53,6.55,6.55,0,0,1,1.67-.22,5.48,5.48,0,0,1,1.76.27,3.65,3.65,0,0,1,1.38.83,3.84,3.84,0,0,1,.9,1.37,5.17,5.17,0,0,1,.33,1.92v10.8Z" transform="translate(-76.84 -74.91)" fill="#ec5242"/>
    <path d="M211.64,572.11a4.36,4.36,0,0,1-.38,1.9,4.83,4.83,0,0,1-1,1.4,8.25,8.25,0,0,1-.76.63,4.8,4.8,0,0,1-.93.53,5.63,5.63,0,0,1-1.17.36,7.42,7.42,0,0,1-1.46.13,10.44,10.44,0,0,1-2.69-.33,7.58,7.58,0,0,1-2.28-1l.87-2q.48.3,1,.6t1.14.54a8.16,8.16,0,0,0,1.23.4,5.52,5.52,0,0,0,1.3.15,6.24,6.24,0,0,0,1.26-.11,2.34,2.34,0,0,0,.89-.37,1.72,1.72,0,0,0,.56-.68,3,3,0,0,0,.22-1.29,1.52,1.52,0,0,0-.59-1.24,5.52,5.52,0,0,0-1.47-.83q-.88-.35-1.91-.69a10,10,0,0,1-1.91-.87A4.91,4.91,0,0,1,202.1,568a3.36,3.36,0,0,1-.59-2.05,3.09,3.09,0,0,1,.39-1.6,5.78,5.78,0,0,1,1-1.23,5.53,5.53,0,0,1,3.87-1.5,17.28,17.28,0,0,1,2,.12q1,.12,2,.27l-.43,2.15-1-.22-1.07-.2-1.06-.14a8.72,8.72,0,0,0-.9-.05,7.05,7.05,0,0,0-1.35.1,1.84,1.84,0,0,0-.74.29,1,1,0,0,0-.36.49,2.39,2.39,0,0,0-.12.84,1.34,1.34,0,0,0,.59,1.13,6.38,6.38,0,0,0,1.48.78q.89.35,1.91.71a10.59,10.59,0,0,1,1.91.89,5,5,0,0,1,1.48,1.32A3.33,3.33,0,0,1,211.64,572.11Z" transform="translate(-76.84 -74.91)" fill="#ec5242"/>
    <path d="M223.54,554.29a7.34,7.34,0,0,0-1.1-.14q-.58,0-1.07,0a8.67,8.67,0,0,0-1,.06,1.16,1.16,0,0,0-1.14,1,6.3,6.3,0,0,0-.18,1.05q-.07.63-.1,1.44t0,1.75v2.52h3.71l-.22,1.39-1.24.09-1.13.08-1.13.05v13.25H216V563.52h-1.46l-1,0,.22-1,.89-.19.75-.15.62-.11v-2.69a7.18,7.18,0,0,1,.54-2.73,8.77,8.77,0,0,1,1.42-2.38,7.43,7.43,0,0,1,2-1.68,4.49,4.49,0,0,1,2.25-.64l1,0q.54,0,.93.06Z" transform="translate(-76.84 -74.91)" fill="#ec5242"/>
    <path d="M232,577.06a7,7,0,0,1-5.36-2,8.07,8.07,0,0,1-1.86-5.75,10.7,10.7,0,0,1,.46-3.23,6.45,6.45,0,0,1,1.37-2.44,6.09,6.09,0,0,1,2.26-1.54,8.34,8.34,0,0,1,3.13-.54,8.75,8.75,0,0,1,3.11.51,5.84,5.84,0,0,1,2.26,1.5,6.34,6.34,0,0,1,1.37,2.42,10.81,10.81,0,0,1,.46,3.28,10.64,10.64,0,0,1-.46,3.24,6.54,6.54,0,0,1-1.37,2.44,5.93,5.93,0,0,1-2.26,1.54A8.4,8.4,0,0,1,232,577.06Zm-4.11-7.73a14.51,14.51,0,0,0,.23,2.78,5.26,5.26,0,0,0,.72,1.89,2.94,2.94,0,0,0,1.26,1.09,4.49,4.49,0,0,0,1.86.35,6,6,0,0,0,1.54-.17,3.92,3.92,0,0,0,1.3-.65,3,3,0,0,0,1-2,18.19,18.19,0,0,0,.26-3.29,8.64,8.64,0,0,0-1-4.64,3.42,3.42,0,0,0-3.07-1.47,6.32,6.32,0,0,0-1.55.17,3.84,3.84,0,0,0-1.29.61,1.88,1.88,0,0,0-.61.79,6.69,6.69,0,0,0-.4,1.24,10.53,10.53,0,0,0-.23,1.55Q227.87,568.46,227.87,569.33Z" transform="translate(-76.84 -74.91)" fill="#ec5242"/>
    <path d="M251.2,564.26l-1.13-.1c-.42,0-.82-.06-1.2-.06a2.53,2.53,0,0,0-.71.09,2,2,0,0,0-.56.27,4,4,0,0,0-.53.44l-.61.58v11.3h-2.93V561.92H246l.41,2.32h0l.5-.62c.17-.22.35-.44.53-.64a6.11,6.11,0,0,1,.58-.57,2.61,2.61,0,0,1,.65-.41,4.34,4.34,0,0,1,1.33-.34,15.77,15.77,0,0,1,1.63-.08Z" transform="translate(-76.84 -74.91)" fill="#ec5242"/>
    <path d="M264.3,576.78V566.44a7.07,7.07,0,0,0-.08-1,2.4,2.4,0,0,0-.33-.91,2,2,0,0,0-.71-.66,2.45,2.45,0,0,0-1.22-.26,4.78,4.78,0,0,0-1.06.13,11.11,11.11,0,0,0-1.13.33,10.52,10.52,0,0,0-1.11.46q-.54.26-1,.52v11.77h-2.93V561.92h2.45l.43,1.74,1.08-.64a13.57,13.57,0,0,1,1.34-.67,10.84,10.84,0,0,1,1.51-.53,5.94,5.94,0,0,1,1.57-.22,4.39,4.39,0,0,1,2.25.56,3.45,3.45,0,0,1,1.44,1.72l.35-.22,1.08-.64a13.57,13.57,0,0,1,1.34-.67,10.84,10.84,0,0,1,1.51-.53,5.94,5.94,0,0,1,1.57-.22,4.79,4.79,0,0,1,1.64.27,3.42,3.42,0,0,1,1.29.83,3.84,3.84,0,0,1,.85,1.37,5.51,5.51,0,0,1,.3,1.92v10.8h-2.93V566.44a7,7,0,0,0-.08-1,2.38,2.38,0,0,0-.33-.91,2,2,0,0,0-.71-.66,2.45,2.45,0,0,0-1.22-.26,4.57,4.57,0,0,0-1.08.14,11.71,11.71,0,0,0-1.15.35q-.58.21-1.13.47a10.81,10.81,0,0,0-1,.52,6.57,6.57,0,0,1,.07.93v10.8Z" transform="translate(-76.84 -74.91)" fill="#ec5242"/>
    <path d="M293.45,575.23A6.2,6.2,0,0,0,295,575v.93q-.7.37-1.52.72a4.45,4.45,0,0,1-1.74.35,2.19,2.19,0,0,1-.89-.16,1.74,1.74,0,0,1-.61-.43,2.5,2.5,0,0,1-.39-.6,6.33,6.33,0,0,1-.26-.65l-1.09.72a8.71,8.71,0,0,1-1.1.62,6.68,6.68,0,0,1-1.23.43,6,6,0,0,1-1.46.16,4,4,0,0,1-2.88-1,4,4,0,0,1-1.05-3.05,5.24,5.24,0,0,1,.31-1.9,3.2,3.2,0,0,1,1-1.37,4.74,4.74,0,0,1,1.8-.84,12.55,12.55,0,0,1,2.72-.33l2.67-.09v-2.63a2.72,2.72,0,0,0-.5-1.81,2.11,2.11,0,0,0-1.67-.58,8.45,8.45,0,0,0-2.06.32,17,17,0,0,0-2.39.81l-.52-1.39,1.47-.58q.77-.29,1.57-.52a15.73,15.73,0,0,1,1.63-.37,9.75,9.75,0,0,1,1.63-.14,6,6,0,0,1,1.6.2,2.76,2.76,0,0,1,1.19.66,2.9,2.9,0,0,1,.74,1.24,6.25,6.25,0,0,1,.25,1.9v7.1Q292.23,575.23,293.45,575.23Zm-4.06-1.11q0-.11,0-1.25t0-3.23a15.86,15.86,0,0,0-3.58.3,3.52,3.52,0,0,0-1.5.61,1.75,1.75,0,0,0-.38.8,5.54,5.54,0,0,0-.12,1.22,3.53,3.53,0,0,0,.42,1.9,1.56,1.56,0,0,0,1.42.66,7.55,7.55,0,0,0,2-.24A8.41,8.41,0,0,0,289.39,574.13Z" transform="translate(-76.84 -74.91)" fill="#ec5242"/>
    <path d="M307.4,576.78V566.44a6.91,6.91,0,0,0-.08-1,2.38,2.38,0,0,0-.33-.91,2,2,0,0,0-.71-.66,2.45,2.45,0,0,0-1.22-.26,4.78,4.78,0,0,0-1.06.13,11.16,11.16,0,0,0-1.13.33,10.46,10.46,0,0,0-1.11.46q-.54.26-1,.52v11.77h-2.93V561.92h2.45l.44,1.74,1.07-.64a13.64,13.64,0,0,1,1.34-.67,10.87,10.87,0,0,1,1.51-.53,5.94,5.94,0,0,1,1.57-.22,4.39,4.39,0,0,1,2.25.56,3.44,3.44,0,0,1,1.44,1.72l.35-.22,1.07-.64a13.66,13.66,0,0,1,1.34-.67,10.8,10.8,0,0,1,1.51-.53,5.94,5.94,0,0,1,1.57-.22,4.8,4.8,0,0,1,1.64.27,3.42,3.42,0,0,1,1.29.83,3.84,3.84,0,0,1,.85,1.37,5.51,5.51,0,0,1,.3,1.92v10.8h-2.93V566.44a7.07,7.07,0,0,0-.08-1,2.4,2.4,0,0,0-.33-.91,2,2,0,0,0-.71-.66,2.46,2.46,0,0,0-1.22-.26,4.58,4.58,0,0,0-1.07.14,11.71,11.71,0,0,0-1.15.35q-.58.21-1.13.47a10.83,10.83,0,0,0-1,.52,6.66,6.66,0,0,1,.06.93v10.8Z" transform="translate(-76.84 -74.91)" fill="#ec5242"/>
    <path d="M331.29,577.06a7,7,0,0,1-5.35-2,8.06,8.06,0,0,1-1.86-5.75,10.66,10.66,0,0,1,.46-3.23,6.45,6.45,0,0,1,1.37-2.44,6.1,6.1,0,0,1,2.26-1.54,8.34,8.34,0,0,1,3.13-.54,8.75,8.75,0,0,1,3.11.51,5.85,5.85,0,0,1,2.26,1.5A6.36,6.36,0,0,1,338,566a10.83,10.83,0,0,1,.46,3.28,10.66,10.66,0,0,1-.46,3.24,6.55,6.55,0,0,1-1.37,2.44,5.94,5.94,0,0,1-2.26,1.54A8.41,8.41,0,0,1,331.29,577.06Zm-4.11-7.73a14.56,14.56,0,0,0,.23,2.78,5.27,5.27,0,0,0,.72,1.89,3,3,0,0,0,1.26,1.09,4.5,4.5,0,0,0,1.86.35,6,6,0,0,0,1.54-.17,3.91,3.91,0,0,0,1.3-.65,3,3,0,0,0,1-2,18.13,18.13,0,0,0,.26-3.29,8.63,8.63,0,0,0-1-4.64,3.42,3.42,0,0,0-3.07-1.47,6.33,6.33,0,0,0-1.55.17,3.85,3.85,0,0,0-1.29.61,1.89,1.89,0,0,0-.61.79,6.78,6.78,0,0,0-.4,1.24,10.61,10.61,0,0,0-.23,1.55Q327.19,568.46,327.19,569.33Z" transform="translate(-76.84 -74.91)" fill="#ec5242"/>
    <path d="M352,572.11a4.36,4.36,0,0,1-.38,1.9,4.81,4.81,0,0,1-1,1.4,8.07,8.07,0,0,1-.76.63,4.82,4.82,0,0,1-.94.53,5.59,5.59,0,0,1-1.17.36,7.41,7.41,0,0,1-1.46.13,10.44,10.44,0,0,1-2.69-.33,7.58,7.58,0,0,1-2.28-1l.87-2q.48.3,1,.6t1.14.54a8.14,8.14,0,0,0,1.23.4,5.52,5.52,0,0,0,1.3.15,6.23,6.23,0,0,0,1.26-.11,2.34,2.34,0,0,0,.89-.37,1.72,1.72,0,0,0,.57-.68,3,3,0,0,0,.22-1.29,1.52,1.52,0,0,0-.59-1.24,5.5,5.5,0,0,0-1.47-.83q-.88-.35-1.91-.69a10,10,0,0,1-1.91-.87A4.92,4.92,0,0,1,342.5,568a3.36,3.36,0,0,1-.59-2.05,3.09,3.09,0,0,1,.39-1.6,5.8,5.8,0,0,1,1-1.23A5.54,5.54,0,0,1,345,562a5.61,5.61,0,0,1,2.15-.4,17.31,17.31,0,0,1,2,.12q1,.12,2,.27l-.44,2.15-1-.22-1.07-.2-1.06-.14a8.73,8.73,0,0,0-.9-.05,7.07,7.07,0,0,0-1.35.1,1.84,1.84,0,0,0-.74.29,1,1,0,0,0-.36.49,2.39,2.39,0,0,0-.12.84,1.34,1.34,0,0,0,.59,1.13,6.39,6.39,0,0,0,1.48.78q.89.35,1.91.71a10.54,10.54,0,0,1,1.91.89,5,5,0,0,1,1.48,1.32A3.33,3.33,0,0,1,352,572.11Z" transform="translate(-76.84 -74.91)" fill="#ec5242"/>
    <path d="M359.95,562.09l.44-.11.57-.12.6-.09.57,0a4.18,4.18,0,0,1,1.13.14,1.69,1.69,0,0,1,.85.55,8.44,8.44,0,0,1,1,1.84q.59,1.29,1.22,3t1.26,3.57q.63,1.89,1.15,3.63h.06a31.7,31.7,0,0,0,1.74-3.09,20.23,20.23,0,0,0,1.11-2.75,15.26,15.26,0,0,0,.58-2.52,17.87,17.87,0,0,0,.16-2.4,5.71,5.71,0,0,0-.06-.81,4.27,4.27,0,0,0-.15-.71l2.52-.54a4,4,0,0,1,.17.78,6.84,6.84,0,0,1,.07.91,11.82,11.82,0,0,1-.53,3.43,24.2,24.2,0,0,1-1.37,3.5,38.24,38.24,0,0,1-1.85,3.39q-1,1.65-2,3.13h-2.61q-.65-2.22-1.39-4.37t-1.43-3.93q-.7-1.78-1.3-3.07a10.39,10.39,0,0,0-1-1.79,1.86,1.86,0,0,0-.52-.47,1.68,1.68,0,0,0-.83-.16h-.2Z" transform="translate(-76.84 -74.91)" fill="#ec5242"/>
    <path d="M380.23,554.29l2,2-2,2-2-2Zm-1.43,22.48V561.92h2.93v14.86Z" transform="translate(-76.84 -74.91)" fill="#ec5242"/>
    <path d="M396.7,561.87c0-.22,0-.43,0-.65s0-.36,0-.55V552.4l2.91-.74v25.11h-1.93l-.8-1.39h-.07q-.46.33-1,.62a10.5,10.5,0,0,1-1,.53,6.17,6.17,0,0,1-1.14.38,5.63,5.63,0,0,1-1.28.14,7.12,7.12,0,0,1-2.35-.39,5.19,5.19,0,0,1-2-1.26,6.22,6.22,0,0,1-1.39-2.27,9.8,9.8,0,0,1-.52-3.4,10.74,10.74,0,0,1,.51-3.43,7,7,0,0,1,1.48-2.56,6.38,6.38,0,0,1,2.35-1.6,8.3,8.3,0,0,1,3.12-.55,14.42,14.42,0,0,1,1.52.09Zm-7.49,7.69a9.43,9.43,0,0,0,.29,2.52,4.75,4.75,0,0,0,.84,1.72,3.16,3.16,0,0,0,1.3,1,4.48,4.48,0,0,0,1.67.3,8.54,8.54,0,0,0,1.78-.18,8.66,8.66,0,0,0,1.54-.47v-11q-.69-.11-1.34-.16t-1.38-.05a9.91,9.91,0,0,0-1.92.17,3.06,3.06,0,0,0-1.36.56,2.77,2.77,0,0,0-.49.65,5.82,5.82,0,0,0-.47,1.12,10,10,0,0,0-.35,1.64A16.33,16.33,0,0,0,389.21,569.56Z" transform="translate(-76.84 -74.91)" fill="#ec5242"/>
    <path d="M416.4,575.23a6.2,6.2,0,0,0,1.54-.26v.93q-.7.37-1.52.72a4.45,4.45,0,0,1-1.74.35,2.19,2.19,0,0,1-.89-.16,1.74,1.74,0,0,1-.61-.43,2.5,2.5,0,0,1-.39-.6,6.33,6.33,0,0,1-.26-.65l-1.09.72a8.71,8.71,0,0,1-1.1.62,6.68,6.68,0,0,1-1.23.43,6,6,0,0,1-1.46.16,4,4,0,0,1-2.88-1,4,4,0,0,1-1.05-3.05,5.24,5.24,0,0,1,.31-1.9,3.2,3.2,0,0,1,1-1.37,4.74,4.74,0,0,1,1.8-.84,12.55,12.55,0,0,1,2.72-.33l2.67-.09v-2.63a2.72,2.72,0,0,0-.5-1.81,2.11,2.11,0,0,0-1.67-.58,8.45,8.45,0,0,0-2.06.32,17,17,0,0,0-2.39.81l-.52-1.39,1.47-.58q.77-.29,1.57-.52a15.73,15.73,0,0,1,1.63-.37,9.75,9.75,0,0,1,1.63-.14,6,6,0,0,1,1.6.2,2.76,2.76,0,0,1,1.19.66,2.9,2.9,0,0,1,.74,1.24,6.25,6.25,0,0,1,.25,1.9v7.1Q415.19,575.23,416.4,575.23Zm-4.06-1.11q0-.11,0-1.25t0-3.23a15.86,15.86,0,0,0-3.58.3,3.52,3.52,0,0,0-1.5.61,1.75,1.75,0,0,0-.38.8,5.54,5.54,0,0,0-.12,1.22,3.53,3.53,0,0,0,.42,1.9,1.56,1.56,0,0,0,1.42.66,7.55,7.55,0,0,0,2-.24A8.41,8.41,0,0,0,412.34,574.13Z" transform="translate(-76.84 -74.91)" fill="#ec5242"/>
    <path d="M430,572.11a4.36,4.36,0,0,1-.38,1.9,4.81,4.81,0,0,1-1,1.4,8.07,8.07,0,0,1-.76.63,4.82,4.82,0,0,1-.94.53,5.59,5.59,0,0,1-1.17.36,7.41,7.41,0,0,1-1.46.13,10.44,10.44,0,0,1-2.69-.33,7.58,7.58,0,0,1-2.28-1l.87-2q.48.3,1,.6t1.14.54a8.14,8.14,0,0,0,1.23.4,5.52,5.52,0,0,0,1.3.15,6.23,6.23,0,0,0,1.26-.11,2.34,2.34,0,0,0,.89-.37,1.72,1.72,0,0,0,.57-.68,3,3,0,0,0,.22-1.29,1.52,1.52,0,0,0-.59-1.24,5.5,5.5,0,0,0-1.47-.83q-.88-.35-1.91-.69a10,10,0,0,1-1.91-.87,4.92,4.92,0,0,1-1.47-1.31,3.36,3.36,0,0,1-.59-2.05,3.09,3.09,0,0,1,.39-1.6,5.8,5.8,0,0,1,1-1.23A5.54,5.54,0,0,1,423,562a5.61,5.61,0,0,1,2.15-.4,17.31,17.31,0,0,1,2,.12q1,.12,2,.27l-.44,2.15-1-.22-1.07-.2-1.06-.14a8.73,8.73,0,0,0-.9-.05,7.07,7.07,0,0,0-1.35.1,1.84,1.84,0,0,0-.74.29,1,1,0,0,0-.36.49,2.39,2.39,0,0,0-.12.84,1.34,1.34,0,0,0,.59,1.13,6.39,6.39,0,0,0,1.48.78q.89.35,1.91.71a10.54,10.54,0,0,1,1.91.89,5,5,0,0,1,1.48,1.32A3.33,3.33,0,0,1,430,572.11Z" transform="translate(-76.84 -74.91)" fill="#ec5242"/>
  </g>
  <line x1="359.19" y1="472.21" x2="393.11" y2="472.21" fill="#ec5242" stroke="#ec5242" stroke-miterlimit="10"/>
  <line x1="24.19" y1="472.21" x2="58.11" y2="472.21" fill="#ec5242" stroke="#ec5242" stroke-miterlimit="10"/>
</svg>
