<svg xmlns="http://www.w3.org/2000/svg" viewBox="0 0 970.09 308.52">
  <title>logo-latin-america</title>
  <path d="M184.37,352a150,150,0,1,1,150,150.14A149.67,149.67,0,0,1,184.37,352ZM269,322.34l.61-.47a10.08,10.08,0,0,1,1,1.32c1,1.8,1.85,3.7,2.95,5.44q3.87,6.16,7.93,12.21a24.51,24.51,0,0,1,4.46,11,5.26,5.26,0,0,0,2.22,3.35c5.08,3.17,10.25,6.22,15.53,9,1.36.72,3.53,1.13,4.81.55,2.92-1.34,5-.81,7.07,1.37a14.17,14.17,0,0,0,10.2,4.71,7.91,7.91,0,0,1,6.83,4.18,18,18,0,0,0,6.91,6.55c1.68.95,3.44,1.74,5.13,2.65,2.72,1.47,4.31,1.51,5.83-1.36.9-1.69,2.25-1.7,3.44-.23,2.77,3.41,4.54,11-.64,15.35a17.17,17.17,0,0,0-5,8.07,6.61,6.61,0,0,0,.27,4.1,3.58,3.58,0,0,1-.36,3.76c-2.16,3.07-2,4.64.54,7.36,1.22,1.3,2.67,2.4,3.8,3.76A11.73,11.73,0,0,1,355,429a19.51,19.51,0,0,0,12.49,13.38c3.61,1.39,3.91,2,3.17,5.77a64.68,64.68,0,0,1-14.24,29.79c-.92,1.08-2.19,2.21-2.41,3.47-.63,3.65-3.2,6-5.27,8.62a20.66,20.66,0,0,0-1.76,2.42,2.28,2.28,0,0,0,.7,3.21c1.76,1.3,5,.34,5.94-1.61a5.42,5.42,0,0,1,1.64-1.85c1.88-1.4,3.93-2.58,5.74-4.07,4.81-3.94,9.63-7.84,15.28-10.58a49,49,0,0,0,11.94-7.74c3.49-3.19,7.71-5.59,11.19-8.79a78.37,78.37,0,0,0,10.22-11.16,33.62,33.62,0,0,1,7.07-7.31,52.09,52.09,0,0,0,5.91-4.59,21.44,21.44,0,0,0,4-5.48c2.7-5.42,5.09-11,7.72-16.46,2.82-5.86,5.42-11.81,6.57-18.25.18-1-.23-2.75-.89-3.08a22.61,22.61,0,0,0-7.19-2.44,85,85,0,0,0-10.46,0c-3,0-3.79-.72-4.19-3.61a9.11,9.11,0,0,0-1-3.23,37.82,37.82,0,0,0-3.78-5.68,4,4,0,0,0-3.06-1.43c-4.28.9-7.8-.52-11.3-2.75a25.44,25.44,0,0,0-18-4c-3,.45-6.22.58-9-1.15a3.52,3.52,0,0,0-4.8.54c-2.51,2.33-5,4.68-7.4,7.12-1.31,1.33-2.7,1.9-4.41,1.12a7.39,7.39,0,0,0-6.38.14c-4,1.72-7.52-.55-7.85-5-.18-2.42-.17-4.85-.28-7.27a3,3,0,0,0-3.1-3.13c-1.64-.09-3.28-.1-4.92-.1-5.47,0-6.21-1.08-4.34-6.26.94-2.59,1.91-5.17,2.86-7.76-4.71-1.66-6.38-1.1-8.78,2.83-.37.61-.7,1.25-1.09,1.84-2.52,3.83-9.61,4-12.5.52-4.43-5.41-6.17-11.19-2.93-17.82a10.08,10.08,0,0,0,.41-1.21c1.72-5.13,5.67-7.44,10.94-6.46,2.27.42,4.56.76,6.85,1.14.46-3.39.7-3.61,3.82-3.51,1.5,0,3,.23,4.48.3,3.21.14,5.09,1.9,6.59,4.66a39.28,39.28,0,0,0,4.67,6.07c.83,1,1.54.58,1.76-.55a6.61,6.61,0,0,0,.15-2.73,60.34,60.34,0,0,0-2.21-7.36c-1.54-3.94-1.26-5.47,1.78-8.36a40.55,40.55,0,0,0,5-5.25,6,6,0,0,0,1.26-4.29c-.52-2.11-.52-3.76.9-5.42.35-.41.35-1.1.66-1.56,1.31-1.9,2.71-3.73,4-5.64.56-.82,1.37-1.81,1.3-2.66a5.17,5.17,0,0,1,2.6-5.23c1.93-1.23,3.47-.15,5,1.16l4.61-5.58a6.6,6.6,0,0,1-6.41-4.14c-1.66-3.38-2.69-3.55-5.71-1.34a4.25,4.25,0,0,1-1.61.35c.13-.57.06-1.43.41-1.67a34.4,34.4,0,0,1,5.28-3c1.34-.58,3-.53,4.35-1a4.92,4.92,0,0,0,3.49-4.67c.12-2.19-1.28-3.26-3-4.25-4.5-2.6-8.95-5.31-13.4-8-1-.58-1.86-1.25-2.85-1.92-.29.36-.49.56-.63.79-2.11,3.3-2.75,3.37-5.39.32-2.42-2.79-5.65-3.18-9-3a2.45,2.45,0,0,0-2.42,3.3,19.2,19.2,0,0,0,2.94,5.76c1.33,1.76,2,3.06.3,5-.64.72-.55,2.21-.56,3.35,0,.66.71,1.34.67,2-.05.89-.29,2.28-.84,2.5a3.36,3.36,0,0,1-2.75-.59,4.39,4.39,0,0,1-1.22-2.43c-.73-3.07-2.72-4.41-5.72-4.94a64.2,64.2,0,0,1-8.91-2.25c-3.52-1.17-5.44-4.85-3.69-7.61,2.43-3.82,5-7.67,9.17-10,3.23-1.81,3.39-4,.38-6.14-1-.7-2.44-1.19-2.87-2.14-1.41-3.14-4.11-3.61-7-4.11-3.88-.68-5.28.53-4.68,4.4a5.87,5.87,0,0,0,1.21,2.15c.45.65,1,1.22,1.52,1.82l-.27.77-5.35-.32c-1.68-.1-3.68-.83-5-.17-3.18,1.63-5.53.34-7.76-1.44-4.26-3.38-8.82-5.51-14.4-4.49-1.6.29-2.66-.4-3.7-1.57a58.76,58.76,0,0,0-5.17-5.11c-2.28-2-8.28-2-9.74.13-1.84,2.75-3.82,4.19-7.12,2.47a12.07,12.07,0,0,0-.57,1.67c-.5,3.05-.51,3-3.62,3.18a4.84,4.84,0,0,0-2.91,1.08,22.43,22.43,0,0,0-3.66,4.64c-.57,1-.49,2.35-.78,4l-9.15,2.5-.12.63a6.72,6.72,0,0,0,2.44.63c3.24-.49,6.46-1.13,9.67-1.79a4.88,4.88,0,0,0,2.13-.94c1.8-1.53,3.53-2.79,5.78-.74.2.19.69.07,1,.09a5.28,5.28,0,0,1,4.61,2.7c3.09,5.69,5.53,11.54,4.78,18.3-.19,1.75.49,3.57.59,5.37s.46,3.9-.13,5.57c-1.41,4-3.29,7.89-5,11.79-3.29,7.4-2.31,14.32,2.29,20.83a37.13,37.13,0,0,1,6.23,14.21,35.06,35.06,0,0,0,5.71,13,29.25,29.25,0,0,0,3.55,3.68l.77-.51ZM378.37,234c1.69-3.34,1.16-4.73-2.27-6.14-2.1-.86-4.46-1.35-6.28-2.62-7.22-5-15.48-6.69-23.93-7.83a16.17,16.17,0,0,0-3.71.37l.94,2.71-3.18.91a35.56,35.56,0,0,1,.88,3.51c.54,3.76,1.64,4.65,5.34,5,8.4.73,15.74,3.68,21,10.63,3.09,4.06,7.34,6.46,11.92,8.39,1.59.66,3.11.71,4.2-.86s.56-2.95-.72-4.18c-1.49-1.43-2.33-3.27-1.69-5.23.57-1.75-.09-2.64-1.32-3.53A15.09,15.09,0,0,1,378.37,234Zm-27,9.82c-.48.67-.77,1.13-1.1,1.55-1.74,2.26-1.13,4.17,1.64,5,1.23.37,2.47.7,3.71,1,1,.27,2.17.9,3.08.67a6.28,6.28,0,0,0,3.09-2.07c.21-.26-.91-1.73-1.56-2.53a8.61,8.61,0,0,0-1.9-1.25l3.54-.21a6,6,0,0,0-4.24-4.81c-5.86-2-11.64-4.23-17.55-6.07A14.27,14.27,0,0,0,334,235a3.46,3.46,0,0,0-2.32,2.21,3,3,0,0,0,1.74,2.43c2.16.53,4.46.45,6.68.79,1.62.25,3.7.32,4.68,1.33a5.64,5.64,0,0,0,4.26,1.82C349.74,243.58,350.42,243.71,351.38,243.83Zm6.51,108.65c.85-.6,2.22-1,2.55-1.9.55-1.41-.91-1.76-2-2.18a13.47,13.47,0,0,1-1.83-1.09c-4.31-2.56-9.08-3.17-14-3.12-1.23,0-3.12,0-3,1.89s1.91,1.23,3.06,1.28c4.32.2,8.52.57,11.88,3.83C355.26,351.86,356.49,352,357.89,352.48ZM332.63,224.9l-1,5c2.3.37,4.43.58,6-1.16a7.66,7.66,0,0,0,1.44-6.86c-.12-.6-1.29-1.51-1.81-1.41-2.64.51-5.22,1.3-7.82,2l.06.73Z" transform="translate(-135.7 -201.68)" fill="#b9b9b9" stroke="#ec5242" stroke-miterlimit="10"/>
  <g>
    <path d="M269,322.34l8,21-.77.51a29.25,29.25,0,0,1-3.55-3.68,35.06,35.06,0,0,1-5.71-13,37.13,37.13,0,0,0-6.23-14.21c-4.6-6.51-5.58-13.43-2.29-20.83,1.74-3.91,3.61-7.77,5-11.79.59-1.67.24-3.71.13-5.57s-.79-3.63-.59-5.37c.75-6.75-1.69-12.61-4.78-18.3a5.28,5.28,0,0,0-4.61-2.7c-.36,0-.84.1-1-.09-2.25-2.06-4-.8-5.78.74a4.88,4.88,0,0,1-2.13.94c-3.21.66-6.43,1.3-9.67,1.79a6.72,6.72,0,0,1-2.44-.63l.12-.63,9.15-2.5c.29-1.63.21-3,.78-4a22.43,22.43,0,0,1,3.66-4.64,4.84,4.84,0,0,1,2.91-1.08c3.11-.19,3.12-.13,3.62-3.18a12.07,12.07,0,0,1,.57-1.67c3.29,1.71,5.28.27,7.12-2.47,1.46-2.17,7.46-2.11,9.74-.13a58.76,58.76,0,0,1,5.17,5.11c1,1.16,2.11,1.86,3.7,1.57,5.59-1,10.15,1.11,14.4,4.49,2.24,1.78,4.59,3.07,7.76,1.44,1.29-.66,3.29.07,5,.17l5.35.32.27-.77c-.51-.6-1.07-1.17-1.52-1.82a5.87,5.87,0,0,1-1.21-2.15c-.61-3.87.79-5.08,4.68-4.4,2.87.5,5.57,1,7,4.11.43,1,1.88,1.44,2.87,2.14,3,2.15,2.85,4.33-.38,6.14-4.13,2.31-6.74,6.16-9.17,10-1.76,2.76.16,6.44,3.69,7.61a64.2,64.2,0,0,0,8.91,2.25c3,.53,5,1.88,5.72,4.94a4.39,4.39,0,0,0,1.22,2.43,3.36,3.36,0,0,0,2.75.59c.55-.22.79-1.61.84-2.5,0-.65-.68-1.33-.67-2,0-1.14-.08-2.62.56-3.35,1.73-2,1-3.25-.3-5a19.2,19.2,0,0,1-2.94-5.76,2.45,2.45,0,0,1,2.42-3.3c3.33-.16,6.56.23,9,3,2.64,3.05,3.28,3,5.39-.32.15-.23.34-.43.63-.79,1,.67,1.89,1.34,2.85,1.92,4.45,2.69,8.9,5.39,13.4,8,1.71,1,3.12,2.06,3,4.25a4.92,4.92,0,0,1-3.49,4.67c-1.4.49-3,.44-4.35,1a34.4,34.4,0,0,0-5.28,3c-.35.23-.29,1.09-.41,1.67a4.25,4.25,0,0,0,1.61-.35c3-2.21,4.05-2,5.71,1.34a6.6,6.6,0,0,0,6.41,4.14l-4.61,5.58c-1.48-1.31-3-2.39-5-1.16a5.17,5.17,0,0,0-2.6,5.23c.08.84-.74,1.83-1.3,2.66-1.29,1.91-2.69,3.74-4,5.64-.31.46-.31,1.15-.66,1.56-1.42,1.66-1.42,3.32-.9,5.42a6,6,0,0,1-1.26,4.29,40.55,40.55,0,0,1-5,5.25c-3,2.89-3.32,4.42-1.78,8.36a60.34,60.34,0,0,1,2.21,7.36,6.61,6.61,0,0,1-.15,2.73c-.22,1.13-.93,1.54-1.76.55a39.28,39.28,0,0,1-4.67-6.07c-1.5-2.76-3.38-4.52-6.59-4.66-1.5-.06-3-.25-4.48-.3-3.12-.1-3.36.12-3.82,3.51-2.28-.38-4.57-.72-6.85-1.14-5.27-1-9.22,1.33-10.94,6.46a10.08,10.08,0,0,1-.41,1.21c-3.23,6.64-1.5,12.41,2.93,17.82,2.89,3.53,10,3.31,12.5-.52.39-.6.72-1.23,1.09-1.84,2.4-3.92,4.07-4.49,8.78-2.83-1,2.59-1.93,5.17-2.86,7.76-1.87,5.18-1.13,6.24,4.34,6.26,1.64,0,3.29,0,4.92.1a3,3,0,0,1,3.1,3.13c.11,2.42.1,4.85.28,7.27.32,4.4,3.84,6.67,7.85,5a7.39,7.39,0,0,1,6.38-.14c1.7.78,3.1.21,4.41-1.12,2.39-2.45,4.89-4.79,7.4-7.12a3.52,3.52,0,0,1,4.8-.54c2.74,1.73,5.92,1.6,9,1.15a25.44,25.44,0,0,1,18,4c3.49,2.24,7,3.66,11.3,2.75a4,4,0,0,1,3.06,1.43,37.82,37.82,0,0,1,3.78,5.68,9.11,9.11,0,0,1,1,3.23c.39,2.89,1.22,3.65,4.19,3.61a85,85,0,0,1,10.46,0,22.61,22.61,0,0,1,7.19,2.44c.66.33,1.07,2.09.89,3.08-1.15,6.44-3.74,12.39-6.57,18.25-2.63,5.46-5,11-7.72,16.46a21.44,21.44,0,0,1-4,5.48,52.09,52.09,0,0,1-5.91,4.59,33.62,33.62,0,0,0-7.07,7.31A78.37,78.37,0,0,1,399.44,461c-3.48,3.2-7.7,5.6-11.19,8.79a49,49,0,0,1-11.94,7.74c-5.65,2.74-10.47,6.63-15.28,10.58-1.81,1.48-3.86,2.67-5.74,4.07a5.42,5.42,0,0,0-1.64,1.85c-.94,1.95-4.18,2.91-5.94,1.61a2.28,2.28,0,0,1-.7-3.21,20.66,20.66,0,0,1,1.76-2.42c2.08-2.67,4.64-5,5.27-8.62.22-1.26,1.49-2.39,2.41-3.47a64.68,64.68,0,0,0,14.24-29.79c.74-3.75.44-4.38-3.17-5.77A19.51,19.51,0,0,1,355,429,11.73,11.73,0,0,0,352.6,425c-1.13-1.36-2.58-2.47-3.8-3.76-2.57-2.72-2.71-4.29-.54-7.36a3.58,3.58,0,0,0,.36-3.76,6.61,6.61,0,0,1-.27-4.1,17.17,17.17,0,0,1,5-8.07c5.18-4.32,3.41-11.94.64-15.35-1.19-1.47-2.54-1.46-3.44.23-1.52,2.86-3.1,2.82-5.83,1.36-1.7-.91-3.46-1.71-5.13-2.65a18,18,0,0,1-6.91-6.55,7.91,7.91,0,0,0-6.83-4.18,14.17,14.17,0,0,1-10.2-4.71c-2.09-2.18-4.16-2.71-7.07-1.37-1.27.59-3.45.18-4.81-.55-5.28-2.82-10.45-5.87-15.53-9a5.26,5.26,0,0,1-2.22-3.35,24.51,24.51,0,0,0-4.46-11q-4.07-6-7.93-12.21c-1.09-1.74-1.94-3.64-2.95-5.44a10.08,10.08,0,0,0-1-1.32Z" transform="translate(-135.7 -201.68)" fill="#ec5242" stroke="#b9b9b9" stroke-miterlimit="10"/>
    <path d="M378.37,234a15.09,15.09,0,0,0,1.22,1.11c1.23.89,1.89,1.78,1.32,3.53-.64,2,.2,3.79,1.69,5.23,1.28,1.23,1.82,2.6.72,4.18s-2.62,1.52-4.2.86c-4.59-1.92-8.84-4.33-11.92-8.39-5.28-7-12.63-9.9-21-10.63-3.7-.32-4.8-1.22-5.34-5a35.56,35.56,0,0,0-.88-3.51l3.18-.91-.94-2.71a16.17,16.17,0,0,1,3.71-.37c8.44,1.15,16.71,2.78,23.93,7.83,1.82,1.27,4.18,1.76,6.28,2.62C379.53,229.27,380.06,230.66,378.37,234Z" transform="translate(-135.7 -201.68)" fill="#ec5242" stroke="#b9b9b9" stroke-miterlimit="10"/>
    <path d="M351.38,243.83c-1-.12-1.64-.24-2.32-.27a5.64,5.64,0,0,1-4.26-1.82c-1-1-3.05-1.08-4.68-1.33-2.22-.34-4.52-.27-6.68-.79a3,3,0,0,1-1.74-2.43A3.46,3.46,0,0,1,334,235a14.27,14.27,0,0,1,6.07.16c5.91,1.84,11.69,4.09,17.55,6.07a6,6,0,0,1,4.24,4.81l-3.54.21a8.61,8.61,0,0,1,1.9,1.25c.65.8,1.77,2.27,1.56,2.53a6.28,6.28,0,0,1-3.09,2.07c-.92.23-2.05-.4-3.08-.67-1.24-.33-2.48-.66-3.71-1-2.77-.84-3.39-2.75-1.64-5C350.6,245,350.9,244.5,351.38,243.83Z" transform="translate(-135.7 -201.68)" fill="#ec5242" stroke="#b9b9b9" stroke-miterlimit="10"/>
    <path d="M357.89,352.48c-1.4-.52-2.63-.62-3.31-1.28-3.37-3.26-7.57-3.63-11.88-3.83-1.15-.05-3,.66-3.06-1.28s1.81-1.87,3-1.89c4.87-.05,9.64.56,14,3.12a13.47,13.47,0,0,0,1.83,1.09c1.07.42,2.54.77,2,2.18C360.1,351.43,358.74,351.88,357.89,352.48Z" transform="translate(-135.7 -201.68)" fill="#ec5242" stroke="#b9b9b9" stroke-miterlimit="10"/>
    <path d="M332.63,224.9l-3.11-1.73-.06-.73c2.6-.69,5.18-1.48,7.82-2,.52-.1,1.69.81,1.81,1.41a7.66,7.66,0,0,1-1.44,6.86c-1.54,1.74-3.67,1.53-6,1.16Z" transform="translate(-135.7 -201.68)" fill="#ec5242" stroke="#b9b9b9" stroke-miterlimit="10"/>
  </g>
  <g>
    <text transform="translate(363.3 192.26)" font-size="100" fill="#272a31" font-family="PoplarStd, Poplar Std">Environment <tspan x="402.49" y="0" letter-spacing="-0.01em">A</tspan><tspan x="450.49" y="0">ction</tspan></text>
    <text transform="translate(363.3 281.02)" font-size="100" fill="#272a31" font-family="PoplarStd, Poplar Std">Latin America</text>
  </g>
  <g>
    <path d="M490.16,293c-.13,1.5-.13,2.77-.37,4-1.25,6.47-5.55,10.43-12.11,11.19-1.54.18-3.09.21-4.64.33-.91.07-1.36-.3-1.14-1.21,1.14-4.77,2.56-9.42,6-13.14,2.58-2.81,5.74-4.21,9.64-3.48a14.17,14.17,0,0,0,1.49.08c-.48-.73-.77-1.24-1.13-1.71a35.93,35.93,0,0,0-20.8-13.52c-4.43-1.09-8.41-.16-12.44.94a23.12,23.12,0,0,0-15.29,18.23,41,41,0,0,0,.3,6.53,1.82,1.82,0,0,1-.32,1.3c-2.22-5.13-1.85-10.22.53-15.54-4.14,1-7.92,1.37-11.27-1.28a16.65,16.65,0,0,1-5.31-8.26,11.45,11.45,0,0,1,2.06-.37,66.44,66.44,0,0,1,9.25.28,8.5,8.5,0,0,1,7.11,6.29c.51-.59.85-1,1.18-1.36a21,21,0,0,1,7.74-6.13,28.06,28.06,0,0,1,22.66-.43,33.48,33.48,0,0,1,11,7,38.56,38.56,0,0,1,8.16,10.66c1.89,4,3.37,8.17,4.87,12.33a45,45,0,0,1,1.23,5.75c2.8-5.3,6.33-9.24,12.38-9.36,4.35-.09,8.22,1.63,12,4.28-.76.91-1.43,1.78-2.16,2.59a29.11,29.11,0,0,1-9,7.34c-4.54,2.17-8.81,1.85-13.13-2.06.84,10.43-3.14,19-7.88,27.48,5.78-3,11.56-4.67,17.67-1.48,4.72,2.47,7.64,6.57,10,11.6-2.23.53-4.31,1.1-6.41,1.51a28.11,28.11,0,0,1-12.24.19c-4.91-1.2-8.31-4-9.62-9a9.18,9.18,0,0,0-.56-1.22,118.25,118.25,0,0,1-18,22.18,201.86,201.86,0,0,1-22,18c4.31-1,8.35-.83,12,1.82a21.16,21.16,0,0,1,6.82,8.78c-2.25.52-4.33,1.13-6.45,1.47a22.52,22.52,0,0,1-9.39-.12c-4.07-1.07-6.81-3.43-7.86-7.6a9.11,9.11,0,0,0-.47-1.1,245.44,245.44,0,0,1-45.44,23c3.91.43,7.56,1.3,10.32,4.26a15.78,15.78,0,0,1,3.87,9.13,26.45,26.45,0,0,1-11.35-2.58c-4.78-2.33-6.38-5-6.57-6.08a10.37,10.37,0,0,1-.15-1.7c.1-.51.11-1,.2-1.82l-2.83.81c-2.2.65-4.4,1.31-6.61,1.94-.65.19-1.5.8-1.81-.42s.84-1,1.43-1.24c5.17-1.72,10.35-3.39,15.53-5.09a12.2,12.2,0,0,0,1.34-.59,18.93,18.93,0,0,1-5.64-11.77,17.74,17.74,0,0,1,1-7.36c1.91-5.24,6.2-9,11.4-12.28a41.64,41.64,0,0,1,3.75,11.17,38.27,38.27,0,0,1,.5,8,13.53,13.53,0,0,1-4.59,9.49,170.79,170.79,0,0,0,22.39-11c-4.55-4.35-7.68-9.09-6.09-15.48,1.15-4.64,4.07-8.15,7.92-11.33,4.12,7.22,8.48,14.1,4.7,22.77,7.17-2.13,35-24,38.62-30.44-6-1.06-11.61-2.77-14-9.16-1.66-4.4-1.09-8.8.26-13.31a6.56,6.56,0,0,1,1.28.38,98.9,98.9,0,0,1,9.72,5.55c4.56,3.27,6.89,7.7,5.11,13.79a3.9,3.9,0,0,0,.68-.46c5.85-7.35,11.32-14.93,14.94-23.68a29.46,29.46,0,0,0,2.1-5.32,46.37,46.37,0,0,0,.66-7.61,47.59,47.59,0,0,0-5.66-23.75c-.17-.33-.35-.66-.55-1A4.18,4.18,0,0,0,490.16,293Z" transform="translate(-135.7 -201.68)" fill="#146b71" stroke="#197d7f" stroke-miterlimit="10"/>
    <path d="M169.22,335.9c13.71,21.8,36,36.33,61.92,48.75a28.81,28.81,0,0,1-3.31.18,15.39,15.39,0,0,0-12.09,4.1c-5.62,5-7.61,11.5-9.58,18-.14.45,1.13,1.78,1.8,1.85,5.36.59,10.86,1.61,16.06,1.29,7.2-.45,11.57-4.22,13.14-9.67,1.11-3.84,1.58-7.84,2.39-12.05,48.55,19.94,99.93,24.35,151.76,25.75l.62-1.51c-.57,0-6.13-.05-9.87-.32-2.44-.18-2-.3-3.13-.29s-2,.14-2.86-.39a3.59,3.59,0,0,1-.91-.92c-1.24-1.84,0-4.52.34-6.22,1.29-6.14-5.72-13.21-10.64-18.08-1-1-1.86-1.77-2.38-2.23a7.61,7.61,0,0,0-1.44,2.16,38.78,38.78,0,0,0-1.44,7.87,13.6,13.6,0,0,0,.84,5.18c2.12,5.63,7.61,8.27,10.18,9.48A25.26,25.26,0,0,0,373.9,410l-.18,1.14L317,406.62l-.36-1.15c.79-.49,1.56-1,2.36-1.46,6.86-4,9.14-9.58,7.08-16.49s-12.24-18.58-20.34-23.26c-6.85,6-11.91,12.68-10.32,21.58,1.63,9.11,10.39,14.37,19.37,19.54a258.86,258.86,0,0,1-58.14-13.85c5.79-1.22,9.54-3.92,11.73-8.11,2.69-5.15,2.91-10.7,2.75-16.32,0-.45-1-1.31-1.63-1.41-8.2-1.3-20,3.66-21.84,9.83-1,3.41-.18,7.29-.16,11a16.2,16.2,0,0,0,.34,2,210.57,210.57,0,0,1-29.78-13.32c.63-.35.88-.63,1.14-.61,7.7.39,11.6-3.09,13.54-8.19a24,24,0,0,0,1.39-13.44c-16-.7-21.68,5-19.7,20.23-12.27-6.83-22.52-14.52-30.64-24.14.67.21,1.34.4,2,.62,5.8,1.93,11.29,2,16.6-.12,6.33-2.54,15.23-9.85,18.45-15.59-8-4.22-16.28-7.1-25.47-5.47-9.6,1.7-13.23,8-16.41,14.55-11.85-8-15.86-37.1-6.1-47.21-1.09,4.58-.34,8.64,3.77,11.61a71.16,71.16,0,0,0,12.83,7.12c3.47,1.53,7.46,2.23,11.69,3.43,1.21-6.54,1.21-12.66-4.2-18.35-5.64-5.92-13.84-6.39-23.1-7.29,2.79-2.53,4.77-4.75,7.26-6.52,7.56-5.37,18.84-5.61,28-.68a4.23,4.23,0,0,1,2,2.62c1.34,8,5.62,12.13,15.8,13.76,6.31,1,12.74,1.13,19.2,1.66-1.18-12-11.42-21.12-24.73-19.35-5.82.77-10.64.62-15.52-2.66a22.56,22.56,0,0,0-4.63-1.86c2.39-2.86,5.45-5.45,7-8.59,1.9-4,2.65-8.37,3.61-12.64.13-.59-1.38-2.14-2.12-2.19-8-.55-15.55.15-20.53,5.19s-4.61,11-2.45,17.2c.08.23.47.42,1,.88-8.23,2.63-13.33,7.62-17.92,14.06-.7-9.67-8.88-13.08-17.63-16.05-1.85-.63-3.78-1.08-5.66-1.64s-2.84-.07-3.17,1.56c-2.23,11.09,5.9,18.88,21.06,20.08l3,.2c-4.4,10.26-5.56,20.68-1.06,32.31-10.15-6.88-20.07-5.69-30.06-4.6,1.31,7,8.44,13.83,15.62,15.2C158.19,341.42,167.19,339.39,169.22,335.9Z" transform="translate(-135.7 -201.68)" fill="#146b71" stroke="#197d7f" stroke-miterlimit="10"/>
  </g>
</svg>
