<svg xmlns="http://www.w3.org/2000/svg" viewBox="0 0 282.55 150">
  <title>breathed</title>
  <path d="M-13.53,141.13c-.86,0-2.11-.37-2.53.06-7.08,7.24-16.27,6.49-24.94,5.91-29-2-52.5-22.34-59.41-50.74C-110.2,56.21-80.23,16.56-39,15.21c1.31,0,2.67,1.49,4,2.29-1.23.89-2.41,2.46-3.71,2.58-11.35,1-22,4-31.45,10.53-.73.51-1.45,1-2.13,1.61-.2.17-.23.53-.4,1,3.82,2.76,8.13,2.46,12.37,1.68,7.53-1.38,15-3.11,22.52-4.49C-26,28.24-14.59,28.48-3.82,36.55a36.37,36.37,0,0,0-7.6-17.23C-22.87,4.22-46.14-2.22-63,5.07c-7.69,3.32-13,8.76-15.31,17-.4,1.41-2.26,2.42-3.44,3.61-.41-1.69-1.5-3.56-1.12-5C-79.81,8.74-71.52,1.85-60.06-1-34.7-7.25-4.13,5.27,1.62,37a25.57,25.57,0,0,1,.47,5.79,16.89,16.89,0,0,1-1.19,4c-1.36-.65-3.15-.94-4-2-6.1-7.58-14-11.11-23.58-10.38-6.81.52-13.55,1.91-20.3,3-4.56.73-9.09,1.59-13.63,2.45A21.22,21.22,0,0,1-77.2,36.55c-24.55,19.23-26.5,63.9-2.84,86.35-1.15-2.72-1.81-4.35-2.52-6-12.7-28.7,3.17-62.05,33.34-70.05A50.73,50.73,0,0,1,14.74,98c-.57,15.74-7.16,28.45-19.31,38.27-2.34,1.89-5.33,3-8,4.45Zm1.36-69.7c2.21-2.27,2.8.11,3.09,1.36,1.13,4.91,2,9.89,2.95,14.84.22,1.1.3,2.8,1,3.15,4.92,2.51,10,4.74,15,7.08C11.8,78-3.91,57.67-18.42,54.11c2.33,4.31,7.49,7.76,3.78,13.51-3.16-4.09-6-8.46-9.59-12.17-2.27-2.37-5.56-3.76-9.36-6.22V86.31L-10.52,89c-.93-4.75-1.92-8.93-2.5-13.17-.2-1.46.64-3.05,1-4.59ZM-33.5,141.62l1.6,1.26c3.44-2.87,7.51-5.26,10.21-8.71,8.51-10.89,11.07-23.8,11.12-37.31,0-1-1.15-2.63-2-2.77-6.93-1.18-13.9-2.07-21-3.07ZM-38.67,91c-7.26,1-14,1.87-20.69,3-.93.16-2.26,2-2.22,3.06.52,14.09,3.05,27.6,12.53,38.8a16.65,16.65,0,0,0,10.39,6.17Zm.11-4.72V50.68C-50.1,51.76-63.48,75.55-60.34,88.91ZM-81.68,98.36c2-1.21,3.69-2.91,5.72-3.4,8.12-2,10.79-7.17,11.5-15.17.85-9.52,5.19-18.1,11.39-26.3C-70.58,59.5-84.25,80.34-81.68,98.36Zm62.86,40.22c12.47-3.35,27.37-20.77,27.86-32a3.65,3.65,0,0,0-.86-2.39c-3.69-4-8.26-6.47-14-8.18C-6,111.58-9,125.78-18.82,138.58ZM-66.38,95.29l-11.8,6.81c-3,1.73-3.23,4.18-2.23,7.25,4,12.16,11.34,21.5,22.6,27.68a39,39,0,0,0,3.69,1.57C-63.06,125.69-65.95,111.45-66.38,95.29Z" transform="translate(102.28 2.55)" fill="#a3a3a3"/>
  <g>
    <path d="M42.22,103.39H34.77L30.3,96q-.5-.84-1-1.51a8.42,8.42,0,0,0-.93-1.13,3.73,3.73,0,0,0-1-.72,2.5,2.5,0,0,0-1.11-.25H24.56v11H18.07V74.61H28.35q10.48,0,10.48,7.83a8.11,8.11,0,0,1-.46,2.78,7.73,7.73,0,0,1-1.3,2.3,8.27,8.27,0,0,1-2,1.77,10.51,10.51,0,0,1-2.66,1.16v.08a4.13,4.13,0,0,1,1.24.65,8.92,8.92,0,0,1,1.16,1.05,14.76,14.76,0,0,1,1.07,1.29q.51.69.93,1.35ZM24.56,79.47v8h2.81a4.66,4.66,0,0,0,3.35-1.2,4,4,0,0,0,1.28-3q0-3.77-4.52-3.77Z" transform="translate(102.28 2.55)" fill="#9a9a9a"/>
    <path d="M62.17,103.39H44.91V74.61h16.6v5.28H51.39v6.4h9.41v5.26H51.39v6.58H62.17Z" transform="translate(102.28 2.55)" fill="#9a9a9a"/>
    <path d="M65.47,102.29V95.87a12.34,12.34,0,0,0,3.79,2.2,12.19,12.19,0,0,0,4.14.73,9.16,9.16,0,0,0,2.14-.22A5,5,0,0,0,77.06,98,2.67,2.67,0,0,0,78,97a2.3,2.3,0,0,0,.3-1.15,2.5,2.5,0,0,0-.48-1.51,5.19,5.19,0,0,0-1.31-1.22,13.81,13.81,0,0,0-2-1.08Q73.35,91.55,72,91a12.59,12.59,0,0,1-5-3.43,7.49,7.49,0,0,1-1.66-4.9,7.8,7.8,0,0,1,.9-3.86,7.67,7.67,0,0,1,2.46-2.66,11,11,0,0,1,3.6-1.54,18.52,18.52,0,0,1,4.34-.49,26.08,26.08,0,0,1,4,.27,15.7,15.7,0,0,1,3.2.83v6a9.73,9.73,0,0,0-1.58-.88,12.58,12.58,0,0,0-1.76-.63,13.43,13.43,0,0,0-1.8-.37,12.72,12.72,0,0,0-1.7-.12,8.84,8.84,0,0,0-2,.21,5.15,5.15,0,0,0-1.53.59,3,3,0,0,0-1,.91,2.16,2.16,0,0,0-.34,1.19,2.28,2.28,0,0,0,.38,1.29,4.36,4.36,0,0,0,1.08,1.08,11.46,11.46,0,0,0,1.71,1q1,.49,2.27,1a25.3,25.3,0,0,1,3.1,1.54,11,11,0,0,1,2.36,1.84,7.17,7.17,0,0,1,1.51,2.34,9.34,9.34,0,0,1-.39,7.11A7.41,7.41,0,0,1,81.71,102a10.74,10.74,0,0,1-3.64,1.46,21.08,21.08,0,0,1-4.39.44,24.4,24.4,0,0,1-4.51-.4A13.59,13.59,0,0,1,65.47,102.29Z" transform="translate(102.28 2.55)" fill="#9a9a9a"/>
    <path d="M96.32,93.48v9.92H89.84V74.61H100q10.88,0,10.88,9.17a8.8,8.8,0,0,1-3.12,7,12.37,12.37,0,0,1-8.34,2.68Zm0-13.89v9h2.55Q104,88.56,104,84t-5.18-4.44Z" transform="translate(102.28 2.55)" fill="#9a9a9a"/>
    <path d="M124,74.61v5h-2.41V98.38H124v5h-11.3v-5h2.41V79.63h-2.41v-5Z" transform="translate(102.28 2.55)" fill="#9a9a9a"/>
    <path d="M152.27,103.39h-7.45L140.34,96q-.5-.84-1-1.51a8.42,8.42,0,0,0-.93-1.13,3.73,3.73,0,0,0-1-.72,2.5,2.5,0,0,0-1.11-.25H134.6v11h-6.48V74.61h10.28q10.48,0,10.48,7.83a8.11,8.11,0,0,1-.46,2.78,7.73,7.73,0,0,1-1.3,2.3,8.27,8.27,0,0,1-2,1.77,10.51,10.51,0,0,1-2.66,1.16v.08a4.13,4.13,0,0,1,1.24.65,8.92,8.92,0,0,1,1.16,1.05,14.76,14.76,0,0,1,1.07,1.29q.51.69.93,1.35ZM134.6,79.47v8h2.81a4.66,4.66,0,0,0,3.35-1.2,4,4,0,0,0,1.28-3q0-3.77-4.52-3.77Z" transform="translate(102.28 2.55)" fill="#9a9a9a"/>
    <path d="M180.27,103.39H173.2l-2-6.4H160.92l-2,6.4h-7l10.48-28.79H170ZM169.67,92l-3.09-9.68a12.56,12.56,0,0,1-.48-2.59h-.16a11,11,0,0,1-.5,2.51L162.3,92Z" transform="translate(102.28 2.55)" fill="#9a9a9a"/>
  </g>
</svg>
