<svg xmlns="http://www.w3.org/2000/svg" viewBox="0 0 264.64 150">
  <title>ecoideas</title>
  <g>
    <path d="M-16.46,101.26c1.52.29,2.73.43,3.88.75A21.23,21.23,0,0,1-.18,111.07a127.91,127.91,0,0,0,8.1,11.32c4.36,5.24,10,8.12,17,7.62a24.51,24.51,0,0,0,12.79-4.73c2.65-1.92,5-4.24,7.5-6.4a7.62,7.62,0,0,0,.75-1c-2.38,1-4.47,2-6.63,2.76C33,123,26.51,124,19.83,122.33c-4.27-1.06-7.81-3.19-9.87-7.27a27.19,27.19,0,0,1-1.07-2.89c1.73,0,3.27.08,4.8,0,4.67-.3,8.67-2.4,12.49-4.86q5.33-3.42,10.52-7.07A45.6,45.6,0,0,1,56.5,92.59a67.39,67.39,0,0,1,22.2.36c1.55.28,1.57.32,1.25,1.9a72,72,0,0,1-8,21.25,63.59,63.59,0,0,1-16.13,19.34c-11.16,8.73-23.75,12.09-37.72,9.44C10.86,143.5,5.2,139.19.36,133.79c-6.62-7.38-11-16.06-14.4-25.28C-14.87,106.23-15.58,103.9-16.46,101.26Z" transform="translate(16.46 4.24)" fill="#adadad"/>
    <path d="M19.15,108.43C30.14,86.06,27.36,65,13.8,45c2.43,1.75,4.83,3.55,7.31,5.23a32,32,0,0,0,10.07,4.3,11.41,11.41,0,0,0,5.7-.33c5.12-1.22,9.23-4.3,13.3-7.44,1-.74,1.87-1.52,2.81-2.28l.34.2a5.83,5.83,0,0,1-.47,1.19,57.45,57.45,0,0,0-7.34,15.34,56.94,56.94,0,0,0-1.6,7.28A29.75,29.75,0,0,0,45.23,84a15.27,15.27,0,0,0,5.84,7.42c-1.25.3-2.45.51-3.59.88-4.34,1.42-8,4.15-11.81,6.49C30.49,102,25.22,105,20,108.09A6.92,6.92,0,0,1,19.15,108.43ZM48.21,49.88l-.2-.14c-1.31.84-2.6,1.69-3.92,2.51a18.71,18.71,0,0,1-11.27,3.08,25.88,25.88,0,0,1-10.29-3.27L18,49.66c.91,1.76,1.66,3.29,2.47,4.79a60.33,60.33,0,0,1,5.11,13.81c.09.36.51.91.78.9,2.65,0,5.3-.21,8-.25,1,0,2.21-.81,3,1a19.94,19.94,0,0,0,1.47-2.08C40.55,64.46,42.25,61,44,57.62,45.38,55,46.81,52.46,48.21,49.88Z" transform="translate(16.46 4.24)" fill="#c1c1c1"/>
    <path d="M-10.3,20.76c1.88.91,3.6,1.89,5.43,2.58a49.14,49.14,0,0,0,6,1.72c2.5.59,5.06,1,7.56,1.58A27.83,27.83,0,0,1,18,30.48C22,33.28,24.44,37,23.92,42.12a32.09,32.09,0,0,1-1.08,5.16c-.39,1.42-.91,1.56-2,.63-1.7-1.38-3.35-2.82-5-4.24-2.71-2.29-5.43-4.56-8.12-6.88-1.81-1.57-3.57-3.2-5.56-4.71a8.5,8.5,0,0,0,.6,1.16c2.15,3,4.39,5.88,6.47,8.9,1.18,1.72,2.06,3.63,3.15,5.42s2.37,3.67,3.51,5.53c.7,1.14,1.29,2.35,2,3.66A17.56,17.56,0,0,1,11.1,57C5.26,56.26.33,53.74-3.13,48.9A29.43,29.43,0,0,1-8.28,36.8c-.84-4.81-1.37-9.67-2-14.52A12,12,0,0,1-10.3,20.76Zm13,14.71L3,35.11-9.11,23.63l-.34.22a41.2,41.2,0,0,0,2,12.85c.08.25.58.48.9.5,2.08.1,4.17.08,6.25.22,1.79.12,2.45-.45,2.24-2.23Zm11.47-6.09C7.27,26.55-.14,26.43-7,23.34c.25.46.28.6.37.67,1.92,1.51,3.8,3.09,5.8,4.5a6.16,6.16,0,0,0,2.62.87,25,25,0,0,0,2.59-.1c1.3,0,2.6.24,3.91.29,1.8.07,3.63-.72,5.42.16C13.7,29.75,13.8,29.65,14.21,29.38Z" transform="translate(16.46 4.24)" fill="#c1c1c1"/>
    <path d="M44.05,49a16.21,16.21,0,0,1-1.81-8.62c.31-5.5,3.76-8.82,8.31-11a48.63,48.63,0,0,1,8.61-2.88c3.13-.85,6.39-1.24,9.49-2.17a63.2,63.2,0,0,0,6.95-3l.91-.43c-.21,2.75-.28,5.31-.62,7.84a62.93,62.93,0,0,1-2.7,12.78c-1.78,5-4.37,9.46-9,12.42a22,22,0,0,1-14.11,3.38,5.26,5.26,0,0,1-1-.22,4,4,0,0,1-.62-.33,211.76,211.76,0,0,1,16.64-24.7C57.78,37.23,51.69,43.94,44.05,49ZM75.54,23.79l-.38-.15a11.39,11.39,0,0,0-.92.82c-1,1.15-2,2.38-3.11,3.48-2.19,2.22-4.45,4.37-6.66,6.58-.57.57-1.33,1.13-.75,2.16s1.31.93,2.28.84a40.91,40.91,0,0,1,4.9-.15c1.15,0,2.74-.84,3-1.89.49-2.31,1-4.62,1.33-7C75.44,27,75.44,25.37,75.54,23.79Zm-22,5,.12.33A9.57,9.57,0,0,1,55,29c2.9,0,5.8.18,8.69,0,1.55-.08,3.24.24,4.63-1.09s3.07-2.5,4.61-3.74a1.56,1.56,0,0,0,.27-.43C66.7,25.93,59.87,26.48,53.52,28.83Z" transform="translate(16.46 4.24)" fill="#c1c1c1"/>
    <path d="M39.93,9.65A31.67,31.67,0,0,1,46,19.47c1.45,3.95,1.27,7.71-1.33,11.15-1.22,1.62-2.55,3.16-3.86,4.72q-2.47,2.93-5,5.82a7.9,7.9,0,0,1-1.21.87C36,29.29,34.64,17,33,4.82l-.41,0a8.54,8.54,0,0,0-.26,1.08c-.34,3.19-.65,6.38-1,9.57a101.47,101.47,0,0,0,.15,24.23,3.16,3.16,0,0,1-.23,1,3.3,3.3,0,0,1-1-.41,57.65,57.65,0,0,1-10-10.68A9.14,9.14,0,0,1,19,22.28L20.48,22c.95-.18,1.89-.41,2.85-.51,1.26-.12,2.52-.15,3.79-.18a1.37,1.37,0,0,1,.92.3c.79.8,1.24.27,1.51-.41a10.85,10.85,0,0,0,.73-2.68c.58-5.19,1.11-10.38,1.64-15.57.17-1.66.29-3.33.44-5.08L30.43.75h0l2-5,2.73,6.89L33-.2a7.26,7.26,0,0,0,0,1c.46,3.77.9,7.53,1.42,11.29.46,3.34,1,6.67,1.56,10,.07.4.49,1,.79,1a29.18,29.18,0,0,0,5.92.13c1.29-.17,2.3-.52,2.94.93,0,0,.15,0,.47,0a16,16,0,0,0,0-1.8,16.31,16.31,0,0,0-2.27-6C42.55,14.15,41.22,11.91,39.93,9.65Z" transform="translate(16.46 4.24)" fill="#c1c1c1"/>
    <path d="M12.67,125.26a47.11,47.11,0,0,1-9.3-10.77c-1.08-1.66-2.11-3.36-3.15-5a18,18,0,0,0-6.27-6.13A3,3,0,0,1-7.21,102c-.7-1.71-1.29-3.46-2-5.36a12.12,12.12,0,0,1,7.09,2.26,15.83,15.83,0,0,1,5.83,7.93,105,105,0,0,0,8.73,18.08C12.54,125,12.6,125.12,12.67,125.26Z" transform="translate(16.46 4.24)" fill="#c1c1c1"/>
    <path d="M54,73.59a13.61,13.61,0,0,1-5-4.89,15.74,15.74,0,0,1-1.91-6.64,33.52,33.52,0,0,1,13.4,6.13l-.16.39L59.27,68l-1.44-.66c.22.57.61,1.25.49,1.35a3.61,3.61,0,0,1-1.54.77c-2.37.54-2.62.84-2.55,3.36a2.4,2.4,0,0,1-.21.71Z" transform="translate(16.46 4.24)" fill="#c1c1c1"/>
    <path d="M13.2,72.59l.21-1.26c-1.71-.53-2.85-1.5-2.85-3.49,0-1-1.27-1.33-2.4-.75-.37.19-.72.44-1.09.64s-.73.38-1.26.66c1.52-1.71,6.38-5,13.55-6.72a8.08,8.08,0,0,1-.79,5,11.09,11.09,0,0,1-5,5.83,1.42,1.42,0,0,1-.49.06Z" transform="translate(16.46 4.24)" fill="#c1c1c1"/>
    <path d="M51.16,59.47a9.54,9.54,0,0,1,1.43-.35c1.93-.18,3.86-.3,5.79-.47A5.42,5.42,0,0,1,63.63,61a8,8,0,0,1,1.23,2.48l-1.25-1.69L62.89,63c-.13.22-.22.52-.42.62-1.79.93-1.18,2.13-.43,3.37a6.38,6.38,0,0,1,.29.86A63.11,63.11,0,0,0,51.16,59.47Z" transform="translate(16.46 4.24)" fill="#c1c1c1"/>
    <path d="M2.25,62.5C4,58.87,5.56,57.83,9.6,58.41c2.31.33,4.71.06,7.11.19A66.11,66.11,0,0,0,3.93,68c.57-.87,1.16-1.72,1.69-2.61.65-1.09.25-1.77-1-1.89a2,2,0,0,1-1-.67,3.35,3.35,0,0,1-.45-.94l-.46-.25Z" transform="translate(16.46 4.24)" fill="#c1c1c1"/>
    <path d="M1,97.55c3.64,1.17,5.54,3.43,6,6.77.34,2.62.35,5.28.5,7.92l-.38.08c-.64-1.57-1.24-3.17-1.94-4.72C4.09,105.37,3,103.19,2,101A32.1,32.1,0,0,1,1,97.55Z" transform="translate(16.46 4.24)" fill="#adadad"/>
    <path d="M59.42,74.86l10,.64.18-.59-5-3.18.21-1.19c1.29,1,2.52,2.1,3.82,3.06A3.57,3.57,0,0,0,70,73.9l0,0,1.57,1.39-.2.36c-4,0-8,.44-11.92-.82Z" transform="translate(16.46 4.24)" fill="#c1c1c1"/>
    <path d="M-2.84,72.78c.31,1.23.93.46,1.36.16C-.3,72.08.84,71.15,2,70.25l1,.48-5.82,3.82,0,.31a43.66,43.66,0,0,0,7.17,0h0a3.36,3.36,0,0,1-.92.3q-3.29.08-6.58.08A8.9,8.9,0,0,1-4.52,75Z" transform="translate(16.46 4.24)" fill="#c1c1c1"/>
    <path d="M13.2,72.59l-.08-.06a8,8,0,0,1-2.06,1.15c-2.22.47-4.49.78-6.73,1.15h0A18,18,0,0,0,12,72.67C12.31,72.49,12.8,72.61,13.2,72.59Z" transform="translate(16.46 4.24)" fill="#c1c1c1"/>
    <path d="M25,10.69l-2.69,4.57L21.95,15c1-1.43,1.55-3.19,3.14-4.25Z" transform="translate(16.46 4.24)" fill="#c1c1c1"/>
    <path d="M30.43.75c.08.23.29.53.21.69C30,2.87,29.23,4.28,28.49,5.69c-.06.11-.3.13-.45.2l0,0q1.2-2.58,2.4-5.16Z" transform="translate(16.46 4.24)" fill="#c1c1c1"/>
    <path d="M25,10.69l.06.07a3.79,3.79,0,0,1,.32-1c.86-1.29,1.77-2.54,2.66-3.82l0,0A11.72,11.72,0,0,1,25,10.69Z" transform="translate(16.46 4.24)" fill="#c1c1c1"/>
    <path d="M70,73.9c-1.69-.84-2.24-2.44-2.75-4.06L70,73.93Z" transform="translate(16.46 4.24)" fill="#c1c1c1"/>
    <path d="M54,73.59a3.28,3.28,0,0,1,1.1-.08c1.44.42,2.86.9,4.29,1.35h0L54,73.59Z" transform="translate(16.46 4.24)" fill="#c1c1c1"/>
    <path d="M48.21,49.88C46.81,52.46,45.38,55,44,57.62c-1.77,3.4-3.48,6.84-5.25,10.24a19.94,19.94,0,0,1-1.47,2.08c-.74-1.84-2-1-3-1-2.65,0-5.3.22-8,.25-.26,0-.68-.55-.78-.9a60.33,60.33,0,0,0-5.11-13.81c-.81-1.5-1.56-3-2.47-4.79l4.49,2.4a25.88,25.88,0,0,0,10.29,3.27,18.71,18.71,0,0,0,11.27-3.08c1.32-.81,2.61-1.67,3.92-2.51Z" transform="translate(16.46 4.24)" fill="#c1c1c1"/>
  </g>
  <g>
    <path d="M95.25,89.54a10.66,10.66,0,0,1-5.84,1.54,9,9,0,0,1-5-1.29,7.58,7.58,0,0,1-2.88-3.39,11.29,11.29,0,0,1-.9-4.52,16.51,16.51,0,0,1,1.71-7.56A13.21,13.21,0,0,1,87,69a12,12,0,0,1,6.6-1.91,7.15,7.15,0,0,1,5,1.48,5,5,0,0,1,1.6,3.82,6.81,6.81,0,0,1-2,5,12,12,0,0,1-4.83,2.94,19.77,19.77,0,0,1-5.65,1,8.34,8.34,0,0,0,1,4.6,3.17,3.17,0,0,0,2.82,1.56A6.2,6.2,0,0,0,95,86.6a10,10,0,0,0,2.49-2.38l1.27,2A11.08,11.08,0,0,1,95.25,89.54ZM89,72.66A21.07,21.07,0,0,0,87.72,79a7.13,7.13,0,0,0,2.71-.8,6.64,6.64,0,0,0,2.43-2.08,5.24,5.24,0,0,0,1-3.17q0-3-1.69-3Q90,69.91,89,72.66Z" transform="translate(16.46 4.24)" fill="#adadad"/>
    <path d="M115.18,71.39q-.86-1.11-1.44-1.11a3,3,0,0,0-2.22,1.36,10.81,10.81,0,0,0-1.83,3.74,18.31,18.31,0,0,0-.72,5.3,10.69,10.69,0,0,0,.84,5,2.91,2.91,0,0,0,2.73,1.48,6,6,0,0,0,3-.68,6.85,6.85,0,0,0,2.12-1.87l1.27,2.06a9.44,9.44,0,0,1-3.37,2.94A11,11,0,0,1,110,90.92a7,7,0,0,1-5.71-2.51q-2.06-2.51-2.06-7.24a16.14,16.14,0,0,1,1.46-6.72,12.67,12.67,0,0,1,4.38-5.26,12.05,12.05,0,0,1,7.07-2,19.41,19.41,0,0,1,2.77.21,10.9,10.9,0,0,1,2.36.58l-1.64,6.37-1.44,0Q116,72.5,115.18,71.39Z" transform="translate(16.46 4.24)" fill="#adadad"/>
    <path d="M141.35,69.6q2.32,2.49,2.32,7.3a15.93,15.93,0,0,1-1.6,7.15,12.67,12.67,0,0,1-4.52,5.14,12.2,12.2,0,0,1-6.78,1.89q-4.52,0-6.82-2.53t-2.3-7.34a15.81,15.81,0,0,1,1.6-7.13,12.56,12.56,0,0,1,4.52-5.1,12.23,12.23,0,0,1,6.74-1.87Q139,67.12,141.35,69.6Zm-10.5,2.14a13.06,13.06,0,0,0-1.66,4.58,25.91,25.91,0,0,0-.43,5.55,14.91,14.91,0,0,0,.8,5.1,2.25,2.25,0,0,0,2.16,1.52q2.43,0,3.6-3.37a24.06,24.06,0,0,0,1.17-7.89,17.5,17.5,0,0,0-.64-5.69,2.17,2.17,0,0,0-2.08-1.62A3.38,3.38,0,0,0,130.85,71.74Z" transform="translate(16.46 4.24)" fill="#adadad"/>
    <path d="M162,60l-.25,2.22-3.45.45L155,87.83l3.49.58-.12,2.1H144.74l.29-2.1,3-.58,3.29-25.2-2.92-.45.21-2.22Z" transform="translate(16.46 4.24)" fill="#adadad"/>
    <path d="M181.13,86.52q0,1,.74,1a3.58,3.58,0,0,0,1.85-.9l.58,1.4a13.28,13.28,0,0,1-2.24,2,5.63,5.63,0,0,1-3.35.92,3.46,3.46,0,0,1-2.43-.76,3.61,3.61,0,0,1-1-2.24l0-.37a8.39,8.39,0,0,1-2.67,2.38,7.75,7.75,0,0,1-4,1,6,6,0,0,1-5.22-2.36,10.27,10.27,0,0,1-1.69-6.1,18.64,18.64,0,0,1,1.52-7.52,13.1,13.1,0,0,1,4.58-5.63,12.78,12.78,0,0,1,7.5-2.14,12.07,12.07,0,0,1,2.1.21l.95-6.62-3.12-.86.37-1.64,8.59-.86,1.07.58-4,28A3.09,3.09,0,0,0,181.13,86.52Zm-6.37-16.61q-3.37,0-4.85,3.7a23,23,0,0,0-1.48,8.59,8.15,8.15,0,0,0,.76,3.86,2.33,2.33,0,0,0,2.12,1.4,3.29,3.29,0,0,0,1.87-.6,5.36,5.36,0,0,0,1.5-1.54l2.22-15A6.75,6.75,0,0,0,174.75,69.91Z" transform="translate(16.46 4.24)" fill="#adadad"/>
    <path d="M201.48,89.54a10.66,10.66,0,0,1-5.84,1.54,9,9,0,0,1-5-1.29,7.58,7.58,0,0,1-2.88-3.39,11.29,11.29,0,0,1-.9-4.52,16.51,16.51,0,0,1,1.71-7.56A13.21,13.21,0,0,1,193.23,69a12,12,0,0,1,6.6-1.91,7.15,7.15,0,0,1,5,1.48,5,5,0,0,1,1.6,3.82,6.81,6.81,0,0,1-2,5,12,12,0,0,1-4.83,2.94,19.77,19.77,0,0,1-5.65,1,8.34,8.34,0,0,0,1,4.6,3.17,3.17,0,0,0,2.82,1.56,6.2,6.2,0,0,0,3.52-.95,10,10,0,0,0,2.49-2.38l1.27,2A11.08,11.08,0,0,1,201.48,89.54Zm-6.27-16.88A21.07,21.07,0,0,0,194,79a7.13,7.13,0,0,0,2.71-.8,6.64,6.64,0,0,0,2.43-2.08,5.24,5.24,0,0,0,1-3.17q0-3-1.69-3Q196.26,69.91,195.21,72.66Z" transform="translate(16.46 4.24)" fill="#adadad"/>
    <path d="M227.42,86.52q0,1,.82,1a3.24,3.24,0,0,0,1.81-.9l.58,1.4a7.23,7.23,0,0,1-2.06,1.91,6.06,6.06,0,0,1-3.49,1,4.16,4.16,0,0,1-2.38-.62,2.22,2.22,0,0,1-1-1.77v-.25a8.23,8.23,0,0,1-6.13,2.63,6.22,6.22,0,0,1-5.34-2.38,9.94,9.94,0,0,1-1.77-6.08,18.06,18.06,0,0,1,1.58-7.5,13.34,13.34,0,0,1,4.71-5.65,12.93,12.93,0,0,1,7.48-2.14,12.42,12.42,0,0,1,2.4.27A19.77,19.77,0,0,1,227,68l3.08-.86L227.46,86A2.81,2.81,0,0,0,227.42,86.52Zm-5.63-16.61A4.58,4.58,0,0,0,218,71.76a11.32,11.32,0,0,0-2.08,4.65,26.84,26.84,0,0,0-.62,5.8,7.8,7.8,0,0,0,.8,3.86,2.45,2.45,0,0,0,2.2,1.4A3.89,3.89,0,0,0,221,86.23l2.22-16.16A8.44,8.44,0,0,0,221.79,69.91Z" transform="translate(16.46 4.24)" fill="#adadad"/>
    <path d="M245.65,70.63A4.62,4.62,0,0,0,243.2,70a3.93,3.93,0,0,0-2.28.64,2.15,2.15,0,0,0-1,1.79,3.09,3.09,0,0,0,.8,2.08,18.84,18.84,0,0,0,2.78,2.41,13.31,13.31,0,0,1,3.08,2.92,6.3,6.3,0,0,1,1,3.74,6.39,6.39,0,0,1-1.3,4,7.75,7.75,0,0,1-3.47,2.49,13.53,13.53,0,0,1-4.81.82,17.09,17.09,0,0,1-3.82-.45,7.2,7.2,0,0,1-2.59-.95l.95-4a10,10,0,0,0,2.34,1.6,6.48,6.48,0,0,0,3,.74,4,4,0,0,0,2.26-.66,2.21,2.21,0,0,0,1-2,3.11,3.11,0,0,0-.9-2.14,17.36,17.36,0,0,0-2.8-2.3,10.71,10.71,0,0,1-2.82-2.8,6.86,6.86,0,0,1-1.09-3.95,5.8,5.8,0,0,1,1.17-3.58A7.7,7.7,0,0,1,238,68a12.68,12.68,0,0,1,4.91-.88,19.8,19.8,0,0,1,3.08.25,10.41,10.41,0,0,1,2.14.49L247.32,72A6.61,6.61,0,0,0,245.65,70.63Z" transform="translate(16.46 4.24)" fill="#adadad"/>
  </g>
</svg>
