<svg id="Layer_23" data-name="Layer 23" xmlns="http://www.w3.org/2000/svg" viewBox="0 0 1293.77 518"><defs><style>.cls-1{fill:#0076a8;}</style></defs><path class="cls-1" d="M411.23,22.49c-.89-.21-2.35,3-2.83,4-2.94,6.14-7.46,10.21-16,17.92-9.56,8.6-21.15,13.11-28.84,15.84-30.59,10.85-39.29,7.63-67.1,16.25-25.34,7.84-41.18,17.66-50.15,24-22.55,16-27.86,28.53-29.54,33.13a57.54,57.54,0,0,0-3,25.78A122.3,122.3,0,0,0,218,181c1.95,6.67,3,8,3.76,7.92,1.7-.1,2.52-6.89,2.88-9.18,3-19.06,23-35.36,33-43.51A135.28,135.28,0,0,1,294.85,115c17-6.67,21.24-4.58,35.65-12.32,16.37-8.8,25.41-14,25.41-14,4.92-2.85,7.9-4.65,8.14-4.32.43.61-8.55,8.19-18.35,14.68-4.9,3.24-10.37,6.45-21.76,12.06-15,7.39-20.42,8.85-27.52,12.58C286.29,129,269.23,138,254,155.91a113.06,113.06,0,0,0-22,38.53,216.16,216.16,0,0,0-7.08,28.31c-2.27,13.91-2,22.68-5.5,23.59-3.17.82-6.09-4.58-11-10.22-14.84-17-36.34-23.21-55.84-28.86-12.4-3.6-23.17-5.15-23-6.44.14-1,7.31-.92,9.64-.87a96.61,96.61,0,0,1,25.16,3.93c6.71,1.91,31,8.85,38.69,18.24,2.3,2.82,4.75,4.44,9.64,7.67,1.2.79,2.77,1.77,3.57,1.22,1-.72.2-3.65-.27-5.22-2.53-8.34-3.79-12.51-7-17.82-.3-.49-5.8-9.62-11.64-15.1-14.05-13.19-42.1-16.63-63.7-9-13,4.56-29.23,15.08-40.89,14.15-1-.08-5.28-.5-5.89,1s2.33,3.75,5.19,6.12c0,0,8.55,7.11,15.25,13.32,3.66,3.39,4.5,5.35,11.37,16.39,8.7,14,13.06,21,18.12,27.64,9.17,12.07,13.76,18.1,22.41,22.42,2.75,1.37,17.18,8.57,31.27,3.07,8-3.14,14.25-9.74,20-15.8a41,41,0,0,0,5-5.87c1.82-2.72,2.6-4.75,3.16-4.6.84.21.27,5.08.16,6.05-.95,8.23,0,16.57,0,24.85a160.31,160.31,0,0,0,2.51,27.05A143.5,143.5,0,0,0,225,336.8a124.48,124.48,0,0,1,27.55,78.28q0,1.83-.06,3.63a74.89,74.89,0,0,1-2.14,19.78,125,125,0,0,1-52.27,79.8,91,91,0,0,0,39.6-16.72c29.07-22.09,34.5-56.3,36-66,5.07-32.81-6.26-60.56-11.62-69.85-.44-.77-1.75-2.93-3.43-6.14a250.45,250.45,0,0,1-12.58-29.88,209.2,209.2,0,0,1-8.25-28.7,158.93,158.93,0,0,1-4-36.18c.1-7.95.75-6.92,1.19-20,0,0,.26-7.75,1.83-21.39.72-6.26,1.29-9.74,2.89-10.06s3.49,2.79,5.09,5.28c0,0,2.13,8.11,14.31,17.78,10.34,8.22,21.64,10,26.7,10.75,21.79,3.19,39-6.61,48.37-12,11.85-6.76,19.27-14.31,25.06-20.28a144.52,144.52,0,0,0,25.81-37.17c3.39-6.67,10.06-21,16.62-51a421.23,421.23,0,0,0,9.47-77.28c.14-8.52.39-15.19.6-19.81C412,26.6,412.17,22.72,411.23,22.49Z" transform="translate(-3.04 -22.48)"/><path class="cls-1" d="M128,290.48a125,125,0,1,0,125,125A125,125,0,0,0,128,290.48Zm0,247a122,122,0,1,1,122-122A122,122,0,0,1,128,537.48Z" transform="translate(-3.04 -22.48)"/><path class="cls-1" d="M39.82,351A37.85,37.85,0,0,0,46,365a31.69,31.69,0,0,0,3.82,4l.83-.55-8.55-22.59.66-.5a10.66,10.66,0,0,1,1.12,1.41c1.07,1.94,2,4,3.17,5.85q4.16,6.63,8.52,13.14a26.3,26.3,0,0,1,4.8,11.8,5.68,5.68,0,0,0,2.39,3.61c5.47,3.41,11,6.69,16.71,9.72,1.46.78,3.8,1.22,5.17.59,3.14-1.44,5.37-.87,7.61,1.48a15.26,15.26,0,0,0,11,5.07,8.52,8.52,0,0,1,7.35,4.49,19.35,19.35,0,0,0,7.43,7.05c1.81,1,3.7,1.87,5.52,2.85,2.93,1.58,4.64,1.62,6.27-1.46,1-1.81,2.43-1.83,3.71-.25,3,3.67,4.88,11.87-.69,16.51-2.78,2.32-4.29,5.43-5.4,8.69a7.13,7.13,0,0,0,.3,4.41,3.87,3.87,0,0,1-.39,4.05c-2.33,3.3-2.18,5,.59,7.91,1.31,1.4,2.86,2.58,4.08,4.05a12.58,12.58,0,0,1,2.61,4.23c2.07,7.12,6.61,11.78,13.44,14.4,3.89,1.5,4.21,2.18,3.41,6.21a69.59,69.59,0,0,1-15.32,32.05c-1,1.16-2.35,2.38-2.58,3.74-.68,3.93-3.44,6.4-5.68,9.27a21.62,21.62,0,0,0-1.89,2.61,2.46,2.46,0,0,0,.75,3.46c1.9,1.39,5.39.36,6.4-1.74a5.78,5.78,0,0,1,1.76-2c2-1.51,4.23-2.78,6.17-4.38,5.18-4.24,10.36-8.43,16.44-11.38a52.69,52.69,0,0,0,12.85-8.32c3.76-3.43,8.3-6,12-9.46a84.91,84.91,0,0,0,11-12,36,36,0,0,1,7.6-7.87,57,57,0,0,0,6.35-4.94,22.78,22.78,0,0,0,4.28-5.9c2.91-5.83,5.48-11.83,8.31-17.71,3-6.31,5.83-12.7,7.07-19.64.18-1.05-.25-3-1-3.31a24.56,24.56,0,0,0-7.74-2.63c-3.7-.41-7.5-.06-11.25,0-3.19,0-4.08-.78-4.51-3.89a9.87,9.87,0,0,0-1.06-3.47,40.82,40.82,0,0,0-4.07-6.11,4.3,4.3,0,0,0-3.29-1.54c-4.6,1-8.39-.56-12.15-3a27.33,27.33,0,0,0-19.34-4.29c-3.27.48-6.69.62-9.64-1.24-2-1.29-3.63-.85-5.17.58-2.69,2.51-5.38,5-8,7.67-1.4,1.43-2.9,2-4.74,1.2a7.94,7.94,0,0,0-6.86.15c-4.31,1.85-8.09-.59-8.44-5.33-.19-2.6-.18-5.21-.3-7.82a3.19,3.19,0,0,0-3.33-3.37c-1.77-.09-3.53-.1-5.3-.11-2.56,0-4.35-.09-5.29-1.27-1.07-1.34-.56-3.51-.17-5.15a26.26,26.26,0,0,1,1.33-3.5c1.26-3.35,1.89-5,1.17-5.84s-2.69-.32-3.84,0a7.6,7.6,0,0,0-3.5,2c-1.38,1.46-1.21,2.62-1.91,3.71-1.85,2.89-9.91,4.88-13.44.56-4.77-5.82-6.63-12-3.16-19.17a11.22,11.22,0,0,0,.45-1.31c1.85-5.52,6.1-8,11.77-6.94,2.44.45,4.91.82,7.36,1.23.49-3.65.75-3.89,4.11-3.78,1.61.05,3.22.25,4.83.32,3.45.15,5.47,2,7.09,5a42.83,42.83,0,0,0,5,6.53c.9,1.07,1.66.63,1.9-.59a7,7,0,0,0,.16-2.94,65.63,65.63,0,0,0-2.38-7.92c-1.66-4.23-1.36-5.88,1.91-9a42.9,42.9,0,0,0,5.39-5.65c.91-1.25,1.69-3.25,1.35-4.62-.56-2.26-.57-4.05,1-5.83.38-.44.37-1.19.71-1.68,1.41-2,2.92-4,4.3-6.06.6-.89,1.48-1.95,1.4-2.86a5.57,5.57,0,0,1,2.79-5.63c2.07-1.32,3.73-.16,5.33,1.24l5-6a7.1,7.1,0,0,1-6.89-4.46c-1.79-3.63-2.9-3.81-6.15-1.44a4.4,4.4,0,0,1-1.73.37c.14-.61.07-1.54.45-1.79a36.4,36.4,0,0,1,5.67-3.27c1.45-.63,3.18-.57,4.68-1.1a6.5,6.5,0,0,0,1.49-.75,126,126,0,0,0-20.6-1.7,124.39,124.39,0,0,0-13,.68.85.85,0,0,1,0,.32c0,1-.32,2.46-.9,2.69a3.23,3.23,0,0,1-4-2.4,124.83,124.83,0,0,0-77.52,43l.16.24A40,40,0,0,1,39.82,351Z" transform="translate(-3.04 -22.48)"/><path class="cls-1" d="M115.32,372.15c-.14-.19.36-.94,1.05-1.45,1.08-.8,2.29-.86,4.37-.93h4.49c2,.09,2.53.79,4.89,1.33,1.27.29,1.18.09,3.43.52s2.65.69,2.91.93c1,.93.55,2,1.59,2.77s2.24.51,2.24.67-3.34-.47-5.68,1.32a5.93,5.93,0,0,1-2.35,1.57c-.83.22-1.95.19-2.14-.25-.31-.74,2.25-1.94,2-3.2-.16-.75-1.23-1.1-1.43-1.16-1.68-.55-2.82.78-3.94.08-.54-.33-.32-.66-.95-1.14-.88-.67-1.55-.14-3-.53s-1.29-.93-2.65-1.19a6.68,6.68,0,0,0-2.49.07C116.19,371.83,115.46,372.35,115.32,372.15Z" transform="translate(-3.04 -22.48)"/><path class="cls-1" d="M146.16,375.17c-.49,0-.63-.32-1.2-.51-.91-.3-2,.09-2,.36s.24.32,1.31.58a2.9,2.9,0,0,1-.35,1.55,2.83,2.83,0,0,1-.86,1,2.31,2.31,0,0,1-1.2.52c-.83.06-1.41-.5-1.54-.34s.05.4.25.59c.58.59,1.69.35,2.06.26s.24-.08,1.55-.51c.72-.24,1-.31,1.12-.18s.09,1,.06,1.09-.09.16-.06.2.76-.05,1.29-.34c.13-.07.34-.22.77-.52.71-.48.75-.54.95-.6.5-.14.88.06.95-.08s-.41-.45-.35-.61.58-.07,1.29.09c1.44.32,1.94.6,2.07.43s-.4-.89-.86-1.46c-.2-.25-.42-.49-.86-.95a10.58,10.58,0,0,0-1-1,2.7,2.7,0,0,0-2.26,0C146.69,374.88,146.61,375.16,146.16,375.17Z" transform="translate(-3.04 -22.48)"/><path class="cls-1" d="M155.22,376.9c.13-.74,1.31-1.1,2-1.17a6,6,0,0,1,2.5.67c1.21.47,1.81.71,1.83,1,0,.58-1.47,1.13-2.33,1.33a3.63,3.63,0,0,1-2.33,0C156.13,378.44,155.08,377.67,155.22,376.9Z" transform="translate(-3.04 -22.48)"/><circle class="cls-1" cx="135.35" cy="437.25" r="2.5"/><circle class="cls-1" cx="132.01" cy="414.41" r="2.5"/><circle class="cls-1" cx="143.68" cy="400.09" r="2.5"/><circle class="cls-1" cx="155.35" cy="382.42" r="2.5"/><circle class="cls-1" cx="146.18" cy="351.92" r="2.5"/><circle class="cls-1" cx="155.34" cy="351.92" r="2.5"/><circle class="cls-1" cx="124.76" cy="348.75" r="2.5"/><circle class="cls-1" cx="70.41" cy="351.91" r="2.5"/><circle class="cls-1" cx="175.85" cy="415.25" r="2.5"/><circle class="cls-1" cx="146.18" cy="475.59" r="2.5"/><circle class="cls-1" cx="159.14" cy="470.59" r="2.5"/><circle class="cls-1" cx="178.35" cy="469.42" r="2.5"/><circle class="cls-1" cx="160.35" cy="440.5" r="2.5"/><circle class="cls-1" cx="171.85" cy="453.59" r="2.5"/><circle class="cls-1" cx="95.76" cy="368.97" r="2.5"/><circle class="cls-1" cx="101.6" cy="373.97" r="2.5"/><circle class="cls-1" cx="113.49" cy="377.42" r="2.5"/><circle class="cls-1" cx="117.24" cy="385.36" r="2.5"/><circle class="cls-1" cx="128.26" cy="386.42" r="2.5"/><circle class="cls-1" cx="109.6" cy="370.8" r="2.5"/><path class="cls-1" d="M158.66,405.35l-.28-31h-9.16l-21.43-3.17-54.34,3.16L98.8,391.45l5.83,5,8-3.17,3.89,6.62,3.76,8,11,1,15.42,14.17,33.17,14.66L163.39,463l-.87,2.15-13.3,32.94,12.95-5,19.22-1.17-6.5-15.83L164.67,463l-26.28-3.25-3.34-22.84L146.29,424Z" transform="translate(-3.04 -22.48)"/><path class="cls-1" d="M350.81,334.79v23.87H275.59v-100h75.22v23.07H305.69v14.5h36.48v22.19H305.69v16.34Z" transform="translate(-3.04 -22.48)"/><path class="cls-1" d="M448.44,358.66h-25l-27.38-44.17a168.37,168.37,0,0,1-10.64-20.65,69.23,69.23,0,0,1,2.42,16.41v48.41H363v-100h29l23.3,36.62a140.52,140.52,0,0,1,10.54,19.19,145.79,145.79,0,0,1-2.34-26.22V258.69h25Z" transform="translate(-3.04 -22.48)"/><path class="cls-1" d="M552.39,258.69l-31,100H490.09l-32.44-100H490l15.82,54.49q1.62,4.83,2.87,9.52l18.48-64Z" transform="translate(-3.04 -22.48)"/><path class="cls-1" d="M592.29,258.69v100H561.6v-100Z" transform="translate(-3.04 -22.48)"/><path class="cls-1" d="M698.71,358.66h-34l-14.6-38.23h-9.68v38.23H609.72v-100h52.22q17.29,0,26.85,8.09t9.56,21.35a32.15,32.15,0,0,1-3.52,15.27q-3.51,6.63-14.21,11.68ZM640.41,299h13.11q5.79,0,9.3-2.41a8.06,8.06,0,0,0,3.52-7.11q0-9.58-11.79-9.59H640.41Z" transform="translate(-3.04 -22.48)"/><path class="cls-1" d="M755.25,360.2q-21.09,0-34.38-14t-13.3-37.42q0-22.43,12.71-37t35.27-14.61q20.87,0,34,13.77t13.15,36.77q0,23.81-13.26,38.16T755.25,360.2Zm-.14-22.7q7.75,0,11.17-6.78t3.4-24.79q0-26.07-14-26.08-15.09,0-15.08,29.74Q740.61,337.49,755.11,337.5Z" transform="translate(-3.04 -22.48)"/><path class="cls-1" d="M901.15,358.66h-25L848.8,314.49a168.37,168.37,0,0,1-10.64-20.65,69.23,69.23,0,0,1,2.42,16.41v48.41h-24.9v-100h29L868,295.31a140.52,140.52,0,0,1,10.54,19.19,145.79,145.79,0,0,1-2.34-26.22V258.69h25Z" transform="translate(-3.04 -22.48)"/><path class="cls-1" d="M1027.28,258.69v100h-28.5V287.18l-18.49,71.48H960.81l-19.23-71.48v71.48h-23v-100h40.11l14.5,53.1L987,258.69Z" transform="translate(-3.04 -22.48)"/><path class="cls-1" d="M1119.93,334.79v23.87h-75.22v-100h75.22v23.07h-45.12v14.5h36.47v22.19h-36.47v16.34Z" transform="translate(-3.04 -22.48)"/><path class="cls-1" d="M1217.56,358.66h-25l-27.38-44.17a168.43,168.43,0,0,1-10.63-20.65,69.75,69.75,0,0,1,2.42,16.41v48.41h-24.9v-100h29l23.29,36.62a140.72,140.72,0,0,1,10.55,19.19,144.88,144.88,0,0,1-2.35-26.22V258.69h25Z" transform="translate(-3.04 -22.48)"/><path class="cls-1" d="M1276.08,282.64v76H1247v-76h-20.73V258.69h70.54v23.95Z" transform="translate(-3.04 -22.48)"/><path class="cls-1" d="M330.72,508.66,325.07,489H298.29l-6,19.7H267.37l30.86-100h32.45l31.36,100ZM303.5,467.13h16.18l-8.09-29Z" transform="translate(-3.04 -22.48)"/><path class="cls-1" d="M423.25,470.5l28.05,1.69q-2,18.39-13.59,28.2t-28.52,9.81q-20.37,0-32.89-13.48t-12.53-37.2q0-23.52,11.87-37.94t33.11-14.43q19.85,0,30.5,11t12.05,29.15l-28.64,1.53q0-10-3.84-14.5a11.62,11.62,0,0,0-9.05-4.47q-14.5,0-14.5,29.15,0,16.33,3.77,22.2a11.93,11.93,0,0,0,10.58,5.86Q421.79,487.06,423.25,470.5Z" transform="translate(-3.04 -22.48)"/><path class="cls-1" d="M503.59,432.64v76H474.52v-76H453.79V408.69h70.53v23.95Z" transform="translate(-3.04 -22.48)"/><path class="cls-1" d="M563.73,408.69v100H533v-100Z" transform="translate(-3.04 -22.48)"/><path class="cls-1" d="M624.37,510.2q-21.09,0-34.39-14t-13.29-37.42q0-22.43,12.71-37t35.26-14.61q20.88,0,34,13.77t13.15,36.77q0,23.81-13.26,38.16T624.37,510.2Zm-.15-22.7q7.77,0,11.17-6.78t3.41-24.79q0-26.07-14-26.08-15.09,0-15.09,29.74Q609.72,487.49,624.22,487.5Z" transform="translate(-3.04 -22.48)"/><path class="cls-1" d="M770.27,508.66h-25l-27.38-44.17a168.43,168.43,0,0,1-10.63-20.65,69.75,69.75,0,0,1,2.42,16.41v48.41H684.8v-100h29l23.29,36.62a140.72,140.72,0,0,1,10.55,19.19,144.88,144.88,0,0,1-2.35-26.22V408.69h25Z" transform="translate(-3.04 -22.48)"/><path class="cls-1" d="M898.22,484.13l-1.1,24.53H821v-23l17-11.93q3.74-2.57,14-11t13.35-13a16.6,16.6,0,0,0,3.11-9.52,10.69,10.69,0,0,0-2.72-7.65,9.31,9.31,0,0,0-7.12-2.9q-11,0-12.35,17.29L821,442q2.79-17.64,13.81-26.26t26-8.6q16.26,0,26.55,8.72t10.29,23.21A33.43,33.43,0,0,1,892,457.47q-5.6,8.71-32.77,26.66Z" transform="translate(-3.04 -22.48)"/><path class="cls-1" d="M948.17,510.2q-18.09,0-28.63-14.24T909,458.49q0-23.81,10.8-37.57t28.9-13.77q19,0,29.07,14.68t10.11,37.54q0,23.29-10.87,37.06T948.17,510.2Zm.3-21.24q6.3,0,8.42-8T959,459q0-19.11-2.82-25t-7.65-5.86q-5.87,0-8.09,7.73t-2.24,21.27q0,18.39,2.24,25.09T948.47,489Z" transform="translate(-3.04 -22.48)"/><path class="cls-1" d="M1074.15,484.13l-1.1,24.53H996.88v-23l17-11.93q3.74-2.57,14-11t13.35-13a16.54,16.54,0,0,0,3.12-9.52,10.69,10.69,0,0,0-2.72-7.65,9.33,9.33,0,0,0-7.13-2.9q-11,0-12.34,17.29L996.88,442q2.79-17.64,13.81-26.26t26-8.6q16.26,0,26.55,8.72t10.29,23.21a33.42,33.42,0,0,1-5.6,18.39q-5.6,8.71-32.77,26.66Z" transform="translate(-3.04 -22.48)"/><path class="cls-1" d="M1162.11,484.13,1161,508.66h-76.18v-23l17-11.93q3.75-2.57,14-11t13.35-13a16.54,16.54,0,0,0,3.12-9.52,10.73,10.73,0,0,0-2.72-7.65,9.34,9.34,0,0,0-7.13-2.9q-11,0-12.35,17.29L1084.84,442q2.79-17.64,13.81-26.26t26-8.6q16.26,0,26.55,8.72t10.29,23.21a33.5,33.5,0,0,1-5.6,18.39q-5.61,8.71-32.78,26.66Z" transform="translate(-3.04 -22.48)"/></svg>