<svg xmlns="http://www.w3.org/2000/svg" viewBox="0 0 550.41 291.89">
  <title>respira</title>
  <path d="M236.78,506.09c-1.68,0-4.11-.72-4.93.13-13.78,14.09-31.67,12.63-48.53,11.49C126.93,513.89,81.15,474.23,67.7,419c-19-78.12,39.3-155.28,119.58-157.91,2.55-.08,5.2,2.91,7.81,4.46-2.4,1.74-4.69,4.79-7.22,5-22.09,1.95-42.79,7.7-61.2,20.49-1.42,1-2.82,2-4.14,3.14-.38.32-.44,1-.79,1.91,7.44,5.37,15.81,4.78,24.07,3.27,14.65-2.68,29.17-6,43.81-8.74,22.87-4.2,45.1-3.73,66,12-2-13.71-7.56-24-14.78-33.52-22.27-29.38-67.57-41.91-100.4-27.74-15,6.46-25.23,17.05-29.8,33.09-.78,2.75-4.39,4.7-6.69,7-.8-3.29-2.92-6.93-2.18-9.83,6-23.15,22.11-36.56,44.42-42.07,49.34-12.19,108.82,12.17,120,73.85a49.75,49.75,0,0,1,.92,11.27c-.13,2.62-1.51,5.18-2.33,7.77-2.64-1.26-6.14-1.83-7.79-3.89-11.87-14.75-27.32-21.62-45.88-20.2-13.24,1-26.36,3.72-39.51,5.84-8.86,1.43-17.69,3.09-26.52,4.77-11.67,2.22-22.5.33-32.28-6.37-47.78,37.43-51.57,124.35-5.52,168-2.24-5.29-3.52-8.46-4.9-11.58-24.71-55.84,6.18-120.75,64.89-136.32a98.72,98.72,0,0,1,124.46,99.52c-1.1,30.62-13.93,55.37-37.58,74.48-4.56,3.68-10.37,5.82-15.6,8.66Zm2.65-135.62c4.3-4.42,5.45.21,6,2.64,2.19,9.56,3.81,19.25,5.74,28.88.43,2.14.59,5.44,1.94,6.13,9.57,4.88,19.42,9.22,29.28,13.78,3.7-38.55-26.88-78.22-55.12-85.15,4.54,8.4,14.58,15.09,7.36,26.3-6.15-8-11.74-16.46-18.66-23.67-4.42-4.61-10.82-7.32-18.22-12.11v72.14l44.89,5.28c-1.82-9.23-3.74-17.37-4.87-25.62-.39-2.83,1.24-5.94,1.94-8.92ZM197.93,507,201,509.5c6.7-5.59,14.61-10.23,19.86-16.95,16.57-21.18,21.54-46.31,21.64-72.6,0-1.86-2.24-5.12-3.84-5.39-13.48-2.29-27.05-4-40.77-6Zm-10.08-98.51c-14.13,2-27.26,3.63-40.26,5.93-1.81.32-4.4,4-4.33,6,1,27.42,5.94,53.71,24.38,75.5,5.27,6.23,11.73,10.71,20.21,12Zm.22-9.18V330.08c-22.45,2.1-48.49,48.4-42.37,74.39Zm-83.91,23.51c3.82-2.35,7.19-5.67,11.12-6.62,15.81-3.82,21-14,22.38-29.53,1.65-18.52,10.09-35.22,22.16-51.17C125.77,347.25,99.16,387.8,104.17,422.87Zm122.32,78.26c24.27-6.52,53.27-40.42,54.21-62.24a7.09,7.09,0,0,0-1.66-4.65c-7.18-7.77-16.06-12.59-27.19-15.92C251.35,448.6,245.58,476.23,226.49,501.13ZM133.94,416.9l-23,13.25c-5.81,3.36-6.29,8.14-4.34,14.1,7.73,23.66,22.07,41.83,44,53.86a75.8,75.8,0,0,0,7.17,3.06C140.4,476.06,134.79,448.34,133.94,416.9Z" transform="translate(-64.08 -226.5)" fill="#a3a3a3"/>
  <text transform="translate(227.79 206.16)" font-size="80" fill="#9a9a9a" font-family="MyanmarText-Bold, Myanmar Text" font-weight="700">RESPIRA</text>
</svg>
