<svg xmlns="http://www.w3.org/2000/svg" viewBox="0 0 516.96 291.89">
  <title>eco-ideas</title>
  <g>
    <path d="M158.38,430.11c3,.56,5.31.84,7.56,1.47A41.31,41.31,0,0,1,190,449.2a248.9,248.9,0,0,0,15.76,22c8.48,10.2,19.44,15.79,33.1,14.82a47.7,47.7,0,0,0,24.89-9.21c5.16-3.74,9.76-8.26,14.59-12.45a14.84,14.84,0,0,0,1.46-1.87c-4.63,1.94-8.7,3.82-12.89,5.36-12.34,4.56-25,6.46-38,3.23-8.31-2.07-15.21-6.21-19.2-14.15a52.91,52.91,0,0,1-2.08-5.62c3.37,0,6.37.16,9.35,0,9.08-.58,16.87-4.68,24.31-9.46q10.37-6.66,20.47-13.75c11.62-8.17,24.6-12.78,38.51-14.88a131.14,131.14,0,0,1,43.19.71c3,.55,3.05.62,2.43,3.7A140.09,140.09,0,0,1,330.44,459c-8.14,14.48-18.25,27.36-31.39,37.64-21.72,17-46.22,23.52-73.4,18.36-14.12-2.68-25.12-11.06-34.53-21.57-12.88-14.37-21.39-31.26-28-49.2C161.46,439.78,160.09,435.25,158.38,430.11Z" transform="translate(-158.38 -224.82)" fill="#adadad"/>
    <path d="M227.67,444.06c21.38-43.54,16-84.45-10.41-123.49,4.74,3.4,9.39,6.92,14.22,10.18a62.25,62.25,0,0,0,19.6,8.36c3.91,1,7.48.21,11.1-.65,10-2.38,18-8.38,25.88-14.48,1.86-1.43,3.64-3,5.46-4.44l.67.38a11.34,11.34,0,0,1-.92,2.31,103.66,103.66,0,0,0-17.39,44,57.89,57.89,0,0,0,2.55,30.37,29.71,29.71,0,0,0,11.37,14.44c-2.44.59-4.77,1-7,1.71-8.44,2.77-15.5,8.08-23,12.63-10.1,6.14-20.36,12-30.56,18A13.47,13.47,0,0,1,227.67,444.06Zm56.54-113.92-.39-.27c-2.54,1.63-5.05,3.3-7.62,4.88-6.72,4.14-14.05,6.58-21.93,6-7.07-.52-13.74-3-20-6.37l-8.73-4.68c1.76,3.43,3.23,6.41,4.8,9.32,4.59,8.49,7.55,17.58,9.94,26.88.18.7,1,1.77,1.51,1.76,5.16-.07,10.31-.41,15.47-.49,1.92,0,4.3-1.58,5.75,2a38.81,38.81,0,0,0,2.86-4c3.45-6.62,6.77-13.31,10.22-19.92C278.72,340.14,281.49,335.15,284.21,330.13Z" transform="translate(-158.38 -224.82)" fill="#c1c1c1"/>
    <path d="M170.37,273.46c3.65,1.76,7,3.68,10.57,5a95.63,95.63,0,0,0,11.67,3.36c4.87,1.15,9.85,1.87,14.71,3.07,6.37,1.58,12.59,3.68,18.07,7.46C233.29,297.83,238,305.06,237,315a62.44,62.44,0,0,1-2.11,10c-.75,2.76-1.77,3-4,1.23-3.31-2.68-6.51-5.49-9.76-8.24-5.27-4.46-10.57-8.88-15.8-13.39-3.53-3-6.94-6.22-10.82-9.17a16.54,16.54,0,0,0,1.17,2.25c4.19,5.78,8.55,11.44,12.59,17.33,2.29,3.34,4,7.07,6.12,10.54,2.2,3.63,4.62,7.13,6.83,10.76,1.36,2.22,2.5,4.57,3.88,7.12A34.17,34.17,0,0,1,212,344c-11.35-1.48-20.94-6.38-27.69-15.79a57.27,57.27,0,0,1-10-23.55c-1.64-9.36-2.66-18.83-3.91-28.25A23.27,23.27,0,0,1,170.37,273.46Zm25.37,28.62.54-.7L172.67,279l-.66.43a80.17,80.17,0,0,0,3.8,25c.16.48,1.13.94,1.74,1,4.05.2,8.12.16,12.17.43,3.49.23,4.77-.87,4.36-4.34Zm22.32-11.85c-13.51-5.5-27.92-5.74-41.34-11.75.48.9.54,1.17.71,1.3,3.74,2.95,7.4,6,11.29,8.75a12,12,0,0,0,5.09,1.7c1.64.24,3.37-.25,5-.19,2.54.09,5.07.46,7.6.56,3.51.13,7.07-1.4,10.54.31C217.07,290.95,217.26,290.75,218.05,290.23Z" transform="translate(-158.38 -224.82)" fill="#c1c1c1"/>
    <path d="M276.12,328.43a31.54,31.54,0,0,1-3.52-16.78c.61-10.71,7.31-17.17,16.17-21.47,5.25-2.55,11.06-4.07,16.74-5.61,6.09-1.65,12.43-2.42,18.47-4.23,4.66-1.4,9-3.81,13.52-5.77.43-.19.85-.4,1.77-.83-.4,5.35-.55,10.33-1.2,15.25-1.12,8.41-2.41,16.81-5.26,24.87-3.46,9.78-8.5,18.4-17.5,24.16a42.88,42.88,0,0,1-27.45,6.58,10.23,10.23,0,0,1-1.92-.42,7.85,7.85,0,0,1-1.2-.65c9.87-16.7,20.26-32.91,32.37-48.07C302.83,305.52,291,318.58,276.12,328.43Zm61.28-49.07-.75-.3a22.17,22.17,0,0,0-1.78,1.6c-2,2.25-3.93,4.62-6.05,6.78-4.26,4.32-8.67,8.51-13,12.8-1.12,1.12-2.59,2.2-1.46,4.21s2.55,1.82,4.43,1.63a79.6,79.6,0,0,1,9.54-.28c2.24,0,5.34-1.63,5.77-3.68,1-4.5,1.91-9,2.6-13.54C337.21,285.54,337.2,282.43,337.4,279.35Zm-42.85,9.81.23.65a18.61,18.61,0,0,1,2.62-.35c5.64,0,11.29.35,16.91.06,3-.16,6.31.47,9-2.12s6-4.86,9-7.29a3,3,0,0,0,.52-.84C320.21,283.53,306.9,284.6,294.55,289.17Z" transform="translate(-158.38 -224.82)" fill="#c1c1c1"/>
    <path d="M268.1,251.85A61.62,61.62,0,0,1,279.89,271c2.82,7.68,2.47,15-2.58,21.71-2.38,3.15-5,6.16-7.51,9.18q-4.81,5.71-9.73,11.33a15.37,15.37,0,0,1-2.36,1.69c2.72-24.81.1-48.63-3.1-72.42l-.8-.08a16.61,16.61,0,0,0-.5,2.11c-.66,6.2-1.27,12.41-1.93,18.62a197.46,197.46,0,0,0,.29,47.14,6.15,6.15,0,0,1-.45,2,6.43,6.43,0,0,1-1.9-.79c-7.11-6.32-14.06-12.8-19.41-20.78a17.78,17.78,0,0,1-2.61-14.24l3-.57c1.85-.34,3.68-.81,5.54-1,2.45-.24,4.91-.3,7.37-.34a2.66,2.66,0,0,1,1.78.58c1.53,1.56,2.42.53,2.93-.79a21.11,21.11,0,0,0,1.42-5.22c1.13-10.09,2.16-20.2,3.19-30.3.33-3.23.56-6.47.86-9.88l-3.72,5.6,0,0,3.88-9.72,5.32,13.41-4.19-5.55a14.12,14.12,0,0,0-.09,2c.9,7.33,1.75,14.66,2.76,22,.9,6.5,1.94,13,3,19.45.13.78,1,2,1.53,2,3.84.28,7.75.75,11.52.25,2.5-.33,4.47-1,5.72,1.8,0,.05.3,0,.91-.05a31.11,31.11,0,0,0,0-3.51c-.48-4.24-2.4-8-4.41-11.62C273.2,260.6,270.62,256.24,268.1,251.85Z" transform="translate(-158.38 -224.82)" fill="#c1c1c1"/>
    <path d="M215.06,476.81a91.67,91.67,0,0,1-18.11-21c-2.1-3.24-4.1-6.53-6.13-9.81a34.93,34.93,0,0,0-12.2-11.92,5.8,5.8,0,0,1-2.24-2.65c-1.36-3.32-2.5-6.74-3.84-10.43a23.58,23.58,0,0,1,13.8,4.39c5.56,3.82,9.09,9.23,11.34,15.43a204.3,204.3,0,0,0,17,35.19C214.8,476.28,214.92,476.55,215.06,476.81Z" transform="translate(-158.38 -224.82)" fill="#c1c1c1"/>
    <path d="M295.54,376.26c-3.92-2.48-7.45-5.35-9.72-9.52a30.63,30.63,0,0,1-3.72-12.92c9.73,2.28,18.44,5.93,26.07,11.93l-.31.76c-.71-.35-1.42-.7-2.14-1l-2.8-1.28c.43,1.12,1.19,2.44,1,2.63a7,7,0,0,1-3,1.5c-4.61,1-5.09,1.63-5,6.54a4.67,4.67,0,0,1-.42,1.39Z" transform="translate(-158.38 -224.82)" fill="#c1c1c1"/>
    <path d="M216.1,374.32l.4-2.45c-3.33-1-5.54-2.92-5.55-6.8,0-1.89-2.48-2.58-4.68-1.45-.73.37-1.4.85-2.12,1.25s-1.42.74-2.44,1.28c3-3.33,12.42-9.72,26.37-13.07.77,3.45-.26,6.62-1.54,9.67-2,4.78-5,8.83-9.66,11.34a2.75,2.75,0,0,1-1,.12Z" transform="translate(-158.38 -224.82)" fill="#c1c1c1"/>
    <path d="M290,348.78a18.56,18.56,0,0,1,2.78-.68c3.75-.35,7.51-.59,11.26-.92a10.55,10.55,0,0,1,10.23,4.59,15.58,15.58,0,0,1,2.4,4.83l-2.42-3.29c-.57,1-1,1.69-1.42,2.41-.25.42-.43,1-.81,1.22-3.48,1.8-2.31,4.14-.84,6.55a12.42,12.42,0,0,1,.57,1.68A122.81,122.81,0,0,0,290,348.78Z" transform="translate(-158.38 -224.82)" fill="#c1c1c1"/>
    <path d="M194.79,354.69c3.41-7.07,6.44-9.09,14.29-8,4.49.65,9.16.12,13.83.38A128.64,128.64,0,0,0,198,365.31c1.11-1.7,2.27-3.35,3.3-5.09,1.26-2.13.48-3.45-1.89-3.68a3.83,3.83,0,0,1-2-1.31,6.52,6.52,0,0,1-.88-1.84l-.9-.49Z" transform="translate(-158.38 -224.82)" fill="#c1c1c1"/>
    <path d="M192.26,422.89c7.07,2.27,10.77,6.67,11.6,13.16.65,5.09.67,10.27,1,15.4l-.75.16c-1.25-3.06-2.42-6.16-3.78-9.18-1.95-4.34-4.12-8.58-6-12.93A62.47,62.47,0,0,1,192.26,422.89Z" transform="translate(-158.38 -224.82)" fill="#adadad"/>
    <path d="M306,378.74l19.5,1.24.35-1.16-9.64-6.18.41-2.31c2.51,2,4.9,4.08,7.43,5.95a6.94,6.94,0,0,0,2.59.6l-.06,0,3.06,2.7-.38.69c-7.75-.06-15.56.86-23.19-1.59Z" transform="translate(-158.38 -224.82)" fill="#c1c1c1"/>
    <path d="M184.89,374.7c.6,2.4,1.81.9,2.64.3,2.3-1.67,4.51-3.48,6.76-5.24l1.86.94-11.32,7.42.06.61a85,85,0,0,0,13.95-.06h0a6.55,6.55,0,0,1-1.78.58q-6.4.15-12.81.16a17.32,17.32,0,0,1-2.62-.43Z" transform="translate(-158.38 -224.82)" fill="#c1c1c1"/>
    <path d="M216.1,374.32l-.16-.11c-1.33.77-2.58,1.93-4,2.24-4.33.92-8.73,1.51-13.1,2.23h0c5.22-.51,10.31-1.45,14.93-4.2C214.35,374.12,215.31,374.36,216.1,374.32Z" transform="translate(-158.38 -224.82)" fill="#c1c1c1"/>
    <path d="M239.1,253.86l-5.24,8.9-.75-.49c2-2.78,3-6.21,6.11-8.27Z" transform="translate(-158.38 -224.82)" fill="#c1c1c1"/>
    <path d="M249.63,234.52c.15.45.56,1,.41,1.34-1.34,2.79-2.76,5.55-4.2,8.29-.12.22-.58.26-.87.39l0,.06q2.34-5,4.67-10Z" transform="translate(-158.38 -224.82)" fill="#c1c1c1"/>
    <path d="M239.1,253.86l.12.14a7.37,7.37,0,0,1,.62-2c1.68-2.51,3.44-5,5.17-7.42l-.05-.07C243.93,248.22,241.66,251.13,239.1,253.86Z" transform="translate(-158.38 -224.82)" fill="#c1c1c1"/>
    <path d="M326.67,376.87c-3.29-1.64-4.35-4.75-5.36-7.89l5.29,7.94Z" transform="translate(-158.38 -224.82)" fill="#c1c1c1"/>
    <path d="M295.53,376.26a6.37,6.37,0,0,1,2.14-.15c2.8.81,5.56,1.75,8.35,2.64l.07,0-10.54-2.46Z" transform="translate(-158.38 -224.82)" fill="#c1c1c1"/>
    <path d="M284.21,330.13c-2.72,5-5.49,10-8.13,15.06-3.45,6.62-6.77,13.3-10.22,19.92a38.81,38.81,0,0,1-2.86,4c-1.45-3.58-3.83-2-5.75-2-5.16.08-10.31.42-15.47.49-.51,0-1.33-1.06-1.51-1.76-2.39-9.3-5.35-18.39-9.94-26.88-1.58-2.92-3-5.89-4.8-9.32l8.73,4.68c6.28,3.37,12.94,5.84,20,6.37,7.88.58,15.21-1.86,21.93-6,2.57-1.58,5.08-3.25,7.62-4.88Z" transform="translate(-158.38 -224.82)" fill="#c1c1c1"/>
  </g>
  <text transform="translate(186.49 184.37)" font-size="80" fill="#adadad" font-family="Merriweather-BlackItalic, Merriweather" font-style="italic">ecoIdeas</text>
</svg>
