<svg xmlns="http://www.w3.org/2000/svg" viewBox="0 0 685.21 291.89">
  <title>green-energy</title>
  <g>
    <path d="M236.4,393.25l-5.82-43.79.85-.26,32.86,76.89-23.44-1.36,19.29,61.53-29.39-1.77,5.74,43.55-.84.29-32.81-76.72L226.3,453,207,391.45Z" transform="translate(-80.55 -236.45)" fill="#adadad"/>
    <path d="M212.7,367.25,180,351.41c-10.73-5.19-21.47-10.37-32.54-15.06l59,40.21-.2,1.37c-6.41.31-12.87,1.21-19.24.82-32.81-2-59.82-24.28-68.42-56-.66-2.41-1-4.07,2.34-5a75.4,75.4,0,0,1,91.36,47.45C212.39,365.57,212.42,365.94,212.7,367.25Z" transform="translate(-80.55 -236.45)" fill="#c1c1c1"/>
    <path d="M325,435.66l-59.35-40.32c8.56-2.74,16.83-2.51,24.82-1.25,32.42,5.09,53.74,23.37,63.47,54.87,1.42,4.59,1.32,4.62-3.28,5.77-36.51,9.14-72.48-8.08-87.89-42.1-1-2.17-1.77-4.43-3.05-7.67l32.89,15.86,32.11,15.55Z" transform="translate(-80.55 -236.45)" fill="#c1c1c1"/>
    <path d="M232.93,270.27l-5.29,71.62c-24.92-24.08-29-75.84,5.43-105.44,31.71,25.48,33.44,77.47,5.76,105.66l-5.34-71.87Z" transform="translate(-80.55 -236.45)" fill="#c1c1c1"/>
    <path d="M200.77,395.32l-60.11,40.89.28.5,64.68-31.28.8.46c-1.63,3.74-3.07,7.59-4.93,11.22-16,31-52.79,47-86.36,37.56-3-.83-3.77-1.78-2.94-5a75.31,75.31,0,0,1,84.6-55.3C197.85,394.56,198.88,394.87,200.77,395.32Z" transform="translate(-80.55 -236.45)" fill="#c1c1c1"/>
    <path d="M259.49,376.91,319,336.38l-.31-.52-64.65,31.21c11-38.64,56.53-62.18,94.24-47.87C341,360.29,297.43,386.42,259.49,376.91Z" transform="translate(-80.55 -236.45)" fill="#c1c1c1"/>
    <path d="M160,279.62l28.65,33.23c-21.84,3.77-48.54-26.07-45.23-50,22.34-3.55,50.34,17,50.52,45.13L160.42,279.1Z" transform="translate(-80.55 -236.45)" fill="#c1c1c1"/>
    <path d="M80.55,386.09c17.51-20.55,49.92-20.93,67.93-3.54l-44.9,3.33,0,.53,44.37,3.35C137,407.93,94,405.54,80.55,386.09Z" transform="translate(-80.55 -236.45)" fill="#c1c1c1"/>
    <path d="M278.09,313.12l28.46-33-.53-.56-32.61,28.11-.88-.3c.49-2.84.79-5.73,1.49-8.52,5.26-21.24,24.63-36.48,46.22-36.52,2.17,0,3.57.11,3.65,3,.68,23.76-20.24,46.78-43.88,48.1A12.89,12.89,0,0,1,278.09,313.12Z" transform="translate(-80.55 -236.45)" fill="#c1c1c1"/>
    <path d="M312.78,389.82,358,386.43l0-.55-44.77-3.29c14.48-15.9,48.45-18.67,67.3,3.39C367.27,403.76,334.4,409.74,312.78,389.82Z" transform="translate(-80.55 -236.45)" fill="#c1c1c1"/>
  </g>
  <g>
    <path d="M679.51,439.57c16.94,3.81,21.44,1.93,23.24-9.87-1.34,1-2.44,1.88-3.62,2.66-7,4.6-15.05,1.66-17.46-6.33C677.3,411.53,688,396,703.08,395.4c6-.23,12.13.65,19,1.07-1.05,5-1.88,9-2.74,13-1.75,8.12-3.1,16.35-5.38,24.32-4.15,14.51-19.61,21.51-33.52,15.42-1.15-.5-2.17-2.6-2.22-4C678.1,443.36,679,441.44,679.51,439.57Zm29.52-35c-9.46-2.09-15.92,3.62-15.91,13.43,0,2.33,2,4.67,3.15,7,2.33-1.24,5.82-1.91,6.76-3.83C705.59,416,707.08,410.25,709,404.61Z" transform="translate(-80.55 -236.45)" fill="#a8a8a8"/>
    <path d="M716.87,449.7l1.91-8.47c5.31,1.11,10,.33,12.19-5a13.42,13.42,0,0,0,1.24-6.91c-1.85-10.81-4.09-21.55-6.28-32.78h12.28l3.11,25c3.59-7.06,7-12.94,9.61-19.17,2-4.87,4.85-7.11,10.1-6.22a25.9,25.9,0,0,0,4.35,0c.19.6.46,1,.36,1.17-8.57,14.66-16.9,29.47-25.85,43.89C734.36,450.08,727.25,452.4,716.87,449.7Z" transform="translate(-80.55 -236.45)" fill="#a8a8a8"/>
    <path d="M568.69,433.59l7.71-37.19h11v5.11c2.66-1.74,5-4.29,7.83-4.87,3.64-.75,8.08-1,11.3.49,4,1.82,4.15,6.54,3.34,10.66-1.4,7.19-3.18,14.31-4.41,21.53-.56,3.3-1.85,4.65-5.18,4.32-2.27-.22-4.59,0-7.58,0,1.61-7.95,3.27-15.2,4.45-22.53.32-2-.79-4.15-1.24-6.24-2.13.61-5,.57-6.22,2a28.78,28.78,0,0,0-5.25,9.35,69.78,69.78,0,0,0-2.85,13.15c-.45,3.32-1.77,4.68-5.13,4.34C574.18,433.41,571.85,433.59,568.69,433.59Z" transform="translate(-80.55 -236.45)" fill="#a8a8a8"/>
    <path d="M543.73,419.51c1.29,7.12,4.73,7.77,18.05,3.85,1.12,6.31-.16,8.65-5.92,10-7.71,1.81-15.62,2.63-21-4.64s-3.65-15.23.25-22.61c4.45-8.4,14.51-12.67,23.85-10.53,4.78,1.1,8.1,3.83,9,8.87a10.38,10.38,0,0,1-6.35,11.34,55.08,55.08,0,0,1-10.5,2.86A73.42,73.42,0,0,1,543.73,419.51Zm1.08-7.31c3.69-.86,6.63-1.07,9-2.31,1.31-.67,1.71-3.09,2.52-4.73-1.7-.57-3.58-1.91-5.08-1.57C547.46,404.45,545.3,407.2,544.81,412.2Z" transform="translate(-80.55 -236.45)" fill="#a8a8a8"/>
    <path d="M625.93,420.37c1.45,6.27,4.89,6.88,18.15,2.94.64,7.17-.47,8.78-7.08,10.31-9.69,2.24-17.33,0-21-6.06-3.83-6.36-2.41-17.71,3.17-24.37,5.79-6.91,13.34-9.13,22-7.54,4.56.84,7.93,3.54,8.75,8.43s-.86,9.4-5.47,11.21C638.64,417.55,632.4,418.65,625.93,420.37Zm.27-10.12,1.22,1.69c2.68-.54,5.65-.57,7.94-1.82,1.51-.83,2.05-3.43,3-5.24-2-.37-4.64-1.69-6-.89C629.93,405.4,628.22,408.09,626.2,410.25Z" transform="translate(-80.55 -236.45)" fill="#a8a8a8"/>
    <path d="M355.57,443.21c16.53,4.89,22.48,1.18,25.33-16.63a61.78,61.78,0,0,1-4.38,4.7c-6.79,5.8-15.71,2.79-17.7-5.92-3.76-16.46,8-30.65,24.78-29.81,2.95.15,5.87.7,9.39,1.14-.68,3.53-1.21,6.57-1.86,9.6-2,9.6-3.69,19.31-6.29,28.76-3.59,13-14.51,18.63-26.63,14.59C354.78,448.5,353.44,446.94,355.57,443.21ZM387,401.64c-14.56-3.46-25,7.13-22.56,21.1,1.11,6.39,6.1,8.51,11.3,4.55a14.13,14.13,0,0,0,4.72-5.64C382.87,415.21,384.75,408.56,387,401.64Z" transform="translate(-80.55 -236.45)" fill="#a8a8a8"/>
    <path d="M682.64,395.91c-.1.93-.13,1.73-.27,2.51-.5,2.6-1,5.19-1.55,7.73-9.91,0-12.64,2.26-14.86,12.18q-.71,3.17-1.39,6.34c-2.19,10-2.73,10.38-13.59,8.24l7.44-36.43h10.93v5.38C672.91,397.32,676.48,393.76,682.64,395.91Z" transform="translate(-80.55 -236.45)" fill="#a8a8a8"/>
    <path d="M426.67,418.15c-.14,10.87,5.8,13.32,19.24,8.48,1.07,3.43-.48,5.28-3.55,6.25-6,1.86-11.94,2.44-17.09-1.8s-5.63-10.32-4.53-16.47c2.23-12.46,11.12-20.2,21.65-19,4.74.52,8.17,2.8,9.42,7.59a9.69,9.69,0,0,1-5.58,11.13c-4.06,1.7-8.57,2.39-12.93,3.31A52.14,52.14,0,0,1,426.67,418.15Zm1-4.33c5.07-1.06,10.05-1.51,14.49-3.3,1.83-.74,3.54-4.46,3.31-6.61-.14-1.36-3.95-3.24-6.15-3.3C433.46,400.45,428.47,406.07,427.64,413.81Z" transform="translate(-80.55 -236.45)" fill="#a8a8a8"/>
    <path d="M462.53,418.15c.68,11.36,5.81,13.38,20.56,9.26-1.35,1.72-2.34,4.18-4.1,5-5.7,2.68-11.66,2.79-17.07-.91-5.17-3.54-5.84-9.09-5.41-14.7.94-12,9.15-20.93,19.23-21.34,6.54-.27,11.17,2.76,12.15,7.95s-1.93,10.07-8.07,12c-3.75,1.2-7.77,1.61-11.68,2.26C466.39,418,464.59,418,462.53,418.15Zm.47-4.31c5.57-1,10.15-1.55,14.51-2.82,3.27-.95,6-3.81,4-7.12-1.1-1.89-5-3.41-7.34-3.06C468,401.76,464.9,406.41,463,413.83Z" transform="translate(-80.55 -236.45)" fill="#a8a8a8"/>
    <path d="M490.39,432.9c1.8-8.48,3.56-16.74,5.3-25,.51-2.44,1-4.89,1.44-7.35.74-4.26.71-4.26,5.91-3.71l-.4,6.7c2.75-2.31,5-4.73,7.8-6.42,3.77-2.31,8.54-3.08,11.6.19a14.44,14.44,0,0,1,3.38,10.14c-.73,7.41-2.76,14.7-4.33,22-.89,4.14-1,4.13-6.33,3.1.88-4.52,1.75-9,2.65-13.57.58-2.94,1.69-5.88,1.65-8.81s-.2-7.18-2.07-8.79c-3.19-2.73-7.32-.49-9.69,2.32a43.8,43.8,0,0,0-7.15,11.7c-1.71,4.27-2.42,9-3.09,13.6C496.46,433.1,494.44,433.9,490.39,432.9Z" transform="translate(-80.55 -236.45)" fill="#a8a8a8"/>
    <path d="M421.07,401.62c-8.07-.49-11.77,1.6-14.45,9.29a140.62,140.62,0,0,0-4.64,18.3c-.79,3.9-2.55,5-6.61,3.47L399,414.83l3.71-18.14,5-.26v6.72c3.86-4.51,6.94-9.56,14-6.79Z" transform="translate(-80.55 -236.45)" fill="#a8a8a8"/>
  </g>
</svg>
