<svg xmlns="http://www.w3.org/2000/svg" viewBox="0 0 360.86 150">
  <title>greenenergy</title>
  <g>
    <path d="M27.18,88l-3-22.5.44-.13,16.89,39.51-12-.7,9.92,31.62-15.1-.91,2.95,22.38-.43.15L9.94,118l12.05.71L12.05,87.05Z" transform="translate(52.91 -7.4)" fill="#adadad"/>
    <path d="M15,74.61-1.82,66.47c-5.52-2.67-11-5.33-16.72-7.74L11.78,79.39l-.1.7a91.31,91.31,0,0,1-9.89.42A38.65,38.65,0,0,1-33.37,51.76c-.34-1.24-.52-2.09,1.2-2.57A38.75,38.75,0,0,1,14.78,73.58C14.84,73.75,14.86,73.94,15,74.61Z" transform="translate(52.91 -7.4)" fill="#c1c1c1"/>
    <path d="M72.73,109.77,42.23,89A27.1,27.1,0,0,1,55,88.4c16.66,2.61,27.62,12,32.62,28.2.73,2.36.68,2.38-1.68,3-18.76,4.7-37.25-4.15-45.16-21.63-.51-1.12-.91-2.28-1.57-3.94l16.9,8.15,16.5,8Z" transform="translate(52.91 -7.4)" fill="#c1c1c1"/>
    <path d="M25.4,24.78,22.68,61.58C9.88,49.21,7.8,22.61,25.47,7.4c16.3,13.09,17.18,39.81,3,54.3L25.68,24.76Z" transform="translate(52.91 -7.4)" fill="#c1c1c1"/>
    <path d="M8.87,89l-30.89,21,.15.26L11.37,94.23l.41.24c-.84,1.92-1.58,3.9-2.53,5.76a38.69,38.69,0,0,1-44.38,19.3c-1.52-.43-1.94-.91-1.51-2.55A38.7,38.7,0,0,1,6.83,88.56C7.37,88.65,7.9,88.81,8.87,89Z" transform="translate(52.91 -7.4)" fill="#c1c1c1"/>
    <path d="M39,79.58,69.64,58.75l-.16-.27-33.22,16c5.63-19.86,29.05-32,48.43-24.6C80.94,71,58.55,84.46,39,79.58Z" transform="translate(52.91 -7.4)" fill="#c1c1c1"/>
    <path d="M-12.06,29.58,2.66,46.66C-8.56,48.6-22.29,33.26-20.59,21c11.48-1.82,25.87,8.74,26,23.19L-11.86,29.31Z" transform="translate(52.91 -7.4)" fill="#c1c1c1"/>
    <path d="M-52.91,84.3c9-10.56,25.65-10.75,34.91-1.82l-23.08,1.71v.27l22.8,1.72C-23.9,95.52-46,94.29-52.91,84.3Z" transform="translate(52.91 -7.4)" fill="#c1c1c1"/>
    <path d="M48.61,46.8l14.63-17L63,29.53,46.2,44l-.45-.15c.25-1.46.41-2.94.76-4.38A24.79,24.79,0,0,1,70.26,20.68c1.11,0,1.83.06,1.87,1.53.35,12.21-10.4,24-22.55,24.72A6.63,6.63,0,0,1,48.61,46.8Z" transform="translate(52.91 -7.4)" fill="#c1c1c1"/>
    <path d="M66.43,86.21,89.7,84.47v-.28l-23-1.69c7.44-8.17,24.9-9.59,34.58,1.74C94.44,93.38,77.54,96.45,66.43,86.21Z" transform="translate(52.91 -7.4)" fill="#c1c1c1"/>
  </g>
  <g>
    <path d="M262.06,113.07c9,2,11.41,1,12.37-5.25-.72.53-1.3,1-1.93,1.42a5.91,5.91,0,0,1-9.29-3.37c-2.32-7.71,3.36-16,11.39-16.3,3.22-.12,6.45.34,10.09.57-.56,2.67-1,4.8-1.46,6.93-.93,4.32-1.65,8.7-2.86,12.94a12.87,12.87,0,0,1-17.84,8.2,2.8,2.8,0,0,1-1.18-2.13A11,11,0,0,1,262.06,113.07Zm15.7-18.6c-5-1.11-8.47,1.93-8.47,7.15,0,1.24,1.09,2.48,1.67,3.72,1.24-.66,3.09-1,3.6-2A76.68,76.68,0,0,0,277.77,94.47Z" transform="translate(52.91 -7.4)" fill="#a8a8a8"/>
    <path d="M281.94,118.47l1-4.5c2.83.59,5.31.18,6.49-2.68a7.14,7.14,0,0,0,.66-3.68c-1-5.75-2.18-11.47-3.34-17.44h6.54l1.65,13.29c1.91-3.75,3.74-6.88,5.11-10.2,1.07-2.59,2.58-3.78,5.38-3.31a13.78,13.78,0,0,0,2.31,0c.1.32.25.53.19.62-4.56,7.8-9,15.68-13.75,23.35C291.25,118.67,287.46,119.9,281.94,118.47Z" transform="translate(52.91 -7.4)" fill="#a8a8a8"/>
    <path d="M203.1,109.9l4.1-19.79h5.85v2.72c1.41-.92,2.68-2.28,4.17-2.59a10.36,10.36,0,0,1,6,.26c2.11,1,2.21,3.48,1.78,5.67-.74,3.83-1.69,7.61-2.35,11.45-.3,1.76-1,2.47-2.76,2.3-1.21-.12-2.44,0-4,0,.86-4.23,1.74-8.09,2.37-12,.17-1-.42-2.21-.66-3.32-1.13.33-2.66.3-3.31,1a15.31,15.31,0,0,0-2.8,5,37.13,37.13,0,0,0-1.52,7c-.24,1.77-.94,2.49-2.73,2.31C206,109.8,204.78,109.9,203.1,109.9Z" transform="translate(52.91 -7.4)" fill="#a8a8a8"/>
    <path d="M189.82,102.4c.69,3.79,2.52,4.13,9.61,2,.59,3.35-.08,4.6-3.15,5.32-4.1,1-8.31,1.4-11.18-2.47s-1.94-8.1.13-12a11.53,11.53,0,0,1,12.69-5.6c2.55.58,4.31,2,4.76,4.72a5.52,5.52,0,0,1-3.38,6,29.31,29.31,0,0,1-5.59,1.52A39.06,39.06,0,0,1,189.82,102.4Zm.57-3.89c2-.46,3.53-.57,4.81-1.23.69-.36.91-1.65,1.34-2.52-.91-.3-1.9-1-2.7-.84C191.8,94.39,190.65,95.85,190.39,98.51Z" transform="translate(52.91 -7.4)" fill="#a8a8a8"/>
    <path d="M233.56,102.86c.77,3.33,2.6,3.66,9.66,1.56.34,3.81-.25,4.67-3.77,5.49-5.15,1.19-9.22,0-11.17-3.22s-1.28-9.42,1.69-13,7.1-4.86,11.69-4a5.3,5.3,0,0,1,4.65,4.49c.44,2.64-.46,5-2.91,6A91.2,91.2,0,0,1,233.56,102.86Zm.14-5.38.65.9c1.43-.29,3-.3,4.22-1,.8-.44,1.09-1.82,1.61-2.79-1.09-.2-2.47-.9-3.2-.48C235.68,94.9,234.77,96.33,233.7,97.48Z" transform="translate(52.91 -7.4)" fill="#a8a8a8"/>
    <path d="M89.7,115c8.79,2.6,12,.63,13.48-8.85a32.87,32.87,0,0,1-2.33,2.5c-3.61,3.09-8.36,1.48-9.42-3.15-2-8.76,4.26-16.31,13.18-15.86,1.57.08,3.12.37,5,.61-.36,1.88-.65,3.5-1,5.11-1.09,5.11-2,10.28-3.35,15.3-1.91,6.93-7.72,9.91-14.17,7.76C89.28,117.83,88.57,117,89.7,115Zm16.71-22.12c-7.75-1.84-13.3,3.8-12,11.23.59,3.4,3.24,4.53,6,2.42a7.52,7.52,0,0,0,2.51-3C104.23,100.11,105.23,96.58,106.41,92.89Z" transform="translate(52.91 -7.4)" fill="#a8a8a8"/>
    <path d="M263.73,89.85c-.05.5-.07.92-.15,1.33-.26,1.38-.55,2.76-.83,4.11-5.27,0-6.73,1.2-7.91,6.48q-.38,1.68-.74,3.37c-1.17,5.34-1.45,5.52-7.23,4.39l4-19.38h5.82V93C258.55,90.59,260.45,88.7,263.73,89.85Z" transform="translate(52.91 -7.4)" fill="#a8a8a8"/>
    <path d="M127.53,101.68c-.08,5.78,3.09,7.09,10.24,4.51.57,1.82-.25,2.81-1.89,3.32-3.17,1-6.35,1.3-9.09-1s-3-5.49-2.41-8.76c1.19-6.63,5.92-10.75,11.52-10.13,2.52.28,4.35,1.49,5,4a5.16,5.16,0,0,1-3,5.92,38.32,38.32,0,0,1-6.88,1.76A27.74,27.74,0,0,1,127.53,101.68Zm.52-2.31c2.7-.56,5.35-.8,7.71-1.76,1-.39,1.88-2.37,1.76-3.51-.08-.72-2.1-1.73-3.27-1.76C131.15,92.26,128.49,95.25,128.05,99.37Z" transform="translate(52.91 -7.4)" fill="#a8a8a8"/>
    <path d="M146.62,101.68c.36,6,3.09,7.12,10.94,4.93-.72.91-1.24,2.23-2.18,2.67a8.75,8.75,0,0,1-9.08-.49c-2.75-1.88-3.11-4.84-2.88-7.82.5-6.37,4.87-11.14,10.23-11.35,3.48-.14,5.94,1.47,6.47,4.23s-1,5.36-4.29,6.4a43.75,43.75,0,0,1-6.22,1.2C148.67,101.59,147.71,101.6,146.62,101.68Zm.25-2.29c3-.55,5.4-.83,7.72-1.5,1.74-.5,3.17-2,2.15-3.79a4.67,4.67,0,0,0-3.91-1.63C149.53,93,147.87,95.43,146.87,99.38Z" transform="translate(52.91 -7.4)" fill="#a8a8a8"/>
    <path d="M161.44,109.53c1-4.51,1.89-8.91,2.82-13.3.27-1.3.54-2.6.77-3.91.39-2.27.38-2.27,3.14-2L168,93.91a37.68,37.68,0,0,1,4.15-3.41c2-1.23,4.54-1.64,6.17.1a7.69,7.69,0,0,1,1.8,5.4,106.08,106.08,0,0,1-2.31,11.72c-.47,2.2-.51,2.2-3.37,1.65.47-2.4.93-4.81,1.41-7.22a23.47,23.47,0,0,0,.88-4.69c0-1.61-.11-3.82-1.1-4.68-1.7-1.45-3.9-.26-5.15,1.23a23.3,23.3,0,0,0-3.8,6.23,32,32,0,0,0-1.65,7.24C164.67,109.64,163.59,110.06,161.44,109.53Z" transform="translate(52.91 -7.4)" fill="#a8a8a8"/>
    <path d="M124.56,92.89c-4.29-.26-6.26.85-7.69,4.94a74.82,74.82,0,0,0-2.47,9.74c-.42,2.07-1.36,2.68-3.51,1.85l1.95-9.5,2-9.65,2.67-.14V93.7c2.05-2.4,3.69-5.09,7.47-3.61Z" transform="translate(52.91 -7.4)" fill="#a8a8a8"/>
  </g>
</svg>
