<svg xmlns="http://www.w3.org/2000/svg" viewBox="0 0 275.91 77.32">
  <title>logo-env-action-conf-dark</title>
  <path d="M12.62,53.14A38.41,38.41,0,1,1,51,91.59,38.32,38.32,0,0,1,12.62,53.14ZM34.3,45.54l.16-.12a2.58,2.58,0,0,1,.27.34c.26.46.47.95.75,1.39q1,1.58,2,3.13a6.28,6.28,0,0,1,1.14,2.81,1.35,1.35,0,0,0,.57.86c1.3.81,2.62,1.59,4,2.31a1.6,1.6,0,0,0,1.23.14,1.4,1.4,0,0,1,1.81.35A3.63,3.63,0,0,0,48.85,58,2,2,0,0,1,50.6,59a4.6,4.6,0,0,0,1.77,1.68c.43.24.88.45,1.31.68.7.38,1.1.39,1.49-.35.23-.43.58-.44.88-.06.71.87,1.16,2.82-.16,3.93A4.4,4.4,0,0,0,54.6,67a1.69,1.69,0,0,0,.07,1,.92.92,0,0,1-.09,1,1.21,1.21,0,0,0,.14,1.88c.31.33.68.61,1,1a3,3,0,0,1,.62,1,5,5,0,0,0,3.2,3.43c.92.36,1,.52.81,1.48a16.56,16.56,0,0,1-3.65,7.63c-.23.28-.56.57-.62.89a5.07,5.07,0,0,1-1.35,2.21,5.29,5.29,0,0,0-.45.62.58.58,0,0,0,.18.82A1.13,1.13,0,0,0,56,89.5a1.39,1.39,0,0,1,.42-.47c.48-.36,1-.66,1.47-1a20.14,20.14,0,0,1,3.91-2.71,12.54,12.54,0,0,0,3.06-2c.89-.82,2-1.43,2.87-2.25a20.07,20.07,0,0,0,2.62-2.86,8.61,8.61,0,0,1,1.81-1.87,13.34,13.34,0,0,0,1.51-1.18,5.49,5.49,0,0,0,1-1.4c.69-1.39,1.3-2.82,2-4.21a18.24,18.24,0,0,0,1.68-4.67c0-.25-.06-.7-.23-.79a5.79,5.79,0,0,0-1.84-.63,21.76,21.76,0,0,0-2.68,0c-.76,0-1-.18-1.07-.92a2.33,2.33,0,0,0-.25-.83,9.68,9.68,0,0,0-1-1.45,1,1,0,0,0-.78-.37,3.72,3.72,0,0,1-2.89-.71,6.51,6.51,0,0,0-4.6-1,3.27,3.27,0,0,1-2.29-.29.9.9,0,0,0-1.23.14c-.64.6-1.28,1.2-1.89,1.82a.93.93,0,0,1-1.13.29,1.89,1.89,0,0,0-1.63,0,1.37,1.37,0,0,1-2-1.27c0-.62,0-1.24-.07-1.86a.76.76,0,0,0-.79-.8c-.42,0-.84,0-1.26,0-1.4,0-1.59-.28-1.11-1.6.24-.66.49-1.32.73-2-1.21-.43-1.63-.28-2.25.72-.1.16-.18.32-.28.47a2.17,2.17,0,0,1-3.2.13,4,4,0,0,1-.75-4.56,2.58,2.58,0,0,0,.11-.31,2.29,2.29,0,0,1,2.8-1.65c.58.11,1.17.2,1.75.29.12-.87.18-.92,1-.9.38,0,.76.06,1.15.08A1.93,1.93,0,0,1,52.29,48a10.06,10.06,0,0,0,1.2,1.56c.21.25.4.15.45-.14a1.69,1.69,0,0,0,0-.7,15.45,15.45,0,0,0-.57-1.88,1.55,1.55,0,0,1,.46-2.14,10.38,10.38,0,0,0,1.28-1.34,1.54,1.54,0,0,0,.32-1.1,1.39,1.39,0,0,1,.23-1.39c.09-.1.09-.28.17-.4.33-.49.69-1,1-1.44.14-.21.35-.46.33-.68A1.32,1.32,0,0,1,57.89,37c.49-.31.89,0,1.27.3l1.18-1.43a1.69,1.69,0,0,1-1.64-1.06c-.42-.87-.69-.91-1.46-.34a1.09,1.09,0,0,1-.41.09c0-.15,0-.37.11-.43a8.81,8.81,0,0,1,1.35-.78c.34-.15.76-.14,1.11-.26a1.26,1.26,0,0,0,.89-1.2c0-.56-.33-.84-.77-1.09-1.15-.67-2.29-1.36-3.43-2-.25-.15-.48-.32-.73-.49-.07.09-.12.14-.16.2-.54.85-.7.86-1.38.08a2.63,2.63,0,0,0-2.3-.77.63.63,0,0,0-.62.84,4.92,4.92,0,0,0,.75,1.47c.34.45.52.78.08,1.28-.16.19-.14.57-.14.86s.18.34.17.51-.08.58-.22.64a.86.86,0,0,1-.7-.15,1.12,1.12,0,0,1-.31-.62,1.6,1.6,0,0,0-1.46-1.27,16.44,16.44,0,0,1-2.28-.57,1.38,1.38,0,0,1-.94-1.95,7,7,0,0,1,2.35-2.56c.83-.46.87-1,.1-1.57-.25-.18-.63-.3-.73-.55-.36-.8-1.05-.92-1.79-1.05-1-.17-1.35.14-1.2,1.13a1.5,1.5,0,0,0,.31.55c.12.17.26.31.39.47l-.07.2-1.37-.08c-.43,0-.94-.21-1.27,0a1.68,1.68,0,0,1-2-.37,4.44,4.44,0,0,0-3.69-1.15,1,1,0,0,1-.95-.4,15,15,0,0,0-1.32-1.31c-.58-.51-2.12-.52-2.49,0s-1,1.07-1.82.63a3.09,3.09,0,0,0-.15.43C30,24,30,24,29.21,24a1.24,1.24,0,0,0-.74.28,5.74,5.74,0,0,0-.94,1.19,3.47,3.47,0,0,0-.2,1L25,27.14l0,.16a1.72,1.72,0,0,0,.62.16c.83-.12,1.65-.29,2.48-.46a1.25,1.25,0,0,0,.54-.24c.46-.39.9-.72,1.48-.19.05,0,.18,0,.27,0a1.35,1.35,0,0,1,1.18.69A7.85,7.85,0,0,1,32.75,32a8.74,8.74,0,0,0,.15,1.38,3.85,3.85,0,0,1,0,1.43c-.36,1-.84,2-1.29,3a5.1,5.1,0,0,0,.59,5.33,9.51,9.51,0,0,1,1.6,3.64,9,9,0,0,0,1.46,3.33,7.49,7.49,0,0,0,.91.94l.2-.13Zm28-22.62c.43-.86.3-1.21-.58-1.57a8.13,8.13,0,0,1-1.61-.67,13.42,13.42,0,0,0-6.13-2,4.14,4.14,0,0,0-1,.09l.24.69-.81.23a9.1,9.1,0,0,1,.23.9c.14,1,.42,1.19,1.37,1.27a7.14,7.14,0,0,1,5.38,2.72,7.07,7.07,0,0,0,3.05,2.15.8.8,0,0,0,1.08-.22.75.75,0,0,0-.19-1.07,1.28,1.28,0,0,1-.43-1.34.7.7,0,0,0-.34-.9A3.86,3.86,0,0,1,62.29,22.92Zm-6.91,2.51-.28.4c-.45.58-.29,1.07.42,1.28l.95.26c.26.07.55.23.79.17A1.61,1.61,0,0,0,58,27c.05-.07-.23-.44-.4-.65a2.2,2.2,0,0,0-.49-.32l.91-.05A1.54,1.54,0,0,0,57,24.76c-1.5-.51-3-1.08-4.49-1.55a3.65,3.65,0,0,0-1.55,0,.89.89,0,0,0-.59.57.77.77,0,0,0,.44.62c.55.13,1.14.11,1.71.2.42.06.95.08,1.2.34a1.45,1.45,0,0,0,1.09.47C55,25.37,55.14,25.4,55.38,25.43ZM57,53.25c.22-.15.57-.27.65-.49s-.23-.45-.51-.56a3.45,3.45,0,0,1-.47-.28,6.67,6.67,0,0,0-3.57-.8c-.31,0-.8,0-.78.48s.49.31.78.33a4.31,4.31,0,0,1,3,1A2.7,2.7,0,0,0,57,53.25ZM50.58,20.59l-.24,1.27c.59.09,1.14.15,1.53-.3a2,2,0,0,0,.37-1.76c0-.15-.33-.39-.46-.36-.67.13-1.34.33-2,.51l0,.19Z" transform="translate(-0.31 -14.52)" fill="#c4c4c4" stroke="#ec5242" stroke-miterlimit="10" stroke-width="0.5"/>
  <g>
    <path d="M34.3,45.54l2,5.38-.2.13a7.49,7.49,0,0,1-.91-.94,9,9,0,0,1-1.46-3.33,9.51,9.51,0,0,0-1.6-3.64,5.1,5.1,0,0,1-.59-5.33c.45-1,.92-2,1.29-3a3.85,3.85,0,0,0,0-1.43A8.74,8.74,0,0,1,32.75,32a7.85,7.85,0,0,0-1.22-4.68,1.35,1.35,0,0,0-1.18-.69c-.09,0-.22,0-.27,0-.58-.53-1-.2-1.48.19a1.25,1.25,0,0,1-.54.24c-.82.17-1.65.33-2.48.46A1.72,1.72,0,0,1,25,27.3l0-.16,2.34-.64a3.47,3.47,0,0,1,.2-1,5.74,5.74,0,0,1,.94-1.19,1.24,1.24,0,0,1,.74-.28c.8,0,.8,0,.93-.81a3.09,3.09,0,0,1,.15-.43c.84.44,1.35.07,1.82-.63s1.91-.54,2.49,0a15,15,0,0,1,1.32,1.31,1,1,0,0,0,.95.4A4.44,4.44,0,0,1,40.56,25a1.68,1.68,0,0,0,2,.37c.33-.17.84,0,1.27,0l1.37.08.07-.2c-.13-.15-.27-.3-.39-.47a1.5,1.5,0,0,1-.31-.55c-.16-1,.2-1.3,1.2-1.13.73.13,1.43.25,1.79,1.05.11.24.48.37.73.55.77.55.73,1.11-.1,1.57a7,7,0,0,0-2.35,2.56,1.38,1.38,0,0,0,.94,1.95,16.44,16.44,0,0,0,2.28.57,1.6,1.6,0,0,1,1.46,1.27,1.12,1.12,0,0,0,.31.62.86.86,0,0,0,.7.15c.14-.06.2-.41.22-.64s-.17-.34-.17-.51,0-.67.14-.86c.44-.5.26-.83-.08-1.28a4.92,4.92,0,0,1-.75-1.47.63.63,0,0,1,.62-.84,2.63,2.63,0,0,1,2.3.77c.68.78.84.76,1.38-.08,0-.06.09-.11.16-.2.25.17.48.34.73.49,1.14.69,2.28,1.38,3.43,2,.44.25.8.53.77,1.09a1.26,1.26,0,0,1-.89,1.2c-.36.13-.77.11-1.11.26a8.81,8.81,0,0,0-1.35.78c-.09.06-.07.28-.11.43a1.09,1.09,0,0,0,.41-.09c.77-.56,1-.52,1.46.34a1.69,1.69,0,0,0,1.64,1.06l-1.18,1.43c-.38-.33-.77-.61-1.27-.3a1.32,1.32,0,0,0-.66,1.34c0,.22-.19.47-.33.68-.33.49-.69,1-1,1.44-.08.12-.08.3-.17.4a1.39,1.39,0,0,0-.23,1.39,1.54,1.54,0,0,1-.32,1.1,10.38,10.38,0,0,1-1.28,1.34,1.55,1.55,0,0,0-.46,2.14A15.45,15.45,0,0,1,54,48.75a1.69,1.69,0,0,1,0,.7c-.06.29-.24.39-.45.14A10.06,10.06,0,0,1,52.29,48a1.93,1.93,0,0,0-1.69-1.19c-.38,0-.76-.06-1.15-.08-.8,0-.86,0-1,.9-.58-.1-1.17-.18-1.75-.29A2.29,2.29,0,0,0,43.92,49a2.58,2.58,0,0,1-.11.31,4,4,0,0,0,.75,4.56,2.17,2.17,0,0,0,3.2-.13c.1-.15.18-.32.28-.47.62-1,1-1.15,2.25-.72-.24.66-.49,1.32-.73,2-.48,1.33-.29,1.6,1.11,1.6.42,0,.84,0,1.26,0a.76.76,0,0,1,.79.8c0,.62,0,1.24.07,1.86a1.37,1.37,0,0,0,2,1.27,1.89,1.89,0,0,1,1.63,0,.93.93,0,0,0,1.13-.29c.61-.63,1.25-1.23,1.89-1.82a.9.9,0,0,1,1.23-.14,3.27,3.27,0,0,0,2.29.29,6.51,6.51,0,0,1,4.6,1,3.72,3.72,0,0,0,2.89.71,1,1,0,0,1,.78.37,9.68,9.68,0,0,1,1,1.45,2.33,2.33,0,0,1,.25.83c.1.74.31.93,1.07.92a21.76,21.76,0,0,1,2.68,0,5.79,5.79,0,0,1,1.84.63c.17.08.27.54.23.79a18.24,18.24,0,0,1-1.68,4.67c-.67,1.4-1.28,2.83-2,4.21a5.49,5.49,0,0,1-1,1.4,13.34,13.34,0,0,1-1.51,1.18,8.61,8.61,0,0,0-1.81,1.87A20.07,20.07,0,0,1,67.69,81c-.89.82-2,1.43-2.87,2.25a12.54,12.54,0,0,1-3.06,2A20.14,20.14,0,0,0,57.85,88c-.46.38-1,.68-1.47,1a1.39,1.39,0,0,0-.42.47,1.13,1.13,0,0,1-1.52.41.58.58,0,0,1-.18-.82,5.29,5.29,0,0,1,.45-.62,5.07,5.07,0,0,0,1.35-2.21c.06-.32.38-.61.62-.89a16.56,16.56,0,0,0,3.65-7.63c.19-1,.11-1.12-.81-1.48a5,5,0,0,1-3.2-3.43,3,3,0,0,0-.62-1c-.29-.35-.66-.63-1-1A1.21,1.21,0,0,1,54.58,69a.92.92,0,0,0,.09-1,1.69,1.69,0,0,1-.07-1,4.4,4.4,0,0,1,1.28-2.07c1.33-1.11.87-3.06.16-3.93-.3-.38-.65-.37-.88.06-.39.73-.8.72-1.49.35-.43-.23-.89-.44-1.31-.68A4.6,4.6,0,0,1,50.6,59,2,2,0,0,0,48.85,58a3.63,3.63,0,0,1-2.61-1.21,1.4,1.4,0,0,0-1.81-.35,1.6,1.6,0,0,1-1.23-.14c-1.35-.72-2.68-1.5-4-2.31a1.35,1.35,0,0,1-.57-.86,6.28,6.28,0,0,0-1.14-2.81q-1-1.55-2-3.13c-.28-.45-.5-.93-.75-1.39a2.58,2.58,0,0,0-.27-.34Z" transform="translate(-0.31 -14.52)" fill="#ec5242" stroke="#b9b9b9" stroke-miterlimit="10" stroke-width="0.5"/>
    <path d="M62.29,22.92a3.86,3.86,0,0,0,.31.29.7.7,0,0,1,.34.9,1.28,1.28,0,0,0,.43,1.34.75.75,0,0,1,.19,1.07.8.8,0,0,1-1.08.22,7.07,7.07,0,0,1-3.05-2.15A7.14,7.14,0,0,0,54,21.86c-.95-.08-1.23-.31-1.37-1.27a9.1,9.1,0,0,0-.23-.9l.81-.23L53,18.76a4.14,4.14,0,0,1,1-.09,13.42,13.42,0,0,1,6.13,2,8.13,8.13,0,0,0,1.61.67C62.59,21.71,62.73,22.06,62.29,22.92Z" transform="translate(-0.31 -14.52)" fill="#ec5242" stroke="#b9b9b9" stroke-miterlimit="10" stroke-width="0.5"/>
    <path d="M55.38,25.43c-.25,0-.42-.06-.59-.07a1.45,1.45,0,0,1-1.09-.47c-.25-.26-.78-.28-1.2-.34-.57-.09-1.16-.07-1.71-.2a.77.77,0,0,1-.44-.62.89.89,0,0,1,.59-.57,3.65,3.65,0,0,1,1.55,0c1.51.47,3,1,4.49,1.55A1.54,1.54,0,0,1,58.07,26l-.91.05a2.2,2.2,0,0,1,.49.32c.17.2.45.58.4.65a1.61,1.61,0,0,1-.79.53c-.23.06-.53-.1-.79-.17l-.95-.26c-.71-.22-.87-.71-.42-1.28Z" transform="translate(-0.31 -14.52)" fill="#ec5242" stroke="#b9b9b9" stroke-miterlimit="10" stroke-width="0.5"/>
    <path d="M57,53.25a2.7,2.7,0,0,1-.85-.33,4.31,4.31,0,0,0-3-1c-.29,0-.76.17-.78-.33s.46-.48.78-.48a6.67,6.67,0,0,1,3.57.8,3.45,3.45,0,0,0,.47.28c.28.11.65.2.51.56S57.27,53.1,57,53.25Z" transform="translate(-0.31 -14.52)" fill="#ec5242" stroke="#b9b9b9" stroke-miterlimit="10" stroke-width="0.5"/>
    <path d="M50.58,20.59l-.8-.44,0-.19c.67-.18,1.33-.38,2-.51.13,0,.43.21.46.36a2,2,0,0,1-.37,1.76c-.39.45-.94.39-1.53.3Z" transform="translate(-0.31 -14.52)" fill="#ec5242" stroke="#b9b9b9" stroke-miterlimit="10" stroke-width="0.5"/>
  </g>
  <g>
    <g>
      <path d="M93,39.79a.42.42,0,0,1,.39-.39h10.65a.31.31,0,0,1,.3.33v5.4a.31.31,0,0,1-.33.3H99a.2.2,0,0,0-.21.21v1.68a.23.23,0,0,0,.21.21h2.37a.21.21,0,0,1,.21.21v5.46a.26.26,0,0,1-.24.27H98.94a.21.21,0,0,0-.21.24v1.77a.2.2,0,0,0,.18.21h5.19a.31.31,0,0,1,.33.3v5.58a.33.33,0,0,1-.33.33H93.36A.37.37,0,0,1,93,61.5Z" transform="translate(-0.31 -14.52)" fill="#3f4247"/>
      <path d="M105.87,61.9a.27.27,0,0,1-.24-.3V44.11a.21.21,0,0,1,.21-.21h3.75c.21,0,.45,1.26.57,1.26s.09,0,.21-.18a2.54,2.54,0,0,1,2.34-1.08,3,3,0,0,1,2.94,3.18V61.74a.14.14,0,0,1-.15.15h-4.14a.2.2,0,0,1-.21-.21V49.42c0-.45-.24-.6-.48-.6s-.48.15-.48.6v12.3c0,.12-.06.18-.21.18Z" transform="translate(-0.31 -14.52)" fill="#3f4247"/>
      <path d="M116.25,44.11c0-.12,0-.21.12-.21h3.93a.25.25,0,0,1,.24.21l.72,5.37c0,.18.09.27.12.27s.09-.09.12-.27l.78-5.34a.28.28,0,0,1,.24-.24h3.87a.21.21,0,0,1,.18.27l-2.85,17.49c0,.15-.12.24-.24.24h-4.11a.29.29,0,0,1-.27-.27Z" transform="translate(-0.31 -14.52)" fill="#3f4247"/>
      <path d="M132,61.65a.23.23,0,0,1-.21.24h-4.41a.29.29,0,0,1-.24-.27V44.26a.32.32,0,0,1,.3-.36h4.26a.3.3,0,0,1,.3.3Zm-.3-19a.31.31,0,0,1-.3.33h-3.66a.36.36,0,0,1-.3-.36V38.89a.35.35,0,0,1,.3-.33h3.69a.26.26,0,0,1,.27.24Z" transform="translate(-0.31 -14.52)" fill="#3f4247"/>
      <path d="M133.23,44.14c0-.15.06-.24.18-.24h4.23c.18,0,.39,1,.54,1s.12-.06.18-.21c.3-.72,1-.75,1.89-.75a.2.2,0,0,1,.18.21v4.32a.19.19,0,0,1-.21.21c-1.53,0-2.13.81-2.13,3.24v9.75a.27.27,0,0,1-.27.27h-4.38a.21.21,0,0,1-.21-.24Z" transform="translate(-0.31 -14.52)" fill="#3f4247"/>
      <path d="M141.27,48.55c0-2.76,2.07-4.65,5.16-4.65s5.16,1.86,5.16,4.8v8.52c0,2.79-2.07,4.68-5.16,4.68s-5.16-1.92-5.16-4.68ZM146,56.44c0,.36.15.6.48.6s.48-.24.48-.6V49.3c0-.33-.18-.6-.48-.6s-.48.27-.48.6Z" transform="translate(-0.31 -14.52)" fill="#3f4247"/>
      <path d="M152.85,61.9a.27.27,0,0,1-.24-.3V44.11a.21.21,0,0,1,.21-.21h3.75c.21,0,.45,1.26.57,1.26s.09,0,.21-.18a2.54,2.54,0,0,1,2.34-1.08,3,3,0,0,1,2.94,3.18V61.74a.14.14,0,0,1-.15.15h-4.14a.2.2,0,0,1-.21-.21V49.42c0-.45-.24-.6-.48-.6s-.48.15-.48.6v12.3c0,.12-.06.18-.21.18Z" transform="translate(-0.31 -14.52)" fill="#3f4247"/>
      <path d="M179.52,61.57c0,.18-.09.33-.27.33h-4a.31.31,0,0,1-.27-.33V49.42c0-.45-.24-.63-.48-.63s-.48.18-.48.63V61.6c0,.18-.09.3-.27.3h-4.11a.25.25,0,0,1-.27-.27V49.39c0-.45-.24-.6-.48-.6s-.48.15-.48.6v12.3a.21.21,0,0,1-.24.21H164a.21.21,0,0,1-.21-.24V44.14a.26.26,0,0,1,.27-.24H168c.24,0,.42,1.29.63,1.29s.18-.06.33-.24a3.09,3.09,0,0,1,2.25-1A2.71,2.71,0,0,1,173.52,45c.15.21.27.3.36.3a.58.58,0,0,0,.36-.24,3.47,3.47,0,0,1,2.46-1.14A3,3,0,0,1,179.52,47Z" transform="translate(-0.31 -14.52)" fill="#3f4247"/>
      <path d="M180.54,48.76c0-3.54,2.73-4.86,5.16-4.86A5.25,5.25,0,0,1,191,49.44v1.83a.27.27,0,0,1-.27.27h-5c-.12,0-.18.09-.18.24v4.71c0,.48.21.66.48.66s.48-.18.48-.63V54.69a.24.24,0,0,1,.27-.24l3.87.21a.33.33,0,0,1,.3.33v1.92c0,3.84-2.64,5-5.4,5-3.21,0-5-2.28-5-5.7Zm5,1a.17.17,0,0,0,.18.15c.69,0,.78,0,.78-.15,0-1.92,0-2.13-.51-2.13-.24,0-.45.18-.45.63Z" transform="translate(-0.31 -14.52)" fill="#3f4247"/>
      <path d="M192.3,61.9a.27.27,0,0,1-.24-.3V44.11a.21.21,0,0,1,.21-.21H196c.21,0,.45,1.26.57,1.26s.09,0,.21-.18a2.54,2.54,0,0,1,2.34-1.08,3,3,0,0,1,2.94,3.18V61.74a.14.14,0,0,1-.15.15h-4.14a.2.2,0,0,1-.21-.21V49.42c0-.45-.24-.6-.48-.6s-.48.15-.48.6v12.3c0,.12-.06.18-.21.18Z" transform="translate(-0.31 -14.52)" fill="#3f4247"/>
      <path d="M203.7,48.88c0-.12-.06-.21-.18-.21-.63,0-.69,0-.69-.21V44.08c0-.09.06-.18.12-.18.69,0,.75,0,.75-.21V41a.21.21,0,0,1,.21-.21h4.32c.3,0,.3.06.3.27v2.52c0,.18.09.27.24.27.93,0,1,0,1,.21v4.35a.2.2,0,0,1-.21.21c-.93,0-1,0-1,.24V56.8c0,.12.09.24.18.24,1.05,0,1.17,0,1.17.18,0,1.71,0,4.68-3.06,4.68-1.8,0-3.12-1.11-3.12-4.71Z" transform="translate(-0.31 -14.52)" fill="#3f4247"/>
      <path d="M223.41,39.4a.42.42,0,0,1,.39.39l4.11,21.45c.06.33-.09.66-.42.66h-4.86a.39.39,0,0,1-.39-.3l-.6-4.5a.29.29,0,0,0-.3-.24h-1.62a.32.32,0,0,0-.27.3l-.57,4.41a.41.41,0,0,1-.39.33h-4.95c-.27,0-.42-.21-.36-.51l4-21.63c0-.15.18-.36.36-.36Zm-2.64,11.31c-.06-.42-.12-.69-.21-.69s-.15.21-.21.69L220,53.56c0,.15,0,.3.18.3,1,0,1,0,1-.27Z" transform="translate(-0.31 -14.52)" fill="#3f4247"/>
      <path d="M228,49.09a5,5,0,0,1,5-5.19,5.28,5.28,0,0,1,5.13,5.49c0,1.44,0,1.62-.36,1.65l-3.93.21a.35.35,0,0,1-.36-.36V48.67a.55.55,0,0,0-.48-.6.57.57,0,0,0-.48.6v8a.57.57,0,0,0,.51.6.55.55,0,0,0,.45-.6V54.73a.29.29,0,0,1,.33-.3l4,.21a.36.36,0,0,1,.33.36c0,2,0,6.9-5.25,6.9-2.88,0-4.86-2.25-4.86-5.73Z" transform="translate(-0.31 -14.52)" fill="#3f4247"/>
      <path d="M239.55,48.88c0-.12-.06-.21-.18-.21-.63,0-.69,0-.69-.21V44.08c0-.09.06-.18.12-.18.69,0,.75,0,.75-.21V41a.21.21,0,0,1,.21-.21h4.32c.3,0,.3.06.3.27v2.52c0,.18.09.27.24.27.93,0,1,0,1,.21v4.35a.2.2,0,0,1-.21.21c-.93,0-1,0-1,.24V56.8c0,.12.09.24.18.24,1.05,0,1.17,0,1.17.18,0,1.71,0,4.68-3.06,4.68-1.8,0-3.12-1.11-3.12-4.71Z" transform="translate(-0.31 -14.52)" fill="#3f4247"/>
      <path d="M251.49,61.65a.23.23,0,0,1-.21.24h-4.41a.29.29,0,0,1-.24-.27V44.26a.32.32,0,0,1,.3-.36h4.26a.3.3,0,0,1,.3.3Zm-.3-19a.31.31,0,0,1-.3.33h-3.66a.36.36,0,0,1-.3-.36V38.89a.35.35,0,0,1,.3-.33h3.69a.26.26,0,0,1,.27.24Z" transform="translate(-0.31 -14.52)" fill="#3f4247"/>
      <path d="M252.51,48.55c0-2.76,2.07-4.65,5.16-4.65s5.16,1.86,5.16,4.8v8.52c0,2.79-2.07,4.68-5.16,4.68s-5.16-1.92-5.16-4.68Zm4.68,7.89c0,.36.15.6.48.6s.48-.24.48-.6V49.3c0-.33-.18-.6-.48-.6s-.48.27-.48.6Z" transform="translate(-0.31 -14.52)" fill="#3f4247"/>
      <path d="M264.09,61.9a.27.27,0,0,1-.24-.3V44.11a.21.21,0,0,1,.21-.21h3.75c.21,0,.45,1.26.57,1.26s.09,0,.21-.18a2.54,2.54,0,0,1,2.34-1.08,3,3,0,0,1,2.94,3.18V61.74a.14.14,0,0,1-.15.15h-4.14a.2.2,0,0,1-.21-.21V49.42c0-.45-.24-.6-.48-.6s-.48.15-.48.6v12.3c0,.12-.06.18-.21.18Z" transform="translate(-0.31 -14.52)" fill="#3f4247"/>
    </g>
    <g>
      <path d="M92.77,71.91c0-4.37,2-6.91,5.33-6.91,3.5,0,5.35,3,5.35,6.43,0,.65,0,.72-.22.72l-4.44.17a.46.46,0,0,1-.43-.48V70.32c0-.34-.19-.46-.38-.46a.41.41,0,0,0-.38.43v7.46a.39.39,0,0,0,.38.41.39.39,0,0,0,.38-.43V75.32c0-.14.1-.36.29-.34l4.54.17a.19.19,0,0,1,.19.19c0,5.79-2.38,7.78-5.4,7.78-3.34,0-5.21-3-5.21-6.43Z" transform="translate(-0.31 -14.52)" fill="#3f4247"/>
      <path d="M104.12,72.36c0-2.21,1.66-3.72,4.13-3.72s4.13,1.49,4.13,3.84V79.3c0,2.23-1.66,3.74-4.13,3.74s-4.13-1.54-4.13-3.74Zm3.74,6.31c0,.29.12.48.38.48s.38-.19.38-.48V73c0-.26-.14-.48-.38-.48s-.38.22-.38.48Z" transform="translate(-0.31 -14.52)" fill="#3f4247"/>
      <path d="M113.38,83a.22.22,0,0,1-.19-.24v-14a.16.16,0,0,1,.17-.17h3c.17,0,.36,1,.46,1s.07,0,.17-.14a2,2,0,0,1,1.87-.86,2.39,2.39,0,0,1,2.35,2.54V82.92a.11.11,0,0,1-.12.12h-3.31a.16.16,0,0,1-.17-.17V73.06c0-.36-.19-.48-.38-.48s-.38.12-.38.48V82.9c0,.1,0,.14-.17.14Z" transform="translate(-0.31 -14.52)" fill="#3f4247"/>
      <path d="M126.9,67.68a.18.18,0,0,1-.22-.19c0-.7-.07-.79-.22-.79s-.34,0-.34.29v1.49c0,.1.12.17.38.17s.48,0,.48.24v3.34c0,.19-.26.24-.5.24s-.36.07-.36.17v10.2a.21.21,0,0,1-.19.22h-3.26a.23.23,0,0,1-.19-.22V72.65c0-.17-.1-.19-.34-.19s-.34-.07-.34-.19V68.91c0-.14.07-.26.38-.26s.29,0,.29-.12V67c0-1.51,1.51-2.35,3.74-2.35,3.19,0,3.31,1.2,3.31,2.64a.18.18,0,0,1-.17.19Z" transform="translate(-0.31 -14.52)" fill="#3f4247"/>
      <path d="M127.45,72.53c0-2.83,2.18-3.89,4.13-3.89a4.2,4.2,0,0,1,4.27,4.44v1.46a.22.22,0,0,1-.22.22h-4c-.1,0-.14.07-.14.19v3.77c0,.38.17.53.38.53s.38-.14.38-.5V77.28a.2.2,0,0,1,.22-.19l3.1.17a.26.26,0,0,1,.24.26v1.54c0,3.07-2.11,4-4.32,4-2.57,0-4-1.82-4-4.56Zm4,.82a.13.13,0,0,0,.14.12c.55,0,.62,0,.62-.12,0-1.54,0-1.7-.41-1.7-.19,0-.36.14-.36.5Z" transform="translate(-0.31 -14.52)" fill="#3f4247"/>
      <path d="M136.66,68.83c0-.12,0-.19.14-.19h3.38c.14,0,.31.77.43.77s.1,0,.14-.17c.24-.58.77-.6,1.51-.6a.16.16,0,0,1,.14.17v3.46a.15.15,0,0,1-.17.17c-1.22,0-1.7.65-1.7,2.59v7.8a.21.21,0,0,1-.22.22h-3.5a.17.17,0,0,1-.17-.19Z" transform="translate(-0.31 -14.52)" fill="#3f4247"/>
      <path d="M143.1,72.53c0-2.83,2.18-3.89,4.13-3.89a4.2,4.2,0,0,1,4.27,4.44v1.46a.22.22,0,0,1-.22.22h-4c-.1,0-.14.07-.14.19v3.77c0,.38.17.53.38.53s.38-.14.38-.5V77.28a.2.2,0,0,1,.22-.19l3.1.17a.26.26,0,0,1,.24.26v1.54c0,3.07-2.11,4-4.32,4-2.57,0-4-1.82-4-4.56Zm4,.82a.13.13,0,0,0,.14.12c.55,0,.62,0,.62-.12,0-1.54,0-1.7-.41-1.7-.19,0-.36.14-.36.5Z" transform="translate(-0.31 -14.52)" fill="#3f4247"/>
      <path d="M152.5,83a.22.22,0,0,1-.19-.24v-14a.16.16,0,0,1,.17-.17h3c.17,0,.36,1,.46,1s.07,0,.17-.14a2,2,0,0,1,1.87-.86,2.39,2.39,0,0,1,2.35,2.54V82.92a.11.11,0,0,1-.12.12H156.9a.16.16,0,0,1-.17-.17V73.06c0-.36-.19-.48-.38-.48s-.38.12-.38.48V82.9c0,.1,0,.14-.17.14Z" transform="translate(-0.31 -14.52)" fill="#3f4247"/>
      <path d="M161.14,72.79a4,4,0,0,1,4-4.15,4.22,4.22,0,0,1,4.1,4.39c0,1.15,0,1.3-.29,1.32l-3.14.17a.28.28,0,0,1-.29-.29V72.46a.44.44,0,0,0-.38-.48.46.46,0,0,0-.38.48v6.38a.46.46,0,0,0,.41.48.44.44,0,0,0,.36-.48V77.31a.23.23,0,0,1,.26-.24l3.19.17a.29.29,0,0,1,.26.29c0,1.63,0,5.52-4.2,5.52-2.3,0-3.89-1.8-3.89-4.58Z" transform="translate(-0.31 -14.52)" fill="#3f4247"/>
      <path d="M169.9,72.53c0-2.83,2.18-3.89,4.13-3.89a4.2,4.2,0,0,1,4.27,4.44v1.46a.22.22,0,0,1-.22.22h-4c-.1,0-.14.07-.14.19v3.77c0,.38.17.53.38.53s.38-.14.38-.5V77.28a.2.2,0,0,1,.22-.19l3.1.17a.26.26,0,0,1,.24.26v1.54c0,3.07-2.11,4-4.32,4-2.57,0-4-1.82-4-4.56Zm4,.82a.13.13,0,0,0,.14.12c.55,0,.62,0,.62-.12,0-1.54,0-1.7-.41-1.7-.19,0-.36.14-.36.5Z" transform="translate(-0.31 -14.52)" fill="#3f4247"/>
      <path d="M193.4,81.39a.77.77,0,0,1,0,.19A3.35,3.35,0,0,1,190.81,83a2.24,2.24,0,0,1-1.92-1.25.38.38,0,0,0-.26-.19.5.5,0,0,0-.34.22A3.65,3.65,0,0,1,185.48,83c-2.3,0-4.1-1.85-4.1-4.82a5.42,5.42,0,0,1,2.28-4.85c.17-.12.26-.24.26-.34a1,1,0,0,0-.1-.38,7.86,7.86,0,0,1-.89-3.5,3.94,3.94,0,0,1,4.18-4.1c2.38,0,4,1.51,4,3.48a4.87,4.87,0,0,1-2,3.82.59.59,0,0,0-.19.38,1.37,1.37,0,0,0,.12.38L190,75a.28.28,0,0,0,.22.19s.17-.12.22-.17l1.44-1.75a.2.2,0,0,1,.14-.07.33.33,0,0,1,.22.12l1.3,1.87a.56.56,0,0,1,0,.22.42.42,0,0,1-.1.29l-1.56,1.87a.75.75,0,0,0-.22.41,1.43,1.43,0,0,0,.17.48ZM185.53,76s0-.07-.1-.07-.31.34-.31.67c0,.5.53,2,1.18,2,.07,0,.48,0,.36-.29Zm2-6.14c.17,0,.38-.43.38-.86s-.17-.58-.41-.58-.36.24-.36.53a1.84,1.84,0,0,0,.29.86A.1.1,0,0,0,187.57,69.87Z" transform="translate(-0.31 -14.52)" fill="#3f4247"/>
      <path d="M196.49,65.35a.33.33,0,0,1,.31-.31h8.52a.25.25,0,0,1,.24.26v4.32a.25.25,0,0,1-.26.24h-4a.16.16,0,0,0-.17.17v1.34a.18.18,0,0,0,.17.17h1.9a.16.16,0,0,1,.17.17v4.37a.21.21,0,0,1-.19.22h-1.94a.17.17,0,0,0-.17.19v1.42a.16.16,0,0,0,.14.17h4.15a.25.25,0,0,1,.26.24v4.46a.27.27,0,0,1-.26.26h-8.59a.29.29,0,0,1-.26-.31Z" transform="translate(-0.31 -14.52)" fill="#3f4247"/>
      <path d="M208.37,75.87a.4.4,0,0,0,0-.29l-2.28-6.74c0-.1,0-.19.1-.19h3.5c.1,0,.17.07.19.19l.46,1.82s0,.07,0,.07l0-.1.46-1.8a.23.23,0,0,1,.19-.19h3.46a.18.18,0,0,1,.14.22l-2.26,6.75a.77.77,0,0,0,0,.19.57.57,0,0,0,0,.19l2.23,6.84a.18.18,0,0,1-.17.22h-3.46c-.1,0-.17-.07-.19-.19l-.41-1.9s0-.1,0-.1l0,.1-.36,1.9c0,.12-.1.19-.19.19h-3.62c-.07,0-.12-.07-.1-.17Z" transform="translate(-0.31 -14.52)" fill="#3f4247"/>
      <path d="M218.43,68.64c.1,0,.34.6.46.6s.12,0,.26-.17a2.42,2.42,0,0,1,1.42-.43c1.2,0,2.57.84,2.57,4.78v5c0,3.65-1.51,4.61-2.74,4.61a2,2,0,0,1-1.37-.5c-.12-.12-.17-.17-.22-.17s-.07,0-.07.19V86.4a.24.24,0,0,1-.22.24h-3.12a.22.22,0,0,1-.22-.22V68.86a.23.23,0,0,1,.22-.22Zm.31,10c0,.36.19.62.46.62s.31-.22.31-.48v-6c0-.12,0-.43-.31-.43a.44.44,0,0,0-.26.1.61.61,0,0,0-.19.46Z" transform="translate(-0.31 -14.52)" fill="#3f4247"/>
      <path d="M223.78,72.36c0-2.21,1.66-3.72,4.13-3.72S232,70.13,232,72.48V79.3c0,2.23-1.66,3.74-4.13,3.74s-4.13-1.54-4.13-3.74Zm3.74,6.31c0,.29.12.48.38.48s.38-.19.38-.48V73c0-.26-.14-.48-.38-.48s-.38.22-.38.48Z" transform="translate(-0.31 -14.52)" fill="#3f4247"/>
      <path d="M244.52,78.07a.2.2,0,0,1,.19.22v4.56c0,.12-.07.19-.24.19h-9.12c-.1,0-.22-.07-.22-.17v-4.8a1.41,1.41,0,0,1,.24-.72c1.78-2.74,5-4.46,5-6.48,0-.34-.1-.55-.34-.55s-.62.7-.62,1.42a.19.19,0,0,1-.19.19l-3.72-.17c-.29,0-.29-.12-.29-1.08,0-2.93,1.68-5.4,4.73-5.4s4.94,2.5,4.94,5.33c0,3.6-2,5.21-4.85,7.2a.3.3,0,0,0-.1.17c0,.07,0,.1.14.1Z" transform="translate(-0.31 -14.52)" fill="#3f4247"/>
      <path d="M245.45,70.51a5,5,0,1,1,10,0v7.22a5,5,0,0,1-5,5.3c-3,0-5-2.23-5-5.3Zm4.61,7.13c0,.31.14.48.38.48s.38-.17.38-.48v-7c0-.31-.14-.48-.38-.48s-.38.17-.38.46Z" transform="translate(-0.31 -14.52)" fill="#3f4247"/>
      <path d="M265.54,78.07a.2.2,0,0,1,.19.22v4.56c0,.12-.07.19-.24.19h-9.12c-.1,0-.22-.07-.22-.17v-4.8a1.41,1.41,0,0,1,.24-.72c1.78-2.74,5-4.46,5-6.48,0-.34-.1-.55-.34-.55s-.62.7-.62,1.42a.19.19,0,0,1-.19.19l-3.72-.17c-.29,0-.29-.12-.29-1.08,0-2.93,1.68-5.4,4.73-5.4s4.94,2.5,4.94,5.33c0,3.6-2,5.21-4.85,7.2a.3.3,0,0,0-.1.17c0,.07,0,.1.14.1Z" transform="translate(-0.31 -14.52)" fill="#3f4247"/>
      <path d="M275.86,78.07a.2.2,0,0,1,.19.22v4.56c0,.12-.07.19-.24.19h-9.12c-.1,0-.22-.07-.22-.17v-4.8a1.41,1.41,0,0,1,.24-.72c1.78-2.74,5-4.46,5-6.48,0-.34-.1-.55-.34-.55s-.62.7-.62,1.42a.19.19,0,0,1-.19.19l-3.72-.17c-.29,0-.29-.12-.29-1.08,0-2.93,1.68-5.4,4.73-5.4s4.94,2.5,4.94,5.33c0,3.6-2,5.21-4.85,7.2a.3.3,0,0,0-.1.17c0,.07,0,.1.14.1Z" transform="translate(-0.31 -14.52)" fill="#3f4247"/>
    </g>
  </g>
  <g>
    <path d="M90.92,38c0,.38,0,.71-.1,1a3.35,3.35,0,0,1-3.1,2.86c-.39,0-.79.05-1.19.08-.23,0-.35-.08-.29-.31a7.22,7.22,0,0,1,1.53-3.36,2.55,2.55,0,0,1,2.47-.89,3.63,3.63,0,0,0,.38,0c-.12-.19-.2-.32-.29-.44A9.2,9.2,0,0,0,85,33.55a6.1,6.1,0,0,0-3.18.24,5.92,5.92,0,0,0-3.91,4.67A10.5,10.5,0,0,0,78,40.13a.47.47,0,0,1-.08.33,4.71,4.71,0,0,1,.14-4,3.11,3.11,0,0,1-2.89-.33A4.26,4.26,0,0,1,73.79,34a2.93,2.93,0,0,1,.53-.09,17,17,0,0,1,2.37.07,2.18,2.18,0,0,1,1.82,1.61l.3-.35a5.37,5.37,0,0,1,2-1.57,7.19,7.19,0,0,1,5.8-.11,8.57,8.57,0,0,1,2.83,1.78,9.87,9.87,0,0,1,2.09,2.73c.48,1,.86,2.09,1.25,3.16a11.51,11.51,0,0,1,.31,1.47c.72-1.36,1.62-2.37,3.17-2.4a5.07,5.07,0,0,1,3.06,1.1c-.19.23-.37.45-.55.66A7.45,7.45,0,0,1,96.44,44a2.78,2.78,0,0,1-3.36-.53c.22,2.67-.8,4.87-2,7,1.48-.76,3-1.2,4.52-.38a6,6,0,0,1,2.57,3c-.57.14-1.1.28-1.64.39a7.2,7.2,0,0,1-3.13,0,3.08,3.08,0,0,1-2.46-2.32,2.35,2.35,0,0,0-.14-.31,30.28,30.28,0,0,1-4.6,5.68,51.69,51.69,0,0,1-5.62,4.61,3.58,3.58,0,0,1,3.08.47,5.42,5.42,0,0,1,1.75,2.25c-.58.13-1.11.29-1.65.38a5.77,5.77,0,0,1-2.4,0,2.57,2.57,0,0,1-2-1.95,2.33,2.33,0,0,0-.12-.28,62.85,62.85,0,0,1-11.64,5.89A4,4,0,0,1,70.19,69a4,4,0,0,1,1,2.34,6.77,6.77,0,0,1-2.91-.66c-1.22-.6-1.63-1.29-1.68-1.56a2.65,2.65,0,0,1,0-.44c0-.13,0-.27.05-.47l-.72.21-1.69.5c-.17,0-.38.2-.46-.11s.22-.27.37-.32l4-1.3a3.12,3.12,0,0,0,.34-.15A4.85,4.85,0,0,1,67,64a4.54,4.54,0,0,1,.26-1.89A6.59,6.59,0,0,1,70.15,59a10.66,10.66,0,0,1,1,2.86,9.8,9.8,0,0,1,.13,2,3.46,3.46,0,0,1-1.18,2.43,43.73,43.73,0,0,0,5.73-2.81c-1.16-1.11-2-2.33-1.56-4a5.49,5.49,0,0,1,2-2.9c1.06,1.85,2.17,3.61,1.2,5.83,1.83-.54,9-6.15,9.89-7.79-1.54-.27-3-.71-3.59-2.35a5.17,5.17,0,0,1,.07-3.41,1.68,1.68,0,0,1,.33.1,25.32,25.32,0,0,1,2.49,1.42A3,3,0,0,1,88,54a1,1,0,0,0,.17-.12A25.59,25.59,0,0,0,92,47.8a7.54,7.54,0,0,0,.54-1.36,11.87,11.87,0,0,0,.17-1.95,12.18,12.18,0,0,0-1.45-6.08c0-.08-.09-.17-.14-.25A1.07,1.07,0,0,0,90.92,38Z" transform="translate(-0.31 -14.52)" fill="#146b71"/>
    <path d="M8.74,49c3.51,5.58,9.22,9.3,15.85,12.48a7.38,7.38,0,0,1-.85,0,3.94,3.94,0,0,0-3.1,1.05,9.25,9.25,0,0,0-2.45,4.6c0,.12.29.46.46.47a24.52,24.52,0,0,0,4.11.33,3.43,3.43,0,0,0,3.36-2.48c.28-1,.4-2,.61-3.09C39.18,67.53,52.33,68.66,65.61,69l.16-.39c-.15,0-1.57,0-2.53-.08-.62,0-.52-.08-.8-.07a1.24,1.24,0,0,1-.73-.1.92.92,0,0,1-.23-.24c-.32-.47,0-1.16.09-1.59.33-1.57-1.46-3.38-2.72-4.63-.26-.26-.48-.45-.61-.57a2,2,0,0,0-.37.55,9.93,9.93,0,0,0-.37,2,3.48,3.48,0,0,0,.22,1.33,4.76,4.76,0,0,0,2.61,2.43,6.47,6.47,0,0,0,.84.33l0,.29L46.59,67.12l-.09-.29.6-.37a3.39,3.39,0,0,0,1.81-4.22c-.53-1.79-3.13-4.76-5.21-6-1.75,1.53-3,3.25-2.64,5.53s2.66,3.68,5,5a66.28,66.28,0,0,1-14.89-3.55,4.06,4.06,0,0,0,3-2.08,8.24,8.24,0,0,0,.7-4.18c0-.12-.26-.33-.42-.36-2.1-.33-5.12.94-5.59,2.52a9.78,9.78,0,0,0,0,2.81,4.15,4.15,0,0,0,.09.5,53.92,53.92,0,0,1-7.63-3.41c.16-.09.22-.16.29-.16A3.13,3.13,0,0,0,25,56.8a6.14,6.14,0,0,0,.35-3.44c-4.1-.18-5.55,1.27-5,5.18a27.5,27.5,0,0,1-7.85-6.18l.51.16a6,6,0,0,0,4.25,0,11.41,11.41,0,0,0,4.72-4,10,10,0,0,0-6.52-1.4c-2.46.43-3.39,2.06-4.2,3.73-3-2.06-4.06-9.5-1.56-12.09a2.6,2.6,0,0,0,1,3,18.22,18.22,0,0,0,3.28,1.82,23.8,23.8,0,0,0,3,.88,4.86,4.86,0,0,0-1.08-4.7c-1.44-1.52-3.54-1.64-5.91-1.87a21.81,21.81,0,0,1,1.86-1.67A7,7,0,0,1,19,36a1.08,1.08,0,0,1,.51.67c.34,2.06,1.44,3.1,4,3.52,1.61.26,3.26.29,4.92.43a5.47,5.47,0,0,0-6.33-5,5.29,5.29,0,0,1-4-.68,5.78,5.78,0,0,0-1.19-.48,12.1,12.1,0,0,0,1.78-2.2,15,15,0,0,0,.93-3.24c0-.15-.35-.55-.54-.56-2-.14-4,0-5.26,1.33s-1.18,2.81-.63,4.4c0,.06.12.11.26.23a8.69,8.69,0,0,0-4.59,3.6C8.7,35.59,6.61,34.72,4.37,34c-.47-.16-1-.28-1.45-.42s-.73,0-.81.4c-.57,2.84,1.51,4.84,5.39,5.14l.77.05A10.4,10.4,0,0,0,8,47.4c-2.6-1.76-5.14-1.46-7.7-1.18a5.37,5.37,0,0,0,4,3.89C5.92,50.42,8.22,49.9,8.74,49Z" transform="translate(-0.31 -14.52)" fill="#146b71"/>
  </g>
</svg>
