<svg xmlns="http://www.w3.org/2000/svg" viewBox="0 0 1368.92 501">
  <title>logo-env-action-la-white</title>
  <g>
    <path d="M94.41,281.74C94.13,146.08,203.74,31.85,344.49,32c141,.11,251.64,114.84,249.88,253.25-1.72,135.3-111,246.73-250,246.75C203.2,532,93.88,417.22,94.41,281.74ZM235.5,232.23l1-.78a16.79,16.79,0,0,1,1.73,2.19c1.67,3,3.09,6.16,4.91,9.06q6.45,10.27,13.21,20.35c3.77,5.6,6.63,11.43,7.43,18.29a8.76,8.76,0,0,0,3.71,5.59C276,292.21,284.6,297.29,293.4,302c2.26,1.21,5.89,1.89,8,.91,4.86-2.24,8.31-1.35,11.79,2.29,4.6,4.8,10.1,7.68,17,7.86a13.19,13.19,0,0,1,11.38,7,29.94,29.94,0,0,0,11.52,10.92c2.79,1.58,5.73,2.9,8.55,4.42,4.54,2.44,7.18,2.51,9.71-2.26,1.5-2.81,3.75-2.83,5.74-.39,4.61,5.69,7.56,18.39-1.07,25.58-4.3,3.58-6.65,8.4-8.35,13.46a11,11,0,0,0,.46,6.83c.9,2.4.88,4.17-.6,6.26-3.61,5.11-3.38,7.73.91,12.26,2,2.16,4.44,4,6.33,6.27a19.54,19.54,0,0,1,4,6.56c3.2,11,10.24,18.25,20.82,22.31,6,2.31,6.52,3.37,5.29,9.61a107.8,107.8,0,0,1-23.73,49.65c-1.53,1.8-3.65,3.69-4,5.79-1,6.09-5.33,9.92-8.79,14.37a34.43,34.43,0,0,0-2.93,4,3.8,3.8,0,0,0,1.17,5.36c2.94,2.16,8.34.56,9.9-2.68a9,9,0,0,1,2.73-3.09c3.13-2.34,6.55-4.31,9.56-6.78,8-6.57,16-13.06,25.46-17.63,7.15-3.47,13.92-7.43,19.9-12.89,5.82-5.32,12.86-9.31,18.65-14.65a130.62,130.62,0,0,0,17-18.6,56,56,0,0,1,11.78-12.19c3.34-2.49,6.93-4.74,9.84-7.65a35.74,35.74,0,0,0,6.63-9.14c4.51-9,8.49-18.33,12.87-27.43,4.71-9.77,9-19.68,10.94-30.42.29-1.64-.38-4.59-1.49-5.13-3.77-1.85-7.86-3.61-12-4.07-5.74-.64-11.62-.1-17.44,0-4.94.06-6.32-1.2-7-6a15.18,15.18,0,0,0-1.65-5.38,63,63,0,0,0-6.3-9.47c-1.13-1.34-3.59-2.7-5.1-2.38-7.14,1.51-13-.86-18.83-4.59a42.4,42.4,0,0,0-30-6.65c-5.07.75-10.36,1-14.93-1.92-3.15-2-5.63-1.32-8,.9C395.11,317,390.95,321,387,325c-2.18,2.22-4.51,3.16-7.35,1.87-3.63-1.65-7-1.33-10.63.23-6.68,2.87-12.54-.92-13.08-8.26-.29-4-.29-8.08-.47-12.12-.15-3.26-1.93-5-5.16-5.21-2.73-.15-5.47-.16-8.21-.17-9.11,0-10.35-1.8-7.23-10.43,1.56-4.32,3.18-8.62,4.77-12.93-7.85-2.77-10.63-1.83-14.63,4.71-.62,1-1.16,2.08-1.81,3.07-4.19,6.39-16,6.75-20.83.87-7.39-9-10.28-18.64-4.89-29.71a16.8,16.8,0,0,0,.69-2c2.87-8.55,9.45-12.4,18.23-10.76,3.79.71,7.61,1.27,11.41,1.91.76-5.64,1.16-6,6.37-5.85,2.49.08,5,.39,7.47.5,5.36.23,8.49,3.16,11,7.77,2,3.7,5.05,6.85,7.78,10.12,1.38,1.66,2.57,1,2.94-.91a11,11,0,0,0,.25-4.56,100.56,100.56,0,0,0-3.69-12.26c-2.56-6.56-2.11-9.12,3-13.93a67.58,67.58,0,0,0,8.34-8.75c1.41-1.94,2.62-5,2.1-7.16-.87-3.51-.87-6.27,1.5-9,.58-.68.58-1.84,1.1-2.6,2.18-3.16,4.52-6.21,6.67-9.39.93-1.37,2.29-3,2.16-4.43a8.61,8.61,0,0,1,4.33-8.72c3.21-2,5.78-.25,8.25,1.93l7.69-9.3c-5.57-.11-8.58-2.62-10.68-6.9-2.77-5.63-4.49-5.91-9.52-2.23-.67.49-1.77.4-2.68.58.21-1,.1-2.39.69-2.78a57.33,57.33,0,0,1,8.79-5.07c2.24-1,4.92-.88,7.25-1.7a8.21,8.21,0,0,0,5.81-7.78c.2-3.65-2.14-5.44-5-7.09-7.51-4.34-14.91-8.85-22.33-13.32-1.6-1-3.1-2.08-4.74-3.19-.49.6-.81.93-1.06,1.31-3.52,5.5-4.59,5.61-9,.53-4-4.65-9.41-5.3-15-5-3.15.15-4.93,2.63-4,5.5a32,32,0,0,0,4.9,9.6c2.22,2.94,3.4,5.1.51,8.35-1.07,1.21-.92,3.68-.93,5.58,0,1.11,1.18,2.24,1.12,3.32-.08,1.48-.49,3.8-1.4,4.17-1.24.5-3.4-.09-4.59-1s-1.69-2.58-2-4c-1.21-5.11-4.54-7.35-9.53-8.24a107,107,0,0,1-14.84-3.74c-5.87-1.94-9.07-8.08-6.14-12.68,4.06-6.37,8.4-12.78,15.29-16.64,5.38-3,5.65-6.65.63-10.23-1.64-1.17-4.07-2-4.78-3.57-2.35-5.24-6.85-6-11.63-6.85-6.47-1.14-8.8.88-7.79,7.33.2,1.27,1.23,2.45,2,3.58s1.68,2,2.53,3l-.45,1.28-8.92-.53c-2.8-.17-6.14-1.39-8.29-.28-5.29,2.72-9.21.57-12.94-2.4-7.09-5.64-14.7-9.19-24-7.48-2.66.49-4.43-.67-6.17-2.61a97.93,97.93,0,0,0-8.61-8.51c-3.8-3.3-13.81-3.41-16.24.22-3.07,4.58-6.37,7-11.86,4.12a20.12,20.12,0,0,0-.95,2.78c-.84,5.08-.85,5-6,5.3a8.07,8.07,0,0,0-4.85,1.8,37.39,37.39,0,0,0-6.09,7.74c-1,1.64-.82,3.91-1.3,6.63l-15.25,4.16-.21,1c1.36.38,2.79,1.24,4.07,1,5.4-.81,10.76-1.88,16.11-3a8.13,8.13,0,0,0,3.54-1.56c3-2.55,5.89-4.66,9.63-1.23.34.31,1.15.12,1.74.15a8.8,8.8,0,0,1,7.69,4.49c5.16,9.48,9.21,19.24,8,30.49-.32,2.91.82,6,1,9s.76,6.5-.22,9.29c-2.36,6.7-5.48,13.14-8.38,19.65-5.49,12.33-3.85,23.87,3.81,34.72A61.88,61.88,0,0,1,232,240.24a58.43,58.43,0,0,0,9.52,21.7c1.58,2.32,3.92,4.11,5.92,6.14l1.29-.85ZM417.74,85c2.82-5.57,1.93-7.89-3.78-10.23-3.51-1.44-7.44-2.26-10.47-4.37-12-8.42-25.81-11.14-39.88-13.05-1.95-.26-4,.38-6.19.62L359,62.49,353.69,64a59.26,59.26,0,0,1,1.47,5.85c.9,6.27,2.73,7.76,8.91,8.29,14,1.22,26.24,6.13,35,17.72,5.14,6.77,12.23,10.77,19.87,14,2.64,1.11,5.19,1.18,7-1.43s.93-4.91-1.21-7c-2.49-2.39-3.88-5.45-2.82-8.71,1-2.92-.15-4.4-2.2-5.88A25.16,25.16,0,0,1,417.74,85Zm-45,16.37c-.79,1.12-1.29,1.88-1.84,2.59-2.91,3.76-1.88,6.95,2.74,8.35,2,.62,4.11,1.17,6.18,1.71,1.72.45,3.61,1.5,5.14,1.11a10.46,10.46,0,0,0,5.15-3.45c.35-.43-1.51-2.89-2.6-4.21-.65-.8-1.78-1.2-3.16-2.09l5.9-.35c-1-4.2-3.19-6.71-7.07-8-9.77-3.31-19.4-7.05-29.25-10.12-3.12-1-6.8-.75-10.11-.27A5.76,5.76,0,0,0,340,90.32c-.25,1.15,1.59,3.73,2.89,4,3.6.88,7.44.75,11.13,1.32,2.7.42,6.16.53,7.79,2.21a9.41,9.41,0,0,0,7.11,3C370,101,371.15,101.18,372.75,101.38ZM383.6,282.46c1.42-1,3.69-1.75,4.25-3.17.92-2.35-1.52-2.93-3.31-3.63a22.45,22.45,0,0,1-3-1.81c-7.18-4.26-15.13-5.28-23.26-5.2-2,0-5.2,0-5.07,3.14s3.19,2,5.11,2.14c7.19.34,14.2,1,19.8,6.39C379.22,281.43,381.27,281.6,383.6,282.46ZM341.5,69.84l-1.59,8.3c3.84.62,7.39,1,10-1.93,2.85-3.23,3.23-7.37,2.4-11.43-.2-1-2.15-2.51-3-2.34-4.39.84-8.7,2.16-13,3.31l.11,1.21Z" transform="translate(-14.27 -31.46)" fill="#d8d8d8" stroke="#ec5242" stroke-miterlimit="10"/>
    <g>
      <path d="M235.5,232.23l13.26,35-1.29.85c-2-2-4.34-3.82-5.92-6.14a58.43,58.43,0,0,1-9.52-21.7,61.88,61.88,0,0,0-10.39-23.68c-7.66-10.85-9.3-22.39-3.81-34.72,2.9-6.51,6-12.95,8.38-19.65,1-2.78.39-6.18.22-9.29s-1.31-6-1-9c1.25-11.25-2.81-21-8-30.49a8.8,8.8,0,0,0-7.69-4.49c-.59,0-1.4.16-1.74-.15-3.74-3.43-6.63-1.33-9.63,1.23a8.13,8.13,0,0,1-3.54,1.56c-5.35,1.1-10.71,2.17-16.11,3-1.27.19-2.71-.67-4.07-1l.21-1,15.25-4.16c.48-2.72.34-5,1.3-6.63A37.39,37.39,0,0,1,197.54,94a8.07,8.07,0,0,1,4.85-1.8c5.18-.32,5.19-.21,6-5.3a20.12,20.12,0,0,1,.95-2.78c5.49,2.85,8.79.46,11.86-4.12,2.43-3.62,12.44-3.52,16.24-.22a97.93,97.93,0,0,1,8.61,8.51c1.74,1.94,3.51,3.1,6.17,2.61,9.31-1.71,16.92,1.84,24,7.48,3.73,3,7.65,5.11,12.94,2.4,2.15-1.1,5.49.12,8.29.28l8.92.53.45-1.28c-.85-1-1.78-2-2.53-3s-1.82-2.31-2-3.58c-1-6.45,1.32-8.47,7.79-7.33,4.78.84,9.28,1.61,11.63,6.85.71,1.59,3.14,2.4,4.78,3.57,5,3.58,4.74,7.22-.63,10.23-6.89,3.86-11.23,10.27-15.29,16.64-2.93,4.6.27,10.74,6.14,12.68a107,107,0,0,0,14.84,3.74c5,.89,8.32,3.13,9.53,8.24.35,1.46.95,3.23,2,4s3.34,1.49,4.59,1c.91-.37,1.32-2.69,1.4-4.17.06-1.08-1.13-2.21-1.12-3.32,0-1.9-.14-4.37.93-5.58,2.89-3.25,1.71-5.42-.51-8.35a32,32,0,0,1-4.9-9.6c-.9-2.87.88-5.35,4-5.5,5.55-.26,10.93.39,15,5,4.41,5.08,5.47,5,9-.53.24-.38.57-.71,1.06-1.31,1.64,1.11,3.15,2.23,4.74,3.19,7.42,4.48,14.83,9,22.33,13.32,2.85,1.65,5.2,3.44,5,7.09a8.21,8.21,0,0,1-5.81,7.78c-2.33.82-5,.73-7.25,1.7a57.33,57.33,0,0,0-8.79,5.07c-.59.39-.48,1.82-.69,2.78.9-.18,2-.08,2.68-.58,5-3.68,6.76-3.4,9.52,2.23,2.1,4.28,5.11,6.79,10.68,6.9l-7.69,9.3c-2.47-2.18-5-4-8.25-1.93a8.61,8.61,0,0,0-4.33,8.72c.13,1.41-1.23,3.06-2.16,4.43-2.15,3.18-4.49,6.23-6.67,9.39-.52.76-.52,1.92-1.1,2.6-2.37,2.76-2.37,5.53-1.5,9,.53,2.12-.68,5.22-2.1,7.16a67.58,67.58,0,0,1-8.34,8.75c-5.07,4.82-5.53,7.37-3,13.93a100.56,100.56,0,0,1,3.69,12.26,11,11,0,0,1-.25,4.56c-.36,1.88-1.55,2.57-2.94.91-2.73-3.27-5.78-6.43-7.78-10.12-2.5-4.6-5.63-7.53-11-7.77-2.49-.11-5-.42-7.47-.5-5.21-.17-5.61.2-6.37,5.85-3.81-.63-7.62-1.2-11.41-1.91-8.78-1.64-15.36,2.21-18.23,10.76a16.8,16.8,0,0,1-.69,2c-5.39,11.06-2.5,20.68,4.89,29.71,4.81,5.88,16.63,5.52,20.83-.87.65-1,1.19-2.06,1.81-3.07,4-6.54,6.78-7.49,14.63-4.71-1.59,4.31-3.21,8.61-4.77,12.93-3.12,8.63-1.88,10.39,7.23,10.43,2.74,0,5.48,0,8.21.17,3.23.18,5,2,5.16,5.21.18,4,.17,8.09.47,12.12.54,7.34,6.39,11.12,13.08,8.26,3.64-1.56,7-1.89,10.63-.23,2.84,1.29,5.17.36,7.35-1.87,4-4.08,8.15-8,12.33-11.87,2.38-2.22,4.86-2.89,8-.9,4.57,2.89,9.87,2.67,14.93,1.92a42.4,42.4,0,0,1,30,6.65c5.82,3.73,11.69,6.1,18.83,4.59,1.51-.32,4,1,5.1,2.38a63,63,0,0,1,6.3,9.47,15.18,15.18,0,0,1,1.65,5.38c.66,4.81,2,6.08,7,6,5.82-.07,11.69-.62,17.44,0,4.12.46,8.2,2.22,12,4.07,1.11.54,1.78,3.49,1.49,5.13C520,368.63,515.7,378.54,511,388.31c-4.38,9.1-8.36,18.4-12.87,27.43a35.74,35.74,0,0,1-6.63,9.14c-2.92,2.92-6.51,5.17-9.84,7.65a56,56,0,0,0-11.78,12.19,130.62,130.62,0,0,1-17,18.6c-5.8,5.34-12.83,9.34-18.65,14.65-6,5.46-12.75,9.42-19.9,12.89-9.41,4.57-17.45,11.06-25.46,17.63-3,2.47-6.43,4.44-9.56,6.78a9,9,0,0,0-2.73,3.09c-1.57,3.24-7,4.85-9.9,2.68a3.8,3.8,0,0,1-1.17-5.36,34.43,34.43,0,0,1,2.93-4c3.46-4.45,7.74-8.28,8.79-14.37.36-2.1,2.48-4,4-5.79a107.8,107.8,0,0,0,23.73-49.65c1.24-6.25.73-7.3-5.29-9.61C389.06,428.17,382,421,378.82,409.93a19.54,19.54,0,0,0-4-6.56c-1.89-2.27-4.29-4.11-6.33-6.27-4.28-4.53-4.51-7.15-.91-12.26,1.48-2.1,1.5-3.86.6-6.26a11,11,0,0,1-.46-6.83c1.71-5.06,4.05-9.87,8.35-13.46,8.63-7.19,5.68-19.89,1.07-25.58-2-2.45-4.24-2.43-5.74.39-2.54,4.77-5.17,4.7-9.71,2.26-2.83-1.52-5.76-2.84-8.55-4.42A29.94,29.94,0,0,1,341.59,320a13.19,13.19,0,0,0-11.38-7c-6.9-.17-12.4-3.05-17-7.86-3.48-3.63-6.93-4.52-11.79-2.29-2.12,1-5.75.3-8-.91-8.8-4.7-17.42-9.78-25.89-15.07a8.76,8.76,0,0,1-3.71-5.59c-.8-6.86-3.66-12.69-7.43-18.29Q249.6,253,243.17,242.7c-1.82-2.9-3.24-6.06-4.91-9.06a16.79,16.79,0,0,0-1.73-2.19Z" transform="translate(-14.27 -31.46)" fill="#ec5242" stroke="#b9b9b9" stroke-miterlimit="10" stroke-width="0.5"/>
      <path d="M417.74,85a25.16,25.16,0,0,0,2,1.86c2,1.49,3.15,3,2.2,5.88-1.07,3.26.33,6.32,2.82,8.71,2.13,2,3,4.34,1.21,7s-4.36,2.54-7,1.43c-7.65-3.2-14.73-7.21-19.87-14-8.81-11.59-21-16.5-35-17.72-6.17-.54-8-2-8.91-8.29A59.26,59.26,0,0,0,353.69,64L359,62.49,357.43,58c2.17-.24,4.24-.88,6.19-.62,14.07,1.91,27.85,4.64,39.88,13.05,3,2.12,7,2.94,10.47,4.37C419.67,77.12,420.56,79.43,417.74,85Z" transform="translate(-14.27 -31.46)" fill="#ec5242" stroke="#b9b9b9" stroke-miterlimit="10" stroke-width="0.5"/>
      <path d="M372.75,101.38c-1.6-.19-2.73-.4-3.87-.45a9.41,9.41,0,0,1-7.11-3c-1.63-1.69-5.09-1.79-7.79-2.21-3.7-.57-7.53-.44-11.13-1.32-1.31-.32-3.14-2.89-2.89-4a5.76,5.76,0,0,1,3.87-3.68c3.31-.47,7-.7,10.11.27C363.78,90,373.41,93.71,383.19,97c3.88,1.31,6.11,3.82,7.07,8l-5.9.35c1.38.88,2.51,1.29,3.16,2.09,1.09,1.33,3,3.79,2.6,4.21a10.46,10.46,0,0,1-5.15,3.45c-1.53.38-3.42-.66-5.14-1.11-2.07-.54-4.13-1.09-6.18-1.71-4.62-1.4-5.64-4.59-2.74-8.35C371.46,103.25,372,102.5,372.75,101.38Z" transform="translate(-14.27 -31.46)" fill="#ec5242" stroke="#b9b9b9" stroke-miterlimit="10" stroke-width="0.5"/>
      <path d="M383.6,282.46c-2.33-.86-4.38-1-5.52-2.14-5.61-5.44-12.61-6.05-19.8-6.39-1.92-.09-5,1.09-5.11-2.14s3-3.12,5.07-3.14c8.12-.08,16.07.94,23.26,5.2a22.45,22.45,0,0,0,3,1.81c1.79.7,4.23,1.28,3.31,3.63C387.29,280.71,385,281.46,383.6,282.46Z" transform="translate(-14.27 -31.46)" fill="#ec5242" stroke="#b9b9b9" stroke-miterlimit="10" stroke-width="0.5"/>
      <path d="M341.5,69.84l-5.19-2.89-.11-1.21c4.33-1.15,8.64-2.47,13-3.31.87-.17,2.82,1.35,3,2.34.83,4.06.45,8.2-2.4,11.43-2.56,2.9-6.11,2.55-10,1.93Z" transform="translate(-14.27 -31.46)" fill="#ec5242" stroke="#b9b9b9" stroke-miterlimit="10" stroke-width="0.5"/>
    </g>
    <path d="M617.42,183.31c-.22,2.5-.22,4.62-.62,6.68-2.09,10.78-9.26,17.38-20.19,18.65-2.56.3-5.15.35-7.73.55-1.51.12-2.26-.5-1.9-2,1.9-7.94,4.27-15.7,10-21.89,4.31-4.69,9.57-7,16.07-5.79a23.62,23.62,0,0,0,2.48.14c-.79-1.21-1.29-2.07-1.88-2.85a59.88,59.88,0,0,0-34.67-22.53c-7.39-1.81-14-.27-20.73,1.57s-12.36,6.25-17,11.68a34.58,34.58,0,0,0-8.52,18.7c-.39,3.57.31,7.25.5,10.88a3,3,0,0,1-.53,2.16c-3.71-8.55-3.09-17,.89-25.91-6.9,1.72-13.19,2.28-18.78-2.14-4.43-3.5-7-8.19-8.85-13.77a19.08,19.08,0,0,1,3.44-.62c5.15,0,10.37-.3,15.42.46,5.68.86,9.88,4.31,11.85,10.49.85-1,1.42-1.61,2-2.27a35,35,0,0,1,12.9-10.22c12.47-5.47,25.2-5.87,37.77-.72a55.79,55.79,0,0,1,18.39,11.59c5.38,5.31,10.37,11,13.61,17.77,3.16,6.64,5.62,13.62,8.12,20.56,1,2.79,1.28,5.85,2,9.58,4.66-8.83,10.55-15.39,20.63-15.6,7.26-.15,13.7,2.71,19.94,7.14-1.26,1.52-2.38,3-3.59,4.32-4.35,4.9-9.08,9.37-15.07,12.24-7.57,3.62-14.68,3.08-21.88-3.44,1.4,17.39-5.23,31.7-13.13,45.81,9.63-4.95,19.26-7.79,29.44-2.46,7.86,4.11,12.74,10.95,16.72,19.33-3.72.89-7.18,1.84-10.69,2.52-6.77,1.33-13.58,2-20.41.32-8.19-2-13.85-6.69-16-15.08a15.3,15.3,0,0,0-.93-2,197.08,197.08,0,0,1-29.94,37c-11.31,11-23.76,20.65-36.58,30,7.18-1.66,13.92-1.38,20,3,5,3.65,8.57,8.47,11.37,14.63-3.74.87-7.21,1.88-10.75,2.45-5.2.83-10.43,1.17-15.65-.2-6.78-1.78-11.35-5.72-13.1-12.66a15.19,15.19,0,0,0-.78-1.84C517,354.8,492,367.88,465.32,377.87c6.52.72,12.6,2.17,17.2,7.11,3.92,4.2,5.68,9.35,6.45,15.22A44.09,44.09,0,0,1,470,395.89c-8-3.88-10.63-8.37-11-10.14a17.28,17.28,0,0,1-.25-2.84c.16-.85.19-1.73.33-3l-4.71,1.36c-3.67,1.08-7.33,2.19-11,3.24-1.09.31-2.5,1.33-3-.7s1.4-1.75,2.38-2.07c8.61-2.87,17.25-5.65,25.88-8.48a20.33,20.33,0,0,0,2.23-1c-2.18-2.15-8.6-9.06-9.4-19.62a29.56,29.56,0,0,1,1.72-12.27c3.18-8.74,10.34-15,19-20.47a69.4,69.4,0,0,1,6.25,18.61,63.79,63.79,0,0,1,.83,13.26,22.55,22.55,0,0,1-7.65,15.82c12.89-5,25-11.33,37.32-18.3-7.58-7.25-12.8-15.15-10.16-25.8,1.92-7.74,6.78-13.58,13.2-18.88,6.87,12,14.13,23.5,7.83,38,11.94-3.55,58.29-40,64.37-50.73-10-1.76-19.34-4.62-23.35-15.27-2.76-7.34-1.82-14.66.43-22.18a10.93,10.93,0,0,1,2.13.63c5.44,3,11.17,5.65,16.2,9.25,7.6,5.45,11.49,12.83,8.52,23a6.5,6.5,0,0,0,1.13-.77c9.74-12.24,18.86-24.88,24.9-39.47,1.22-2.94,2.89-5.8,3.49-8.87a77.29,77.29,0,0,0,1.1-12.69,79.31,79.31,0,0,0-9.44-39.59c-.29-.55-.58-1.11-.92-1.63A7,7,0,0,0,617.42,183.31Z" transform="translate(-14.27 -31.46)" fill="#146b71"/>
    <path d="M69.15,254.84c22.85,36.33,60,60.55,103.19,81.24a48,48,0,0,1-5.52.3,25.65,25.65,0,0,0-20.15,6.84c-9.36,8.37-12.69,19.16-16,29.92-.23.76,1.89,3,3,3.09,8.93,1,18.11,2.69,26.76,2.14,12-.76,19.29-7,21.9-16.12,1.84-6.41,2.63-13.07,4-20.09,80.91,33.23,166.55,40.59,252.93,42.92l1-2.51c-.95,0-10.21-.08-16.45-.53-4.07-.29-3.38-.49-5.22-.48s-3.34.24-4.76-.65a6,6,0,0,1-1.51-1.53c-2.06-3.07,0-7.53.56-10.37,2.15-10.24-9.53-22-17.73-30.14-1.68-1.66-3.1-3-4-3.72-.83,1.19-2.09,2.29-2.4,3.59-1,4.33-2.29,8.68-2.4,13.12a22.66,22.66,0,0,0,1.4,8.63c3.53,9.38,12.69,13.78,17,15.81a42.1,42.1,0,0,0,5.48,2.14l-.3,1.91-94.5-7.63-.59-1.92c1.31-.81,2.59-1.64,3.93-2.43,11.43-6.68,15.23-16,11.81-27.49s-20.39-31-33.89-38.77c-11.42,10-19.85,21.13-17.2,36,2.71,15.18,17.31,23.95,32.29,32.56a431.43,431.43,0,0,1-96.91-23.09c9.64-2,15.9-6.53,19.55-13.51,4.48-8.58,4.84-17.83,4.58-27.21,0-.76-1.69-2.18-2.72-2.34-13.67-2.16-33.3,6.09-36.4,16.38-1.71,5.68-.3,12.16-.26,18.28a27,27,0,0,0,.56,3.27,351,351,0,0,1-49.63-22.2c1-.58,1.46-1,1.9-1,12.83.65,19.34-5.15,22.57-13.65,2.71-7.13,3.87-14.61,2.31-22.4-26.71-1.16-36.13,8.29-32.83,33.72-20.44-11.38-37.53-24.2-51.07-40.23,1.11.34,2.23.67,3.33,1,9.66,3.22,18.82,3.36,27.67-.2,10.55-4.24,25.38-16.41,30.75-26-13.25-7-27.13-11.83-42.46-9.12-16,2.83-22.06,13.38-27.34,24.26C65.66,253.19,59,204.77,75.24,187.92c-1.82,7.63-.57,14.4,6.28,19.35a118.61,118.61,0,0,0,21.38,11.86c5.79,2.55,12.44,3.71,19.48,5.71,2-10.91,2-21.1-7-30.58-9.4-9.87-23.07-10.65-38.5-12.14,4.64-4.22,7.94-7.91,12.1-10.86,12.61-8.94,31.4-9.35,46.69-1.14a7,7,0,0,1,3.29,4.37c2.23,13.38,9.36,20.21,26.33,22.94,10.51,1.69,21.23,1.89,32,2.77-2-20-19-35.2-41.22-32.26-9.7,1.29-17.73,1-25.87-4.44-2.34-1.57-5.59-2.27-7.72-3.1,4-4.77,9.08-9.08,11.6-14.31,3.17-6.61,4.42-13.94,6-21.06.22-1-2.3-3.57-3.53-3.65-13.28-.91-25.91.25-34.22,8.64s-7.69,18.3-4.09,28.66c.13.39.78.7,1.69,1.47-13.72,4.38-22.21,12.69-29.87,23.44-1.17-16.11-14.8-21.8-29.38-26.75-3.08-1-6.3-1.81-9.44-2.73-3.39-1-4.73-.12-5.28,2.6-3.72,18.48,9.83,31.47,35.1,33.46,1.3.1,2.61.17,5,.33-7.33,17.09-9.27,34.47-1.76,53.85-16.92-11.46-33.45-9.49-50.1-7.67,2.19,11.7,14.06,23,26,25.34C50.77,264,65.77,260.66,69.15,254.84Z" transform="translate(-14.27 -31.46)" fill="#146b71"/>
    <g>
      <path d="M645.45,268.46a1.08,1.08,0,0,1-.86.42H616.46c-.34,0-.51.2-.51.6V292c0,.4.17.6.51.6h18a1.09,1.09,0,0,1,.86.42,1.54,1.54,0,0,1,.35,1v9.12a1.53,1.53,0,0,1-.35,1,1.09,1.09,0,0,1-.86.42h-18c-.34,0-.51.2-.51.6v23c0,.4.17.6.51.6H644.6a1.09,1.09,0,0,1,.86.42,1.53,1.53,0,0,1,.35,1v9.12a1.53,1.53,0,0,1-.35,1,1.08,1.08,0,0,1-.86.42H605.43a1.08,1.08,0,0,1-.86-.42,1.52,1.52,0,0,1-.35-1V258.32a1.53,1.53,0,0,1,.35-1,1.09,1.09,0,0,1,.86-.42H644.6a1.09,1.09,0,0,1,.86.42,1.53,1.53,0,0,1,.35,1v9.12A1.53,1.53,0,0,1,645.45,268.46Z" transform="translate(-14.27 -31.46)" fill="#fff"/>
      <path d="M690.14,284.12q4.15,5.52,4.15,15.24v40.08a1.53,1.53,0,0,1-.35,1,1.09,1.09,0,0,1-.86.42h-9.31a1.08,1.08,0,0,1-.86-.42,1.52,1.52,0,0,1-.35-1V301.28a13.1,13.1,0,0,0-2.08-7.8,6.57,6.57,0,0,0-5.62-2.88,6.88,6.88,0,0,0-5.82,2.94,12.91,12.91,0,0,0-2.18,7.86v38a1.53,1.53,0,0,1-.35,1,1.09,1.09,0,0,1-.86.42h-9.31a1.08,1.08,0,0,1-.86-.42,1.52,1.52,0,0,1-.35-1V281a1.53,1.53,0,0,1,.35-1,1.09,1.09,0,0,1,.86-.42h9.31a1.09,1.09,0,0,1,.86.42,1.54,1.54,0,0,1,.35,1v3.12a.51.51,0,0,0,.2.48q.2.12.4-.24a12.88,12.88,0,0,1,11.13-5.76A13.62,13.62,0,0,1,690.14,284.12Z" transform="translate(-14.27 -31.46)" fill="#fff"/>
      <path d="M714.73,339.68,700.56,281l-.1-.48a1,1,0,0,1,1.11-1.08H711.8q1,0,1.32,1.2l8,39.72c.07.32.17.48.3.48s.24-.16.3-.48l7.89-39.6q.3-1.32,1.32-1.32l10.32.24q1.31,0,1,1.56l-14.17,58.44a1.38,1.38,0,0,1-1.42,1.2H716.15A1.38,1.38,0,0,1,714.73,339.68Z" transform="translate(-14.27 -31.46)" fill="#fff"/>
      <path d="M751.42,268.76a10.48,10.48,0,0,1,0-12.24,6.31,6.31,0,0,1,5.11-2.4,6.48,6.48,0,0,1,5.21,2.34,9.27,9.27,0,0,1,2,6.18,9.17,9.17,0,0,1-2,6.12,6.45,6.45,0,0,1-5.16,2.4A6.3,6.3,0,0,1,751.42,268.76Zm-.41,71.7a1.52,1.52,0,0,1-.35-1V280.88a1.52,1.52,0,0,1,.35-1,1.09,1.09,0,0,1,.86-.42h9.31a1.09,1.09,0,0,1,.86.42,1.53,1.53,0,0,1,.35,1v58.56a1.53,1.53,0,0,1-.35,1,1.09,1.09,0,0,1-.86.42h-9.31A1.08,1.08,0,0,1,751,340.46Z" transform="translate(-14.27 -31.46)" fill="#fff"/>
      <path d="M801.26,280.28a1.61,1.61,0,0,1,.61,1.8L800.15,293q-.1,1.44-1.42.84a7.26,7.26,0,0,0-3-.6,14.09,14.09,0,0,0-2.12.24,7.77,7.77,0,0,0-5.72,3.72,14.64,14.64,0,0,0-2.28,8.4v33.84a1.53,1.53,0,0,1-.35,1,1.09,1.09,0,0,1-.86.42H775a1.08,1.08,0,0,1-.86-.42,1.52,1.52,0,0,1-.35-1V281a1.53,1.53,0,0,1,.35-1,1.09,1.09,0,0,1,.86-.42h9.31a1.09,1.09,0,0,1,.86.42,1.54,1.54,0,0,1,.35,1v5.16c0,.32,0,.5.15.54s.22-.06.35-.3q3.64-7.56,10.22-7.56A8.62,8.62,0,0,1,801.26,280.28Z" transform="translate(-14.27 -31.46)" fill="#fff"/>
      <path d="M813.61,336.62q-5.26-5.22-6.38-14.1a88.75,88.75,0,0,1-.81-12.36,90.64,90.64,0,0,1,.81-12.6q1.11-8.76,6.48-13.86a18.76,18.76,0,0,1,13.46-5.1,18.28,18.28,0,0,1,13.26,5.1q5.26,5.1,6.38,13.74a94.36,94.36,0,0,1,.81,12.6,92.75,92.75,0,0,1-.71,12.36q-1.11,9-6.38,14.22a20,20,0,0,1-26.92,0Zm19.08-9.42a12.64,12.64,0,0,0,2.78-7q.4-6.24.4-10.08t-.4-10.2a12,12,0,0,0-2.78-6.84,7.58,7.58,0,0,0-11.29,0,12.2,12.2,0,0,0-2.73,6.84q-.41,4.2-.4,10.2t.4,10.08a12.84,12.84,0,0,0,2.73,7,7.35,7.35,0,0,0,11.29,0Z" transform="translate(-14.27 -31.46)" fill="#fff"/>
      <path d="M892.35,284.12q4.15,5.52,4.15,15.24v40.08a1.53,1.53,0,0,1-.35,1,1.09,1.09,0,0,1-.86.42H886a1.08,1.08,0,0,1-.86-.42,1.52,1.52,0,0,1-.35-1V301.28a13.1,13.1,0,0,0-2.08-7.8,6.57,6.57,0,0,0-5.62-2.88,6.88,6.88,0,0,0-5.82,2.94,12.91,12.91,0,0,0-2.18,7.86v38a1.53,1.53,0,0,1-.35,1,1.09,1.09,0,0,1-.86.42h-9.31a1.08,1.08,0,0,1-.86-.42,1.52,1.52,0,0,1-.35-1V281a1.53,1.53,0,0,1,.35-1,1.09,1.09,0,0,1,.86-.42h9.31a1.09,1.09,0,0,1,.86.42,1.54,1.54,0,0,1,.35,1v3.12a.51.51,0,0,0,.2.48q.2.12.4-.24a12.88,12.88,0,0,1,11.13-5.76A13.62,13.62,0,0,1,892.35,284.12Z" transform="translate(-14.27 -31.46)" fill="#fff"/>
      <path d="M968.3,284.12q3.9,5.52,3.9,15.36v40a1.53,1.53,0,0,1-.35,1,1.09,1.09,0,0,1-.86.42h-9.21a1.08,1.08,0,0,1-.86-.42,1.52,1.52,0,0,1-.35-1v-38q0-5-2-7.92a6.26,6.26,0,0,0-5.36-2.88,6.56,6.56,0,0,0-5.62,2.88,13.1,13.1,0,0,0-2.08,7.8v38.16a1.53,1.53,0,0,1-.35,1,1.09,1.09,0,0,1-.86.42H935a1.08,1.08,0,0,1-.86-.42,1.52,1.52,0,0,1-.35-1v-38q0-5-2-7.92a6.26,6.26,0,0,0-5.36-2.88,6.56,6.56,0,0,0-5.62,2.88,13.1,13.1,0,0,0-2.07,7.8v38.16a1.53,1.53,0,0,1-.35,1,1.09,1.09,0,0,1-.86.42h-9.21a1.08,1.08,0,0,1-.86-.42,1.52,1.52,0,0,1-.35-1V281a1.53,1.53,0,0,1,.35-1,1.09,1.09,0,0,1,.86-.42h9.21a1.09,1.09,0,0,1,.86.42,1.54,1.54,0,0,1,.35,1v3c0,.24.07.38.2.42s.27,0,.4-.18a14.17,14.17,0,0,1,18.93-3.42,14.67,14.67,0,0,1,5.06,6.3.55.55,0,0,0,.41.24q.2,0,.3-.48a15.31,15.31,0,0,1,5.82-6.3,14.84,14.84,0,0,1,7.44-2A12.76,12.76,0,0,1,968.3,284.12Z" transform="translate(-14.27 -31.46)" fill="#fff"/>
      <path d="M1022.09,309.08l-.1,5.16q0,1.44-1.21,1.44H993.66c-.34,0-.51.2-.51.6q.2,3.36.4,4.92a10.8,10.8,0,0,0,2.83,6.36,7.83,7.83,0,0,0,5.87,2.4,8.39,8.39,0,0,0,5.11-1.8,10.6,10.6,0,0,0,3.19-4.68q.51-1.32,1.52-1l8.3,2a1.3,1.3,0,0,1,.81,1.8,21.64,21.64,0,0,1-6.93,11.46,18.31,18.31,0,0,1-12,4q-8.4,0-13.46-4.8t-6.58-13.32a61,61,0,0,1-.66-6.84q-.15-3.6-.15-9.6a66.12,66.12,0,0,1,.51-9.48q1-8.76,6.28-14a18.18,18.18,0,0,1,13.36-5.22q8.81,0,14.22,5.88t6,15.48Q1022.09,303.92,1022.09,309.08Zm-26-16.14a11,11,0,0,0-2.68,6.3,53.1,53.1,0,0,0-.3,6c0,.4.17.6.51.6h16.09c.34,0,.51-.2.51-.6q-.2-4.08-.4-5.88a10.66,10.66,0,0,0-2.63-6.36,7.28,7.28,0,0,0-5.57-2.4A7.2,7.2,0,0,0,996.13,292.94Z" transform="translate(-14.27 -31.46)" fill="#fff"/>
      <path d="M1066.42,284.12q4.15,5.52,4.15,15.24v40.08a1.53,1.53,0,0,1-.35,1,1.09,1.09,0,0,1-.86.42H1060a1.08,1.08,0,0,1-.86-.42,1.52,1.52,0,0,1-.35-1V301.28a13.1,13.1,0,0,0-2.08-7.8,6.57,6.57,0,0,0-5.62-2.88,6.88,6.88,0,0,0-5.82,2.94,12.91,12.91,0,0,0-2.18,7.86v38a1.53,1.53,0,0,1-.35,1,1.09,1.09,0,0,1-.86.42h-9.31a1.08,1.08,0,0,1-.86-.42,1.52,1.52,0,0,1-.35-1V281a1.53,1.53,0,0,1,.35-1,1.09,1.09,0,0,1,.86-.42h9.31a1.09,1.09,0,0,1,.86.42,1.54,1.54,0,0,1,.35,1v3.12a.51.51,0,0,0,.2.48q.2.12.4-.24a12.88,12.88,0,0,1,11.13-5.76A13.62,13.62,0,0,1,1066.42,284.12Z" transform="translate(-14.27 -31.46)" fill="#fff"/>
      <path d="M1105.24,289.7a1.09,1.09,0,0,1-.86.42h-8.2c-.34,0-.51.2-.51.6v30.12q0,4.44,1.47,6.3a5.22,5.22,0,0,0,4.6,1.74h1.82a1.09,1.09,0,0,1,.86.42,1.54,1.54,0,0,1,.35,1v9.12a1.41,1.41,0,0,1-1.21,1.56h-4.25q-7.49,0-11.23-3.12t-3.74-11.76v-35.4c0-.4-.17-.6-.51-.6h-4.66a1.08,1.08,0,0,1-.86-.42,1.52,1.52,0,0,1-.35-1V281a1.53,1.53,0,0,1,.35-1,1.09,1.09,0,0,1,.86-.42h4.66c.34,0,.51-.2.51-.6V265.28a1.53,1.53,0,0,1,.35-1,1.09,1.09,0,0,1,.86-.42h8.91a1.09,1.09,0,0,1,.86.42,1.53,1.53,0,0,1,.35,1V279c0,.4.17.6.51.6h8.2a1.09,1.09,0,0,1,.86.42,1.54,1.54,0,0,1,.35,1v7.68A1.53,1.53,0,0,1,1105.24,289.7Z" transform="translate(-14.27 -31.46)" fill="#fff"/>
      <path d="M1170.46,339.68l-2.63-12.84q-.1-.48-.51-.48h-20.85c-.27,0-.44.16-.51.48l-2.53,12.84a1.38,1.38,0,0,1-1.42,1.2h-9.61q-1.32,0-1-1.56l18.42-81.24a1.38,1.38,0,0,1,1.42-1.2h11.54a1.38,1.38,0,0,1,1.42,1.2l18.42,81.24.1.48a1,1,0,0,1-1.11,1.08h-9.72A1.38,1.38,0,0,1,1170.46,339.68Zm-22-24.42a.61.61,0,0,0,.41.18h16a.62.62,0,0,0,.41-.18.49.49,0,0,0,.1-.54l-8.3-39.36q-.1-.36-.3-.36t-.3.36l-8.1,39.36A.49.49,0,0,0,1148.5,315.26Z" transform="translate(-14.27 -31.46)" fill="#fff"/>
      <path d="M1195.51,336.86q-5.21-5-6.33-13.62a85,85,0,0,1-.81-13.2,91.48,91.48,0,0,1,.81-13.08q1.11-8.4,6.38-13.38a18.66,18.66,0,0,1,13.36-5,19.17,19.17,0,0,1,13.16,4.74,19.77,19.77,0,0,1,6.48,12.42c.07.32.13.72.2,1.2a13.46,13.46,0,0,1,.1,1.8V299a1.24,1.24,0,0,1-1.11,1.32l-9.21,1.08h-.2q-.91,0-1.11-1.32a8.83,8.83,0,0,0-.2-1.8,9.76,9.76,0,0,0-2.68-5.46,7.4,7.4,0,0,0-5.52-2.22,7.12,7.12,0,0,0-5.52,2.4,11.33,11.33,0,0,0-2.68,6.36,99.43,99.43,0,0,0-.51,10.8,80.42,80.42,0,0,0,.61,11,11.22,11.22,0,0,0,2.63,6.3,7,7,0,0,0,5.46,2.34,7.33,7.33,0,0,0,5.62-2.34,9.88,9.88,0,0,0,2.58-5.7l.1-1.2a1.88,1.88,0,0,1,.51-1,.91.91,0,0,1,.91-.3l9.11,1a1.41,1.41,0,0,1,1.21,1.56l-.2,2a20.08,20.08,0,0,1-6.28,13.08,19.15,19.15,0,0,1-13.46,4.92Q1200.72,341.84,1195.51,336.86Z" transform="translate(-14.27 -31.46)" fill="#fff"/>
      <path d="M1261.6,289.7a1.09,1.09,0,0,1-.86.42h-8.2c-.34,0-.51.2-.51.6v30.12q0,4.44,1.47,6.3a5.22,5.22,0,0,0,4.6,1.74h1.82a1.09,1.09,0,0,1,.86.42,1.54,1.54,0,0,1,.35,1v9.12a1.41,1.41,0,0,1-1.21,1.56h-4.25q-7.49,0-11.23-3.12t-3.74-11.76v-35.4c0-.4-.17-.6-.51-.6h-4.66a1.08,1.08,0,0,1-.86-.42,1.52,1.52,0,0,1-.35-1V281a1.53,1.53,0,0,1,.35-1,1.09,1.09,0,0,1,.86-.42h4.66c.34,0,.51-.2.51-.6V265.28a1.53,1.53,0,0,1,.35-1,1.09,1.09,0,0,1,.86-.42h8.91a1.09,1.09,0,0,1,.86.42,1.53,1.53,0,0,1,.35,1V279c0,.4.17.6.51.6h8.2a1.09,1.09,0,0,1,.86.42,1.54,1.54,0,0,1,.35,1v7.68A1.53,1.53,0,0,1,1261.6,289.7Z" transform="translate(-14.27 -31.46)" fill="#fff"/>
      <path d="M1271.92,268.76a10.48,10.48,0,0,1,0-12.24,6.31,6.31,0,0,1,5.11-2.4,6.48,6.48,0,0,1,5.21,2.34,9.27,9.27,0,0,1,2,6.18,9.17,9.17,0,0,1-2,6.12,6.45,6.45,0,0,1-5.16,2.4A6.3,6.3,0,0,1,1271.92,268.76Zm-.41,71.7a1.52,1.52,0,0,1-.35-1V280.88a1.52,1.52,0,0,1,.35-1,1.09,1.09,0,0,1,.86-.42h9.31a1.09,1.09,0,0,1,.86.42,1.53,1.53,0,0,1,.35,1v58.56a1.53,1.53,0,0,1-.35,1,1.09,1.09,0,0,1-.86.42h-9.31A1.08,1.08,0,0,1,1271.52,340.46Z" transform="translate(-14.27 -31.46)" fill="#fff"/>
      <path d="M1300.31,336.62q-5.26-5.22-6.38-14.1a88.75,88.75,0,0,1-.81-12.36,90.64,90.64,0,0,1,.81-12.6q1.11-8.76,6.48-13.86a18.76,18.76,0,0,1,13.46-5.1,18.28,18.28,0,0,1,13.26,5.1q5.26,5.1,6.38,13.74a94.36,94.36,0,0,1,.81,12.6,92.75,92.75,0,0,1-.71,12.36q-1.11,9-6.38,14.22a20,20,0,0,1-26.92,0Zm19.08-9.42a12.64,12.64,0,0,0,2.78-7q.4-6.24.4-10.08t-.4-10.2a12,12,0,0,0-2.78-6.84,7.58,7.58,0,0,0-11.29,0,12.2,12.2,0,0,0-2.73,6.84q-.41,4.2-.4,10.2t.4,10.08a12.84,12.84,0,0,0,2.73,7,7.35,7.35,0,0,0,11.29,0Z" transform="translate(-14.27 -31.46)" fill="#fff"/>
      <path d="M1379,284.12q4.15,5.52,4.15,15.24v40.08a1.53,1.53,0,0,1-.35,1,1.09,1.09,0,0,1-.86.42h-9.31a1.08,1.08,0,0,1-.86-.42,1.52,1.52,0,0,1-.35-1V301.28a13.1,13.1,0,0,0-2.08-7.8,6.57,6.57,0,0,0-5.62-2.88,6.88,6.88,0,0,0-5.82,2.94,12.91,12.91,0,0,0-2.18,7.86v38a1.53,1.53,0,0,1-.35,1,1.09,1.09,0,0,1-.86.42h-9.31a1.08,1.08,0,0,1-.86-.42,1.52,1.52,0,0,1-.35-1V281a1.53,1.53,0,0,1,.35-1,1.09,1.09,0,0,1,.86-.42h9.31a1.09,1.09,0,0,1,.86.42,1.54,1.54,0,0,1,.35,1v3.12a.51.51,0,0,0,.2.48q.2.12.4-.24a12.88,12.88,0,0,1,11.13-5.76A13.62,13.62,0,0,1,1379,284.12Z" transform="translate(-14.27 -31.46)" fill="#fff"/>
    </g>
    <g>
      <path d="M601.22,441.78a1.53,1.53,0,0,1-.35-1V359.64a1.53,1.53,0,0,1,.35-1,1.09,1.09,0,0,1,.86-.42h9.31a1.09,1.09,0,0,1,.86.42,1.54,1.54,0,0,1,.35,1v70c0,.4.17.6.51.6h27.83a1.09,1.09,0,0,1,.86.42,1.53,1.53,0,0,1,.35,1v9.12a1.53,1.53,0,0,1-.35,1,1.09,1.09,0,0,1-.86.42H602.08A1.08,1.08,0,0,1,601.22,441.78Z" transform="translate(-14.27 -31.46)" fill="#fff"/>
      <path d="M678.59,382.5a18.11,18.11,0,0,1,6.93,7.14A21.52,21.52,0,0,1,688,400.08v40.68a1.53,1.53,0,0,1-.35,1,1.09,1.09,0,0,1-.86.42h-9.31a1.08,1.08,0,0,1-.86-.42,1.52,1.52,0,0,1-.35-1v-3a.51.51,0,0,0-.2-.48c-.14-.08-.27,0-.41.12q-4.25,5.76-12.25,5.76a16.18,16.18,0,0,1-11.33-4.26q-4.66-4.26-4.66-13.86,0-10.08,5.41-15t14.93-4.92h8c.34,0,.51-.2.51-.6v-3a10.91,10.91,0,0,0-2.07-7,6.94,6.94,0,0,0-5.72-2.58,7.08,7.08,0,0,0-4.81,1.62,7.33,7.33,0,0,0-2.38,4.38q-.3,1.32-1.42,1.32l-9.82-.72a1.08,1.08,0,0,1-.86-.42,1,1,0,0,1-.25-.9,17.9,17.9,0,0,1,6-12.48,19.48,19.48,0,0,1,13.41-4.8A20,20,0,0,1,678.59,382.5Zm-5.26,46.68a9.24,9.24,0,0,0,2.93-7.14V415.8q0-.6-.51-.6H669a10.25,10.25,0,0,0-7,2.28,8.34,8.34,0,0,0-2.58,6.6,7.9,7.9,0,0,0,2,5.82,6.9,6.9,0,0,0,5.11,2A9.84,9.84,0,0,0,673.33,429.18Z" transform="translate(-14.27 -31.46)" fill="#fff"/>
      <path d="M721.86,391a1.09,1.09,0,0,1-.86.42h-8.2c-.34,0-.51.2-.51.6v30.12q0,4.44,1.47,6.3a5.23,5.23,0,0,0,4.6,1.74h1.82a1.09,1.09,0,0,1,.86.42,1.53,1.53,0,0,1,.35,1v9.12a1.4,1.4,0,0,1-1.21,1.56h-4.25q-7.49,0-11.23-3.12T701,427.44V392c0-.4-.17-.6-.51-.6h-4.66a1.08,1.08,0,0,1-.86-.42,1.52,1.52,0,0,1-.35-1v-7.68a1.53,1.53,0,0,1,.35-1,1.09,1.09,0,0,1,.86-.42h4.66c.34,0,.51-.2.51-.6V366.6a1.53,1.53,0,0,1,.35-1,1.09,1.09,0,0,1,.86-.42h8.91a1.09,1.09,0,0,1,.86.42,1.53,1.53,0,0,1,.35,1v13.68c0,.4.17.6.51.6H721a1.09,1.09,0,0,1,.86.42,1.54,1.54,0,0,1,.35,1V390A1.53,1.53,0,0,1,721.86,391Z" transform="translate(-14.27 -31.46)" fill="#fff"/>
      <path d="M732.18,370.08a10.47,10.47,0,0,1,0-12.24,6.31,6.31,0,0,1,5.11-2.4,6.48,6.48,0,0,1,5.21,2.34,9.27,9.27,0,0,1,2,6.18,9.16,9.16,0,0,1-2,6.12,6.45,6.45,0,0,1-5.16,2.4A6.3,6.3,0,0,1,732.18,370.08Zm-.41,71.7a1.52,1.52,0,0,1-.35-1V382.2a1.53,1.53,0,0,1,.35-1,1.09,1.09,0,0,1,.86-.42h9.31a1.09,1.09,0,0,1,.86.42,1.54,1.54,0,0,1,.35,1v58.56a1.53,1.53,0,0,1-.35,1,1.09,1.09,0,0,1-.86.42h-9.31A1.08,1.08,0,0,1,731.77,441.78Z" transform="translate(-14.27 -31.46)" fill="#fff"/>
      <path d="M789.71,385.44q4.15,5.52,4.15,15.24v40.08a1.53,1.53,0,0,1-.35,1,1.09,1.09,0,0,1-.86.42h-9.31a1.08,1.08,0,0,1-.86-.42,1.52,1.52,0,0,1-.35-1V402.6a13.1,13.1,0,0,0-2.08-7.8,6.57,6.57,0,0,0-5.62-2.88,6.88,6.88,0,0,0-5.82,2.94,12.91,12.91,0,0,0-2.18,7.86v38a1.53,1.53,0,0,1-.35,1,1.09,1.09,0,0,1-.86.42h-9.31a1.08,1.08,0,0,1-.86-.42,1.52,1.52,0,0,1-.35-1V382.32a1.53,1.53,0,0,1,.35-1,1.09,1.09,0,0,1,.86-.42h9.31a1.09,1.09,0,0,1,.86.42,1.54,1.54,0,0,1,.35,1v3.12a.51.51,0,0,0,.2.48c.13.08.27,0,.4-.24a12.88,12.88,0,0,1,11.13-5.76A13.62,13.62,0,0,1,789.71,385.44Z" transform="translate(-14.27 -31.46)" fill="#fff"/>
      <path d="M860.56,441l-2.63-12.84c-.07-.32-.24-.48-.51-.48H836.57c-.27,0-.44.16-.51.48L833.53,441a1.38,1.38,0,0,1-1.42,1.2H822.5q-1.32,0-1-1.56l18.42-81.24a1.37,1.37,0,0,1,1.42-1.2h11.54a1.38,1.38,0,0,1,1.42,1.2l18.42,81.24.1.48a1,1,0,0,1-1.11,1.08H862A1.38,1.38,0,0,1,860.56,441Zm-22-24.42a.61.61,0,0,0,.41.18h16a.61.61,0,0,0,.41-.18.49.49,0,0,0,.1-.54l-8.3-39.36c-.07-.24-.17-.36-.3-.36s-.24.12-.3.36L838.49,416A.49.49,0,0,0,838.6,416.58Z" transform="translate(-14.27 -31.46)" fill="#fff"/>
      <path d="M941.78,385.44q3.9,5.52,3.9,15.36v40a1.53,1.53,0,0,1-.35,1,1.09,1.09,0,0,1-.86.42h-9.21a1.08,1.08,0,0,1-.86-.42,1.52,1.52,0,0,1-.35-1v-38q0-5-2-7.92a6.26,6.26,0,0,0-5.36-2.88A6.56,6.56,0,0,0,921,394.8a13.09,13.09,0,0,0-2.08,7.8v38.16a1.53,1.53,0,0,1-.35,1,1.09,1.09,0,0,1-.86.42h-9.31a1.08,1.08,0,0,1-.86-.42,1.52,1.52,0,0,1-.35-1v-38q0-5-2-7.92a6.26,6.26,0,0,0-5.36-2.88,6.57,6.57,0,0,0-5.62,2.88,13.09,13.09,0,0,0-2.07,7.8v38.16a1.53,1.53,0,0,1-.35,1,1.09,1.09,0,0,1-.86.42h-9.21a1.08,1.08,0,0,1-.86-.42,1.52,1.52,0,0,1-.35-1V382.32a1.53,1.53,0,0,1,.35-1,1.09,1.09,0,0,1,.86-.42h9.21a1.09,1.09,0,0,1,.86.42,1.54,1.54,0,0,1,.35,1v3c0,.24.07.38.2.42s.27,0,.4-.18a14.17,14.17,0,0,1,18.93-3.42,14.67,14.67,0,0,1,5.06,6.3.55.55,0,0,0,.41.24c.13,0,.24-.16.3-.48a15.31,15.31,0,0,1,5.82-6.3,14.84,14.84,0,0,1,7.44-2A12.76,12.76,0,0,1,941.78,385.44Z" transform="translate(-14.27 -31.46)" fill="#fff"/>
      <path d="M995.57,410.4l-.1,5.16q0,1.44-1.21,1.44H967.13c-.34,0-.51.2-.51.6q.2,3.36.4,4.92a10.8,10.8,0,0,0,2.83,6.36,7.83,7.83,0,0,0,5.87,2.4,8.4,8.4,0,0,0,5.11-1.8A10.61,10.61,0,0,0,984,424.8q.51-1.32,1.52-1l8.3,2a1.3,1.3,0,0,1,.81,1.8,21.64,21.64,0,0,1-6.93,11.46,18.31,18.31,0,0,1-12,4q-8.4,0-13.46-4.8T955.69,425a61,61,0,0,1-.66-6.84q-.15-3.6-.15-9.6a66.1,66.1,0,0,1,.51-9.48q1-8.76,6.28-14A18.17,18.17,0,0,1,975,379.92q8.81,0,14.22,5.88t6,15.48Q995.57,405.24,995.57,410.4Zm-26-16.14a11,11,0,0,0-2.68,6.3,53.09,53.09,0,0,0-.3,6c0,.4.17.6.51.6h16.09c.34,0,.51-.2.51-.6q-.2-4.08-.4-5.88a10.66,10.66,0,0,0-2.63-6.36,7.66,7.66,0,0,0-11.08-.06Z" transform="translate(-14.27 -31.46)" fill="#fff"/>
      <path d="M1032.2,381.6a1.61,1.61,0,0,1,.61,1.8l-1.72,10.92q-.1,1.44-1.42.84a7.27,7.27,0,0,0-3-.6,14,14,0,0,0-2.12.24,7.77,7.77,0,0,0-5.72,3.72,14.65,14.65,0,0,0-2.28,8.4v33.84a1.53,1.53,0,0,1-.35,1,1.09,1.09,0,0,1-.86.42H1006a1.08,1.08,0,0,1-.86-.42,1.53,1.53,0,0,1-.35-1V382.32a1.53,1.53,0,0,1,.35-1,1.09,1.09,0,0,1,.86-.42h9.31a1.09,1.09,0,0,1,.86.42,1.54,1.54,0,0,1,.35,1v5.16c0,.32,0,.5.15.54s.22-.06.35-.3q3.64-7.56,10.22-7.56A8.63,8.63,0,0,1,1032.2,381.6Z" transform="translate(-14.27 -31.46)" fill="#fff"/>
      <path d="M1040.76,370.08a10.47,10.47,0,0,1,0-12.24,6.31,6.31,0,0,1,5.11-2.4,6.48,6.48,0,0,1,5.21,2.34,9.27,9.27,0,0,1,2,6.18,9.16,9.16,0,0,1-2,6.12,6.45,6.45,0,0,1-5.16,2.4A6.3,6.3,0,0,1,1040.76,370.08Zm-.41,71.7a1.52,1.52,0,0,1-.35-1V382.2a1.53,1.53,0,0,1,.35-1,1.09,1.09,0,0,1,.86-.42h9.31a1.09,1.09,0,0,1,.86.42,1.54,1.54,0,0,1,.35,1v58.56a1.53,1.53,0,0,1-.35,1,1.09,1.09,0,0,1-.86.42h-9.31A1.08,1.08,0,0,1,1040.35,441.78Z" transform="translate(-14.27 -31.46)" fill="#fff"/>
      <path d="M1069.29,438.18q-5.21-5-6.33-13.62a85,85,0,0,1-.81-13.2,91.47,91.47,0,0,1,.81-13.08q1.11-8.4,6.38-13.38a18.66,18.66,0,0,1,13.36-5,19.17,19.17,0,0,1,13.16,4.74,19.78,19.78,0,0,1,6.48,12.42c.07.32.13.72.2,1.2a13.45,13.45,0,0,1,.1,1.8v.24a1.24,1.24,0,0,1-1.11,1.32l-9.21,1.08h-.2q-.91,0-1.11-1.32a8.85,8.85,0,0,0-.2-1.8,9.76,9.76,0,0,0-2.68-5.46,7.4,7.4,0,0,0-5.52-2.22,7.12,7.12,0,0,0-5.52,2.4,11.33,11.33,0,0,0-2.68,6.36,99.47,99.47,0,0,0-.51,10.8,80.4,80.4,0,0,0,.61,11,11.22,11.22,0,0,0,2.63,6.3,7,7,0,0,0,5.46,2.34,7.33,7.33,0,0,0,5.62-2.34,9.88,9.88,0,0,0,2.58-5.7l.1-1.2a1.88,1.88,0,0,1,.51-1,.91.91,0,0,1,.91-.3l9.11,1a1.41,1.41,0,0,1,1.21,1.56l-.2,2a20.08,20.08,0,0,1-6.28,13.08,19.15,19.15,0,0,1-13.46,4.92Q1074.51,443.16,1069.29,438.18Z" transform="translate(-14.27 -31.46)" fill="#fff"/>
      <path d="M1140.39,382.5a18.11,18.11,0,0,1,6.93,7.14,21.52,21.52,0,0,1,2.48,10.44v40.68a1.53,1.53,0,0,1-.35,1,1.09,1.09,0,0,1-.86.42h-9.31a1.08,1.08,0,0,1-.86-.42,1.52,1.52,0,0,1-.35-1v-3a.51.51,0,0,0-.2-.48c-.14-.08-.27,0-.41.12q-4.25,5.76-12.25,5.76a16.18,16.18,0,0,1-11.33-4.26q-4.66-4.26-4.66-13.86,0-10.08,5.41-15t14.93-4.92h8c.34,0,.51-.2.51-.6v-3a10.91,10.91,0,0,0-2.07-7,6.94,6.94,0,0,0-5.72-2.58,7.08,7.08,0,0,0-4.81,1.62,7.33,7.33,0,0,0-2.38,4.38q-.3,1.32-1.42,1.32l-9.82-.72a1.08,1.08,0,0,1-.86-.42,1,1,0,0,1-.25-.9,17.9,17.9,0,0,1,6-12.48,19.48,19.48,0,0,1,13.41-4.8A20,20,0,0,1,1140.39,382.5Zm-5.26,46.68a9.24,9.24,0,0,0,2.93-7.14V415.8q0-.6-.51-.6h-6.78a10.25,10.25,0,0,0-7,2.28,8.34,8.34,0,0,0-2.58,6.6,7.9,7.9,0,0,0,2,5.82,6.9,6.9,0,0,0,5.11,2A9.84,9.84,0,0,0,1135.13,429.18Z" transform="translate(-14.27 -31.46)" fill="#fff"/>
    </g>
  </g>
</svg>
