<svg xmlns="http://www.w3.org/2000/svg" viewBox="0 0 776.3 291.89">
  <title>water-drop</title>
  <path d="M115.69,420.84,96.1,422c-3.9-18.81,0-36.58,8.66-52.56,11.95-22,25.47-43.3,39.3-64.25,22.79-34.52,46.38-68.52,68.51-101.09,32.23,48.3,66.18,98.36,99.07,149.1,7.08,10.92,11.47,24,15.2,36.61,7.35,24.84.82,38.74-23.9,53.08,10.32-33.87,0-63-18.15-89.91-23.41-34.7-47.64-68.85-73.41-106C180.69,306.31,124.31,348.89,115.69,420.84Z" transform="translate(-94.58 -204.06)" fill="#8c8c8c"/>
  <path d="M325,453.88c-8.34,12.45-15.39,26.08-25.42,37-8.28,9-19.33,4.76-27.72-2.61-5.51-4.84-9.73-11.11-14.94-16.34-14.11-14.14-30.64-14.61-44.21-.34-15.75,16.56-39.52,25.61-62.23,9.54-8.05-5.7-19.36-6.72-29.06-10.2-4.93-1.77-12-3-13.88-6.68-4-7.9-5.22-17.19-7.58-25.92C108,437,116.47,433.59,124,435a117.27,117.27,0,0,1,33,11.86c24,12.72,38.45,11.83,59.38-5.83,23.51-19.84,31.21-19.51,51.77,2.21,21.28,22.48,25.35,23.09,53.27,7.94Z" transform="translate(-94.58 -204.06)" fill="#b7b7b7"/>
  <text transform="translate(235.11 208.61)" font-size="80" fill="#b7b7b7" font-family="MontserratSubrayada-Bold, Montserrat Subrayada" font-weight="700">WaterDrop</text>
</svg>
