<svg xmlns="http://www.w3.org/2000/svg" viewBox="0 0 398.93 150">
  <title>waterdrop</title>
  <path d="M-5.89,86.41-16,87c-2-9.67,0-18.8,4.45-27C-5.37,48.64,1.58,37.71,8.69,27,20.4,9.21,32.52-8.26,43.89-25,60.46-.18,77.9,25.55,94.81,51.62c3.64,5.61,5.89,12.32,7.81,18.81,3.78,12.76.42,19.91-12.28,27.28,5.3-17.41,0-32.37-9.33-46.21C69,33.67,56.53,16.12,43.29-2.94,27.51,27.55-1.46,49.43-5.89,86.41Z" transform="translate(16.74 25)" fill="#8c8c8c"/>
  <path d="M101.67,103.38c-4.29,6.4-7.91,13.4-13.06,19-4.26,4.63-9.93,2.45-14.25-1.34-2.83-2.49-5-5.71-7.68-8.39-7.25-7.27-15.75-7.51-22.72-.18-8.09,8.51-20.31,13.16-32,4.9C7.85,114.44,2,113.92-3,112.13c-2.53-.91-6.19-1.56-7.13-3.43-2-4.06-2.68-8.84-3.89-13.32,4.14-.65,8.49-2.42,12.38-1.7a60.26,60.26,0,0,1,17,6.1c12.33,6.54,19.76,6.08,30.52-3,12.08-10.19,16-10,26.6,1.13,10.94,11.55,13,11.87,27.37,4.08Z" transform="translate(16.74 25)" fill="#b7b7b7"/>
  <g>
    <path d="M146,80.44V82.2H131.3l-6.29-20-6.25,20H104.08V80.44h9.29l-9.41-27h6.95L116.58,70l5.1-16.53h6.7L133.44,70l5.71-16.53h6.95l-9.41,27Z" transform="translate(16.74 25)" fill="#b7b7b7"/>
    <path d="M180.8,80.44V82.2H170L167.31,76h-12l-2.67,6.21H141.78V80.44h4.73l11.68-27h6.21l11.63,27ZM161.31,62l-3.62,8.35h7.19Z" transform="translate(16.74 25)" fill="#b7b7b7"/>
    <path d="M201.6,80.44V82.2h-25V80.44h9.29V59h-8.14V53.47h22.69V59h-8.14V80.44Z" transform="translate(16.74 25)" fill="#b7b7b7"/>
    <path d="M205.13,80.44v-27h20.72v5.71H211.55V65.1h12.87v5.47H211.55v6H226.3v3.91h4V82.2H201.14V80.44Z" transform="translate(16.74 25)" fill="#b7b7b7"/>
    <path d="M232,80.44v-27h10.89q6.7,0,9.56,2.26T255.33,63q0,6.91-5.47,8.92l6,8.51h3.86V82.2H249.24L242.87,73h-4.44V82.2H228V80.44Zm15.58-14A4.34,4.34,0,0,0,248.79,63a3.63,3.63,0,0,0-1.23-3.19,7.89,7.89,0,0,0-4.32-.86h-4.81v8.51h4.69Q246.41,67.49,247.6,66.42Z" transform="translate(16.74 25)" fill="#b7b7b7"/>
    <path d="M290.52,80.44V82.2h-32.6V80.44h4v-27h10.15q7.69,0,11.8,3.76T288,67.81q0,9.21-7.15,12.62Zm-11.37-6.13q2.36-2.22,2.36-6.45a8.64,8.64,0,0,0-2.36-6.52q-2.37-2.28-7.26-2.28h-3.58V76.53h4.07Q276.79,76.53,279.15,74.31Z" transform="translate(16.74 25)" fill="#b7b7b7"/>
    <path d="M294.06,80.44v-27h10.89q6.7,0,9.56,2.26T317.37,63q0,6.91-5.47,8.92l6,8.51h3.86V82.2H311.28L304.91,73h-4.44V82.2h-10.4V80.44Zm15.58-14A4.34,4.34,0,0,0,310.83,63a3.63,3.63,0,0,0-1.23-3.19,7.89,7.89,0,0,0-4.32-.86h-4.81v8.51h4.69Q308.44,67.49,309.64,66.42Z" transform="translate(16.74 25)" fill="#b7b7b7"/>
    <path d="M354.37,80.44V82.2h-34V80.44h9.17a14.22,14.22,0,0,1-5.32-5.3,14.65,14.65,0,0,1-2-7.48,14.19,14.19,0,0,1,4.36-10.59,15.66,15.66,0,0,1,21.46,0,14.2,14.2,0,0,1,4.36,10.59,14.61,14.61,0,0,1-7.28,12.79Zm-8.43-12.77a9.4,9.4,0,0,0-2.47-6.56,8.13,8.13,0,0,0-12.13,0,9.92,9.92,0,0,0,0,13.09,8.17,8.17,0,0,0,12.13,0A9.33,9.33,0,0,0,345.94,67.67Z" transform="translate(16.74 25)" fill="#b7b7b7"/>
    <path d="M382.2,80.44V82.2H353.91V80.44h4v-27h10.15q6.62,0,9.64,2.57t3,7.89q0,5.33-3.1,7.79t-9.48,2.47h-3.82v6.25ZM373,67.34a5.53,5.53,0,0,0,1.15-3.78,4,4,0,0,0-1.5-3.54A8.25,8.25,0,0,0,368,59h-3.66v9.66h4.32Q371.84,68.64,373,67.34Z" transform="translate(16.74 25)" fill="#b7b7b7"/>
  </g>
</svg>
